Recursive Sans-Linear SemiBold.ufo
<glyph name="exclam" format="2">
  <advance width="350.0"/>
  <unicode hex="0021"/>
  <outline>
    <contour>
      <point x="219.93396226415095" y="275.37735849056605" type="line"/>
      <point x="229.5943396226415" y="351.0566037735849"/>
      <point x="239.25471698113208" y="426.3207547169811"/>
      <point x="248.91509433962264" y="502.0" type="curve"/>
      <point x="248.91509433962264" y="689.0" type="line" smooth="yes"/>
      <point x="248.91509433962264" y="696.0"/>
      <point x="244.20754716981133" y="700.0"/>
      <point x="237.91509433962264" y="700.0" type="curve"/>
      <point x="181.12264150943398" y="700.0"/>
      <point x="135.9433962264151" y="700.0"/>
      <point x="101.08490566037736" y="700.0" type="curve"/>
      <point x="101.08490566037736" y="662.0"/>
      <point x="101.08490566037736" y="627.0"/>
      <point x="101.08490566037736" y="590.0" type="curve" smooth="yes"/>
      <point x="101.08490566037736" y="502.0" type="line"/>
      <point x="127.35849056603774" y="285.83962264150944"/>
      <point x="128.35849056603774" y="282.37735849056605"/>
      <point x="132.35849056603774" y="278.37735849056605" type="curve" smooth="yes"/>
      <point x="134.35849056603774" y="276.37735849056605"/>
      <point x="136.35849056603774" y="275.37735849056605"/>
      <point x="140.35849056603774" y="275.37735849056605" type="curve"/>
    </contour>
    <component base="period"/>
  </outline>
</glyph>
<glyph name="period" format="2">
  <advance width="350.0"/>
  <unicode hex="002E"/>
  <outline>
    <contour>
      <point x="255.96226415094338" y="-8.537735849056602" type="curve"/>
      <point x="255.96226415094338" y="144.14150943396226" type="line" smooth="yes"/>
      <point x="255.96226415094338" y="151.14150943396226"/>
      <point x="251.96226415094338" y="155.14150943396226"/>
      <point x="244.96226415094338" y="155.14150943396226" type="curve" smooth="yes"/>
      <point x="191.61320754716982" y="155.14150943396226"/>
      <point x="147.38679245283018" y="155.14150943396226"/>
      <point x="94.0377358490566" y="155.14150943396226" type="curve"/>
      <point x="94.0377358490566" y="2.4622641509433967" type="line" smooth="yes"/>
      <point x="94.0377358490566" y="-4.537735849056603"/>
      <point x="98.0377358490566" y="-8.537735849056602"/>
      <point x="105.0377358490566" y="-8.537735849056602" type="curve" smooth="yes"/>
      <point x="158.38679245283018" y="-8.537735849056602"/>
      <point x="202.61320754716982" y="-8.537735849056602"/>
    </contour>
  </outline>
</glyph>
<glyph name="four" format="2">
  <advance width="600.0"/>
  <unicode hex="0034"/>
  <outline>
    <contour>
      <point x="317.22641509433964" y="700.0" type="curve" smooth="yes"/>
      <point x="308.688679245283" y="700.0"/>
      <point x="302.5188679245283" y="698.5849056603773"/>
      <point x="297.5188679245283" y="690.5849056603773" type="curve" smooth="yes"/>
      <point x="248.94339622641508" y="609.933962264151"/>
      <point x="44.38679245283019" y="266.38679245283015"/>
      <point x="44.38679245283019" y="265.0943396226415" type="curve" smooth="yes"/>
      <point x="44.38679245283019" y="167.12264150943398" type="line"/>
      <point x="44.38679245283019" y="160.12264150943398"/>
      <point x="48.38679245283019" y="156.12264150943398"/>
      <point x="55.38679245283019" y="156.12264150943398" type="curve" smooth="yes"/>
      <point x="560.0" y="156.12264150943398" type="line"/>
      <point x="560.0" y="166.70754716981133"/>
      <point x="560.0" y="244.21698113207546"/>
      <point x="560.0" y="254.09433962264148" type="curve" smooth="yes"/>
      <point x="560.0" y="261.0943396226415"/>
      <point x="556.0" y="265.0943396226415"/>
      <point x="549.0" y="265.0943396226415" type="curve"/>
      <point x="344.9811320754717" y="265.0943396226415" type="line" smooth="yes"/>
      <point x="259.00943396226415" y="265.0943396226415"/>
      <point x="203.8679245283019" y="260.2641509433962"/>
      <point x="141.5566037735849" y="235.99056603773585" type="curve"/>
      <point x="167.31132075471697" y="219.2830188679245" type="line"/>
      <point x="167.31132075471697" y="295.87735849056605" type="line"/>
      <point x="147.4811320754717" y="232.18867924528303" type="line"/>
      <point x="252.16037735849056" y="396.42452830188677"/>
      <point x="344.91509433962267" y="541.688679245283"/>
      <point x="434.5943396226415" y="682.3396226415094" type="curve"/>
      <point x="434.5943396226415" y="700.0" type="line"/>
      <point x="423.1320754716981" y="700.0"/>
      <point x="330.10377358490564" y="700.0"/>
    </contour>
    <contour>
      <point x="393.1132075471698" y="404.1509433962264" type="curve"/>
      <point x="391.6981132075472" y="378.2830188679245"/>
      <point x="378.2547169811321" y="294.5"/>
      <point x="370.47169811320754" y="245.2830188679245" type="curve" smooth="yes"/>
      <point x="370.47169811320754" y="219.7830188679245"/>
      <point x="370.47169811320754" y="36.5"/>
      <point x="370.47169811320754" y="11.0" type="curve" smooth="yes"/>
      <point x="370.47169811320754" y="4.0"/>
      <point x="374.47169811320754" y="0.0"/>
      <point x="381.47169811320754" y="0.0" type="curve" smooth="yes"/>
      <point x="392.3490566037736" y="0.0"/>
      <point x="480.3490566037736" y="0.0"/>
      <point x="491.22641509433964" y="0.0" type="curve"/>
      <point x="491.22641509433964" y="11.169811320754718"/>
      <point x="491.22641509433964" y="81.85849056603773"/>
      <point x="491.22641509433964" y="98.58490566037736" type="curve" smooth="yes"/>
      <point x="491.22641509433964" y="393.1509433962264" type="line"/>
      <point x="491.22641509433964" y="400.1509433962264"/>
      <point x="487.22641509433964" y="404.1509433962264"/>
      <point x="480.22641509433964" y="404.1509433962264" type="curve"/>
      <point x="469.3490566037736" y="404.1509433962264"/>
      <point x="403.99056603773585" y="404.1509433962264"/>
    </contour>
  </outline>
</glyph>
<glyph name="five" format="2">
  <advance width="600.0"/>
  <unicode hex="0035"/>
  <outline>
    <contour>
      <point x="121.04716981132076" y="700.0" type="curve"/>
      <point x="121.04716981132076" y="688.0471698113207"/>
      <point x="121.04716981132076" y="679.3867924528302"/>
      <point x="121.04716981132076" y="669.433962264151" type="curve" smooth="yes"/>
      <point x="121.04716981132076" y="626.5471698113207"/>
      <point x="150.9056603773585" y="593.1509433962265"/>
      <point x="202.91509433962264" y="593.1509433962265" type="curve" smooth="yes"/>
      <point x="224.06603773584905" y="593.1509433962265"/>
      <point x="504.1509433962264" y="593.1509433962265"/>
      <point x="514.1509433962265" y="593.1509433962265" type="curve"/>
      <point x="514.1509433962265" y="603.7358490566038"/>
      <point x="514.1509433962265" y="678.4150943396227"/>
      <point x="514.1509433962265" y="689.0" type="curve" smooth="yes"/>
      <point x="514.1509433962265" y="696.0"/>
      <point x="510.1509433962264" y="700.0"/>
      <point x="503.1509433962264" y="700.0" type="curve"/>
      <point x="493.1509433962264" y="700.0"/>
      <point x="134.67924528301887" y="700.0"/>
    </contour>
    <contour>
      <point x="121.04716981132076" y="700.0" type="line"/>
      <point x="108.04716981132076" y="573.6792452830189"/>
      <point x="86.63207547169812" y="357.7641509433962"/>
      <point x="81.4622641509434" y="316.52830188679246" type="curve" smooth="yes"/>
      <point x="80.4622641509434" y="307.2358490566038"/>
      <point x="84.75471698113208" y="303.2358490566038"/>
      <point x="92.87735849056604" y="303.2358490566038" type="curve" smooth="yes"/>
      <point x="198.09433962264148" y="303.2358490566038" type="line"/>
      <point x="231.16037735849056" y="319.6981132075472"/>
      <point x="271.0566037735849" y="329.2830188679245"/>
      <point x="312.95283018867923" y="329.2830188679245" type="curve" smooth="yes"/>
      <point x="392.0377358490566" y="329.2830188679245"/>
      <point x="421.64150943396226" y="291.4339622641509"/>
      <point x="421.64150943396226" y="232.22641509433961" type="curve" smooth="yes"/>
      <point x="421.64150943396226" y="199.49056603773585" type="line" smooth="yes"/>
      <point x="421.64150943396226" y="139.23584905660377"/>
      <point x="377.2830188679245" y="99.87735849056604"/>
      <point x="288.58490566037733" y="99.87735849056604" type="curve" smooth="yes"/>
      <point x="207.3679245283019" y="99.87735849056604"/>
      <point x="149.70754716981133" y="112.50943396226414"/>
      <point x="91.83018867924528" y="142.45283018867923" type="curve"/>
      <point x="74.16981132075472" y="142.45283018867923" type="line"/>
      <point x="74.16981132075472" y="130.69811320754718"/>
      <point x="74.16981132075472" y="44.235849056603776"/>
      <point x="74.16981132075472" y="32.4811320754717" type="curve" smooth="yes"/>
      <point x="74.16981132075472" y="26.358490566037737"/>
      <point x="73.75471698113208" y="23.650943396226417"/>
      <point x="80.0" y="20.235849056603776" type="curve" smooth="yes"/>
      <point x="107.26415094339623" y="0.7547169811320753"/>
      <point x="182.31132075471697" y="-20.0"/>
      <point x="287.87735849056605" y="-20.0" type="curve" smooth="yes"/>
      <point x="454.39622641509436" y="-20.0"/>
      <point x="542.3962264150944" y="63.75471698113208"/>
      <point x="542.3962264150944" y="192.61320754716982" type="curve" smooth="yes"/>
      <point x="542.3962264150944" y="241.1509433962264" type="line" smooth="yes"/>
      <point x="542.3962264150944" y="362.9339622641509"/>
      <point x="476.0566037735849" y="428.64150943396226"/>
      <point x="355.57547169811323" y="428.64150943396226" type="curve" smooth="yes"/>
      <point x="283.066037735849" y="428.64150943396226"/>
      <point x="232.72641509433961" y="411.811320754717"/>
      <point x="194.12264150943395" y="367.1981132075472" type="curve"/>
      <point x="250.46226415094338" y="396.22641509433964" type="line"/>
      <point x="185.14150943396226" y="396.22641509433964" type="line"/>
      <point x="204.04716981132077" y="371.64150943396226" type="line"/>
      <point x="210.50943396226415" y="428.2169811320755"/>
      <point x="219.5566037735849" y="512.3490566037735"/>
      <point x="227.14150943396226" y="577.1981132075472" type="curve" smooth="yes"/>
      <point x="231.5566037735849" y="618.1037735849056"/>
      <point x="233.97169811320754" y="642.0849056603773"/>
      <point x="236.38679245283018" y="661.4056603773585" type="curve"/>
      <point x="245.04716981132077" y="700.0" type="line"/>
    </contour>
  </outline>
</glyph>
<glyph name="G" format="2">
  <advance width="650.0"/>
  <unicode hex="0047"/>
  <anchor x="335.2641509433962" y="711.0" name="top"/>
  <anchor x="335.2641509433962" y="-1.0" name="bottom"/>
  <outline>
    <contour>
      <point x="336.75471698113205" y="375.37735849056605" type="line"/>
      <point x="336.75471698113205" y="343.27358490566036"/>
      <point x="336.75471698113205" y="312.75471698113205"/>
      <point x="336.75471698113205" y="280.6509433962264" type="curve" smooth="yes"/>
      <point x="336.75471698113205" y="273.9433962264151"/>
      <point x="340.75471698113205" y="269.6509433962264"/>
      <point x="347.75471698113205" y="269.6509433962264" type="curve"/>
      <point x="613.2169811320755" y="269.6509433962264" type="line"/>
      <point x="613.2169811320755" y="364.37735849056605" type="line" smooth="yes"/>
      <point x="613.2169811320755" y="370.37735849056605"/>
      <point x="608.2169811320755" y="375.37735849056605"/>
      <point x="602.2169811320755" y="375.37735849056605" type="curve" smooth="yes"/>
    </contour>
    <contour>
      <point x="347.04716981132077" y="720.0" type="curve"/>
      <point x="155.89622641509433" y="720.0"/>
      <point x="57.60377358490566" y="614.6320754716982"/>
      <point x="57.60377358490566" y="445.1981132075472" type="curve"/>
      <point x="57.60377358490566" y="248.1509433962264" type="line"/>
      <point x="57.60377358490566" y="83.24528301886792"/>
      <point x="146.28301886792454" y="-20.0"/>
      <point x="346.0" y="-20.0" type="curve" smooth="yes"/>
      <point x="436.4622641509434" y="-20.0"/>
      <point x="530.122641509434" y="16.169811320754718"/>
      <point x="569.0" y="66.21698113207547" type="curve" smooth="yes"/>
      <point x="573.7075471698113" y="72.63207547169812"/>
      <point x="574.7075471698113" y="75.33962264150944"/>
      <point x="574.7075471698113" y="84.16981132075472" type="curve" smooth="yes"/>
      <point x="574.7075471698113" y="157.80188679245282"/>
      <point x="574.7075471698113" y="215.67924528301887"/>
      <point x="574.7075471698113" y="287.188679245283" type="curve"/>
      <point x="579.4150943396227" y="308.8018867924528" type="line"/>
      <point x="461.02830188679246" y="308.8018867924528" type="line"/>
      <point x="461.02830188679246" y="246.19811320754718"/>
      <point x="461.02830188679246" y="198.10377358490567"/>
      <point x="461.02830188679246" y="131.25471698113208" type="curve" smooth="yes"/>
      <point x="447.58490566037733" y="116.30188679245282"/>
      <point x="400.85849056603774" y="92.80188679245282"/>
      <point x="335.50943396226415" y="92.80188679245282" type="curve" smooth="yes"/>
      <point x="277.3679245283019" y="92.80188679245282"/>
      <point x="241.93396226415095" y="106.01886792452831"/>
      <point x="218.83962264150944" y="129.1132075471698" type="curve" smooth="yes"/>
      <point x="193.99056603773585" y="153.96226415094338"/>
      <point x="178.94339622641508" y="191.81132075471697"/>
      <point x="178.94339622641508" y="243.95283018867926" type="curve"/>
      <point x="178.94339622641508" y="440.1981132075472" type="line"/>
      <point x="178.94339622641508" y="553.4245283018868"/>
      <point x="236.88679245283018" y="605.0754716981132"/>
      <point x="339.6320754716981" y="605.0754716981132" type="curve"/>
      <point x="403.20754716981133" y="605.0754716981132"/>
      <point x="449.10377358490564" y="596.0283018867924"/>
      <point x="485.02830188679246" y="571.9622641509434" type="curve"/>
      <point x="458.49056603773585" y="615.8867924528302" type="line"/>
      <point x="458.49056603773585" y="571.2547169811321"/>
      <point x="458.49056603773585" y="537.9433962264151"/>
      <point x="458.49056603773585" y="507.4622641509434" type="curve"/>
      <point x="458.49056603773585" y="500.4622641509434"/>
      <point x="462.49056603773585" y="496.4622641509434"/>
      <point x="469.49056603773585" y="496.4622641509434" type="curve"/>
      <point x="503.7169811320755" y="496.4622641509434"/>
      <point x="537.9433962264151" y="496.4622641509434"/>
      <point x="572.1698113207547" y="496.4622641509434" type="curve"/>
      <point x="572.1698113207547" y="542.0471698113207"/>
      <point x="572.1698113207547" y="599.8301886792453"/>
      <point x="572.1698113207547" y="641.1698113207547" type="curve"/>
      <point x="572.1698113207547" y="647.4150943396227"/>
      <point x="571.1698113207547" y="652.4150943396227"/>
      <point x="566.7547169811321" y="656.8301886792453" type="curve" smooth="yes"/>
      <point x="535.5849056603773" y="688.877358490566"/>
      <point x="460.75471698113205" y="720.0"/>
    </contour>
  </outline>
</glyph>
<glyph name="L" format="2">
  <advance width="550.0"/>
  <unicode hex="004C"/>
  <anchor x="140.3490566037736" y="711.0" name="top"/>
  <anchor x="286.4622641509434" y="-1.0" name="bottom"/>
  <anchor x="436.4622641509434" y="400.0" name="dot"/>
  <anchor x="404.7641509433962" y="608.4811320754717" name="caronslovak"/>
  <anchor x="156.74528301886792" y="364.9056603773585" name="slash"/>
  <outline>
    <contour>
      <point x="86.84905660377359" y="0.0" type="curve" smooth="yes"/>
      <point x="497.07547169811323" y="0.0" type="line"/>
      <point x="485.75471698113205" y="76.01886792452831"/>
      <point x="463.5566037735849" y="109.26415094339623"/>
      <point x="402.39622641509436" y="109.26415094339623" type="curve" smooth="yes"/>
      <point x="203.67924528301887" y="109.26415094339623" type="line"/>
      <point x="203.67924528301887" y="300.62264150943395"/>
      <point x="203.67924528301887" y="497.64150943396226"/>
      <point x="203.67924528301887" y="689.0" type="curve" smooth="yes"/>
      <point x="203.67924528301887" y="695.0"/>
      <point x="198.97169811320754" y="700.0"/>
      <point x="192.67924528301887" y="700.0" type="curve"/>
      <point x="153.5" y="700.0"/>
      <point x="115.02830188679245" y="700.0"/>
      <point x="75.84905660377359" y="700.0" type="curve"/>
      <point x="75.84905660377359" y="671.2452830188679"/>
      <point x="75.84905660377359" y="642.9056603773585"/>
      <point x="75.84905660377359" y="614.1509433962265" type="curve"/>
      <point x="75.84905660377359" y="442.4433962264151"/>
      <point x="75.84905660377359" y="220.72641509433961"/>
      <point x="75.84905660377359" y="11.0" type="curve" smooth="yes"/>
      <point x="75.84905660377359" y="4.7075471698113205"/>
      <point x="80.55660377358491" y="0.0"/>
    </contour>
    <contour>
      <point x="383.39622641509436" y="193.30188679245282" type="curve"/>
      <point x="383.39622641509436" y="164.74528301886792"/>
      <point x="383.39622641509436" y="124.65094339622641"/>
      <point x="383.39622641509436" y="94.67924528301887" type="curve"/>
      <point x="383.39622641509436" y="41.25471698113207"/>
      <point x="409.6698113207547" y="7.075471698113207"/>
      <point x="497.07547169811323" y="0.0" type="curve"/>
      <point x="497.07547169811323" y="50.41509433962264"/>
      <point x="497.07547169811323" y="132.5943396226415"/>
      <point x="497.07547169811323" y="182.30188679245282" type="curve"/>
      <point x="497.07547169811323" y="188.30188679245282"/>
      <point x="492.07547169811323" y="193.30188679245282"/>
      <point x="486.07547169811323" y="193.30188679245282" type="curve" smooth="yes"/>
      <point x="449.72641509433964" y="193.30188679245282"/>
      <point x="419.74528301886795" y="193.30188679245282"/>
    </contour>
  </outline>
</glyph>
<glyph name="a" format="2">
  <advance width="600.0"/>
  <unicode hex="0061"/>
  <anchor x="301.75471698113205" y="543.688679245283" name="top"/>
  <anchor x="305.02830188679246" y="-0.7075471698113207" name="bottom"/>
  <anchor x="536.8962264150944" y="2.9245283018867934" name="ogonek"/>
  <anchor x="301.6320754716981" y="584.0" name="hook"/>
  <outline>
    <contour>
      <point x="505.5188679245283" y="344.0188679245283" type="curve" smooth="yes"/>
      <point x="505.5188679245283" y="489.1896810819811"/>
      <point x="436.49056603773585" y="545.9056603773585"/>
      <point x="274.89622641509436" y="545.9056603773585" type="curve" smooth="yes"/>
      <point x="198.21698113207546" y="545.9056603773585"/>
      <point x="112.89622641509433" y="523.8584905660377"/>
      <point x="101.77358490566039" y="512.7358490566038" type="curve" smooth="yes"/>
      <point x="99.77358490566039" y="510.7358490566038"/>
      <point x="98.77358490566039" y="508.02830188679246"/>
      <point x="98.77358490566039" y="503.3207547169811" type="curve" smooth="yes"/>
      <point x="98.77358490566039" y="472.84378249886794"/>
      <point x="98.77358490566039" y="439.4056603773585"/>
      <point x="98.77358490566039" y="408.7169811320755" type="curve"/>
      <point x="116.43396226415095" y="408.7169811320755" type="line"/>
      <point x="169.0188679245283" y="426.47169811320754"/>
      <point x="216.72641509433961" y="434.3490566037736"/>
      <point x="274.89622641509436" y="434.3490566037736" type="curve" smooth="yes"/>
      <point x="356.00963904837266" y="434.3490566037736"/>
      <point x="384.7641509433962" y="414.54716981132077"/>
      <point x="384.7641509433962" y="349.6320754716981" type="curve" smooth="yes"/>
      <point x="384.7641509433962" y="316.92452830188677"/>
      <point x="384.7641509433962" y="286.04716981132077"/>
      <point x="384.7641509433962" y="253.33962264150944" type="curve" smooth="yes"/>
      <point x="384.7641509433962" y="210.12264150943398"/>
      <point x="384.7641509433962" y="164.27358490566039"/>
      <point x="384.7641509433962" y="121.0566037735849" type="curve" smooth="yes"/>
      <point x="384.7641509433962" y="45.10377358490566"/>
      <point x="434.40324868773587" y="0.0"/>
      <point x="503.6981132075472" y="0.0" type="curve" smooth="yes"/>
      <point x="520.433962264151" y="0.0"/>
      <point x="547.6132075471698" y="0.0"/>
      <point x="554.6132075471698" y="0.0" type="curve" smooth="yes"/>
      <point x="561.6132075471698" y="0.0"/>
      <point x="565.6132075471698" y="3.7075471698113205"/>
      <point x="565.6132075471698" y="11.0" type="curve" smooth="yes"/>
      <point x="565.6132075471698" y="42.78971626101415"/>
      <point x="565.6132075471698" y="73.39458911584906"/>
      <point x="565.6132075471698" y="105.43396226415095" type="curve"/>
      <point x="547.9528301886793" y="105.43396226415095" type="line"/>
      <point x="544.2452830188679" y="105.43396226415095"/>
      <point x="541.2452830188679" y="105.43396226415095"/>
      <point x="537.5377358490566" y="105.43396226415095" type="curve"/>
      <point x="526.4905660377359" y="105.43396226415095"/>
      <point x="518.7358490566038" y="107.72641509433961"/>
      <point x="513.566037735849" y="112.89622641509433" type="curve" smooth="yes"/>
      <point x="508.10377358490564" y="118.35849056603773"/>
      <point x="505.5188679245283" y="127.69811320754717"/>
      <point x="505.5188679245283" y="140.66981132075472" type="curve" smooth="yes"/>
      <point x="505.5188679245283" y="206.8600628931132"/>
      <point x="505.5188679245283" y="277.38661218601413"/>
    </contour>
    <contour>
      <point x="180.99056603773585" y="148.27358490566039" type="curve" smooth="yes"/>
      <point x="180.99056603773585" y="182.0566037735849" type="line" smooth="yes"/>
      <point x="180.99056603773585" y="196.9056603773585"/>
      <point x="185.45283018867923" y="209.29245283018867"/>
      <point x="194.37735849056605" y="218.21698113207546" type="curve" smooth="yes"/>
      <point x="203.88679245283018" y="227.72641509433961"/>
      <point x="218.4433962264151" y="233.18867924528303"/>
      <point x="237.75471698113208" y="233.18867924528303" type="curve" smooth="yes"/>
      <point x="305.4150943396462" y="233.18867924528303"/>
      <point x="361.6698113207311" y="233.18867924528303"/>
      <point x="428.74528301886795" y="233.18867924528303" type="curve"/>
      <point x="428.74528301886795" y="258.77358490566036"/>
      <point x="427.0377358490566" y="310.6132075471698"/>
      <point x="409.62264150943395" y="310.6132075471698" type="curve" smooth="yes"/>
      <point x="351.05227343023586" y="310.6132075471698"/>
      <point x="287.27729662849055" y="310.6132075471698"/>
      <point x="217.23584905660377" y="310.6132075471698" type="curve" smooth="yes"/>
      <point x="120.65094339622641" y="310.6132075471698"/>
      <point x="60.235849056603776" y="253.95283018867926"/>
      <point x="60.235849056603776" y="167.49056603773585" type="curve" smooth="yes"/>
      <point x="60.235849056603776" y="133.12264150943398" type="line" smooth="yes"/>
      <point x="60.235849056603776" y="46.660377358490564"/>
      <point x="117.82075471698113" y="-10.0"/>
      <point x="210.16037735849056" y="-10.0" type="curve" smooth="yes"/>
      <point x="286.18717980757077" y="-10.0"/>
      <point x="344.87918904195755" y="24.209068069292453"/>
      <point x="373.7641509433962" y="85.83018867924528" type="curve"/>
      <point x="403.0566037735849" y="85.83018867924528" type="line"/>
      <point x="403.0566037735849" y="172.0" type="line"/>
      <point x="347.65845511393866" y="117.09319068417453"/>
      <point x="296.9024488157547" y="97.43396226415095"/>
      <point x="237.75471698113208" y="97.43396226415095" type="curve" smooth="yes"/>
      <point x="199.5943396226415" y="97.43396226415095"/>
      <point x="180.99056603773585" y="114.86792452830188"/>
    </contour>
  </outline>
</glyph>
<glyph name="g" format="2">
  <advance width="600.0"/>
  <unicode hex="0067"/>
  <anchor x="303.6320754716981" y="546.9056603773585" name="top"/>
  <outline>
    <contour>
      <point x="115.23584905660377" y="79.97169811320755" type="curve" smooth="yes"/>
      <point x="115.23584905660377" y="26.339622641509436"/>
      <point x="159.35849056603774" y="-14.150943396226413"/>
      <point x="207.16037735849056" y="-14.150943396226413" type="curve" smooth="yes"/>
      <point x="384.60377358490564" y="-14.150943396226413" type="line" smooth="yes"/>
      <point x="431.0566037735849" y="-14.150943396226413"/>
      <point x="447.7358490566038" y="-32.924528301886795"/>
      <point x="447.7358490566038" y="-72.60377358490567" type="curve" smooth="yes"/>
      <point x="447.7358490566038" y="-98.67924528301887" type="line" smooth="yes"/>
      <point x="447.7358490566038" y="-118.14150943396227"/>
      <point x="443.5660377358491" y="-135.77358490566039"/>
      <point x="432.933962264151" y="-146.4056603773585" type="curve" smooth="yes"/>
      <point x="423.00943396226415" y="-156.33018867924528"/>
      <point x="407.3301886792453" y="-163.1320754716981"/>
      <point x="384.60377358490564" y="-163.1320754716981" type="curve"/>
      <point x="221.24528301886792" y="-163.1320754716981" type="line" smooth="yes"/>
      <point x="174.79245283018867" y="-163.1320754716981"/>
      <point x="158.1132075471698" y="-142.60377358490567"/>
      <point x="158.1132075471698" y="-106.26415094339623" type="curve" smooth="yes"/>
      <point x="158.1132075471698" y="-77.9433962264151" type="line" smooth="yes"/>
      <point x="158.1132075471698" y="-45.216981132075475"/>
      <point x="170.66981132075472" y="-18.81132075471698"/>
      <point x="211.33962264150944" y="-8.981132075471699" type="curve"/>
      <point x="140.89622641509433" y="35.26415094339623" type="line"/>
      <point x="140.89622641509433" y="-0.34905660377358316" type="line"/>
      <point x="78.01886792452831" y="-11.10377358490566"/>
      <point x="38.77358490566038" y="-53.44339622641509"/>
      <point x="38.77358490566038" y="-113.32075471698113" type="curve" smooth="yes"/>
      <point x="38.77358490566038" y="-131.02830188679246" type="line" smooth="yes"/>
      <point x="38.77358490566038" y="-207.27358490566039"/>
      <point x="91.48113207547169" y="-255.0"/>
      <point x="194.77358490566039" y="-255.0" type="curve" smooth="yes"/>
      <point x="397.6320754716981" y="-255.0" type="line" smooth="yes"/>
      <point x="512.2452830188679" y="-255.0"/>
      <point x="567.3679245283018" y="-188.70754716981133"/>
      <point x="567.3679245283018" y="-99.38679245283019" type="curve" smooth="yes"/>
      <point x="567.3679245283018" y="-64.9433962264151" type="line" smooth="yes"/>
      <point x="567.3679245283018" y="25.54716981132075"/>
      <point x="512.2452830188679" y="88.91509433962264"/>
      <point x="397.6320754716981" y="88.91509433962264" type="curve" smooth="yes"/>
      <point x="262.3490566037736" y="88.91509433962264" type="line" smooth="yes"/>
      <point x="244.37735849056605" y="88.91509433962264"/>
      <point x="235.99056603773585" y="95.83962264150944"/>
      <point x="235.99056603773585" y="114.98113207547169" type="curve" smooth="yes"/>
      <point x="235.99056603773585" y="139.3679245283019"/>
      <point x="240.08490566037736" y="161.29245283018867"/>
      <point x="248.85849056603774" y="181.58490566037736" type="curve"/>
      <point x="189.0" y="203.95283018867926" type="line"/>
      <point x="189.0" y="174.33962264150944" type="line"/>
      <point x="138.4811320754717" y="156.75471698113208"/>
      <point x="115.23584905660377" y="123.63207547169812"/>
    </contour>
    <contour>
      <point x="351.2169811320755" y="447.54716981132077" type="line"/>
      <point x="381.9622641509434" y="423.99056603773585"/>
      <point x="391.64150943396226" y="401.97169811320754"/>
      <point x="391.64150943396226" y="369.7830188679245" type="curve" smooth="yes"/>
      <point x="391.64150943396226" y="347.3207547169811" type="line" smooth="yes"/>
      <point x="391.64150943396226" y="295.54716981132077"/>
      <point x="357.1132075471698" y="268.2358490566038"/>
      <point x="288.29245283018867" y="268.2358490566038" type="curve" smooth="yes"/>
      <point x="247.1509433962264" y="268.2358490566038"/>
      <point x="217.5943396226415" y="277.57547169811323"/>
      <point x="200.08490566037736" y="295.08490566037733" type="curve" smooth="yes"/>
      <point x="187.16037735849056" y="308.00943396226415"/>
      <point x="180.69811320754718" y="323.811320754717"/>
      <point x="180.69811320754718" y="344.9056603773585" type="curve" smooth="yes"/>
      <point x="180.69811320754718" y="363.8301886792453" type="line" smooth="yes"/>
      <point x="180.69811320754718" y="415.9433962264151"/>
      <point x="219.47169811320754" y="442.2547169811321"/>
      <point x="288.29245283018867" y="442.2547169811321" type="curve"/>
      <point x="385.9056603773585" y="442.2547169811321"/>
      <point x="462.70754716981133" y="442.2547169811321"/>
      <point x="549.7075471698113" y="442.2547169811321" type="curve" smooth="yes"/>
      <point x="555.7075471698113" y="442.2547169811321"/>
      <point x="560.7075471698113" y="447.2547169811321"/>
      <point x="560.7075471698113" y="453.2547169811321" type="curve" smooth="yes"/>
      <point x="560.7075471698113" y="483.6509433962264"/>
      <point x="560.7075471698113" y="514.0471698113207"/>
      <point x="560.7075471698113" y="544.4433962264151" type="curve"/>
      <point x="470.0" y="544.4433962264151"/>
      <point x="379.0" y="544.4433962264151"/>
      <point x="288.29245283018867" y="544.4433962264151" type="curve"/>
      <point x="144.4811320754717" y="544.4433962264151"/>
      <point x="63.4811320754717" y="476.7358490566038"/>
      <point x="63.4811320754717" y="368.07547169811323" type="curve" smooth="yes"/>
      <point x="63.4811320754717" y="345.6132075471698" type="line" smooth="yes"/>
      <point x="63.4811320754717" y="238.12264150943398"/>
      <point x="144.4811320754717" y="174.83018867924528"/>
      <point x="288.29245283018867" y="174.83018867924528" type="curve" smooth="yes"/>
      <point x="432.811320754717" y="174.83018867924528"/>
      <point x="508.1509433962264" y="230.9245283018868"/>
      <point x="508.1509433962264" y="319.0188679245283" type="curve" smooth="yes"/>
      <point x="508.1509433962264" y="336.52830188679246" type="line" smooth="yes"/>
      <point x="508.1509433962264" y="381.2358490566038"/>
      <point x="488.6132075471698" y="412.08490566037733"/>
      <point x="441.7830188679245" y="428.00943396226415" type="curve" smooth="yes"/>
      <point x="441.7830188679245" y="453.91509433962267" type="line"/>
    </contour>
  </outline>
</glyph>
<glyph name="l" format="2">
  <advance width="350.0"/>
  <unicode hex="006C"/>
  <outline>
    <contour>
      <point x="94.62264150943396" y="622.8018867924528" type="curve" smooth="yes"/>
      <point x="94.62264150943396" y="464.87735849056605"/>
      <point x="94.62264150943396" y="306.95283018867923"/>
      <point x="94.62264150943396" y="149.02830188679246" type="curve" smooth="yes"/>
      <point x="94.62264150943396" y="47.075471698113205"/>
      <point x="140.4056603773585" y="0.0"/>
      <point x="230.03773584905662" y="0.0" type="curve" smooth="yes"/>
      <point x="286.85849056603774" y="0.0"/>
      <point x="289.49056603773585" y="0.0"/>
      <point x="299.6132075471698" y="0.0" type="curve" smooth="yes"/>
      <point x="306.3207547169811" y="0.0"/>
      <point x="310.6132075471698" y="3.7075471698113205"/>
      <point x="310.6132075471698" y="11.0" type="curve" smooth="yes"/>
      <point x="310.6132075471698" y="42.81132075471698"/>
      <point x="310.6132075471698" y="82.40566037735849"/>
      <point x="310.6132075471698" y="114.21698113207546" type="curve"/>
      <point x="300.7358490566038" y="114.21698113207546" type="line"/>
      <point x="294.1509433962264" y="114.21698113207546"/>
      <point x="271.29245283018867" y="114.21698113207546"/>
      <point x="261.1698113207547" y="114.21698113207546" type="curve" smooth="yes"/>
      <point x="243.32075471698113" y="114.21698113207546"/>
      <point x="232.22641509433961" y="117.0943396226415"/>
      <point x="224.88679245283018" y="124.72641509433961" type="curve" smooth="yes"/>
      <point x="217.54716981132074" y="132.06603773584905"/>
      <point x="215.37735849056605" y="142.74528301886792"/>
      <point x="215.37735849056605" y="158.76415094339623" type="curve" smooth="yes"/>
      <point x="215.37735849056605" y="354.811320754717"/>
      <point x="215.37735849056605" y="542.9528301886793"/>
      <point x="215.37735849056605" y="739.0" type="curve" smooth="yes"/>
      <point x="215.37735849056605" y="745.7075471698113"/>
      <point x="211.08490566037736" y="750.0"/>
      <point x="204.37735849056605" y="750.0" type="curve" smooth="yes"/>
      <point x="125.5754716981132" y="750.0"/>
      <point x="173.4245283018868" y="750.0"/>
      <point x="94.62264150943396" y="750.0" type="curve"/>
      <point x="94.62264150943396" y="710.2924528301887"/>
      <point x="94.62264150943396" y="671.0"/>
    </contour>
  </outline>
</glyph>
<glyph name="r" format="2">
  <advance width="450.0"/>
  <unicode hex="0072"/>
  <anchor x="262.9056603773585" y="546.1981132075472" name="top"/>
  <anchor x="148.02830188679246" y="-1.0" name="bottom"/>
  <outline>
    <contour>
      <point x="191.2830188679245" y="432.24528301886795" type="line"/>
      <point x="191.2830188679245" y="294.54716981132077" type="line"/>
      <point x="235.56603773584905" y="386.3679245283019"/>
      <point x="285.49056603773585" y="421.7358490566038"/>
      <point x="354.95283018867923" y="421.7358490566038" type="curve" smooth="yes"/>
      <point x="376.8301886792453" y="421.7358490566038"/>
      <point x="393.5377358490566" y="419.4433962264151"/>
      <point x="412.7830188679245" y="414.02830188679246" type="curve"/>
      <point x="430.4433962264151" y="414.02830188679246" type="line"/>
      <point x="430.4433962264151" y="450.5"/>
      <point x="430.4433962264151" y="486.5566037735849"/>
      <point x="430.4433962264151" y="523.0283018867924" type="curve" smooth="yes"/>
      <point x="430.4433962264151" y="529.1981132075472"/>
      <point x="429.1509433962264" y="532.7830188679245"/>
      <point x="423.9811320754717" y="536.4905660377359" type="curve" smooth="yes"/>
      <point x="416.0566037735849" y="541.4905660377359"/>
      <point x="400.47169811320754" y="545.9056603773585"/>
      <point x="376.8867924528302" y="545.9056603773585" type="curve" smooth="yes"/>
      <point x="305.811320754717" y="545.9056603773585"/>
      <point x="258.5943396226415" y="511.29245283018867"/>
      <point x="227.89622641509433" y="432.24528301886795" type="curve"/>
    </contour>
    <contour>
      <point x="209.52830188679246" y="0.0" type="curve"/>
      <point x="209.52830188679246" y="174.53773584905662"/>
      <point x="209.52830188679246" y="394.8207547169811"/>
      <point x="209.52830188679246" y="524.9056603773585" type="curve" smooth="yes"/>
      <point x="209.52830188679246" y="531.9056603773585"/>
      <point x="205.52830188679246" y="535.9056603773585"/>
      <point x="198.52830188679246" y="535.9056603773585" type="curve"/>
      <point x="162.88679245283018" y="535.9056603773585"/>
      <point x="124.41509433962264" y="535.9056603773585"/>
      <point x="81.69811320754718" y="535.9056603773585" type="curve"/>
      <point x="81.69811320754718" y="511.41509433962267"/>
      <point x="81.69811320754718" y="476.8301886792453"/>
      <point x="81.69811320754718" y="437.3207547169811" type="curve" smooth="yes"/>
      <point x="81.69811320754718" y="295.07547169811323"/>
      <point x="81.69811320754718" y="118.15094339622641"/>
      <point x="81.69811320754718" y="11.0" type="curve" smooth="yes"/>
      <point x="81.69811320754718" y="4.0"/>
      <point x="85.69811320754718" y="0.0"/>
      <point x="92.69811320754718" y="0.0" type="curve" smooth="yes"/>
      <point x="131.87735849056602" y="0.0"/>
      <point x="170.3490566037736" y="0.0"/>
    </contour>
  </outline>
</glyph>
<glyph name="z" format="2">
  <advance width="550.0"/>
  <unicode hex="007A"/>
  <anchor x="275.0" y="546.9056603773585" name="top"/>
  <anchor x="275.70754716981133" y="0.0" name="bottom"/>
  <outline>
    <contour>
      <point x="66.43396226415095" y="535.9056603773585" type="line"/>
      <point x="66.43396226415095" y="501.2641509433962"/>
      <point x="66.43396226415095" y="467.3301886792453"/>
      <point x="66.43396226415095" y="432.688679245283" type="curve" smooth="yes"/>
      <point x="66.43396226415095" y="425.688679245283"/>
      <point x="70.43396226415095" y="421.688679245283"/>
      <point x="77.43396226415095" y="421.688679245283" type="curve" smooth="yes"/>
      <point x="229.66037735849056" y="421.688679245283" type="line" smooth="yes"/>
      <point x="265.95283018867923" y="421.688679245283"/>
      <point x="301.5377358490566" y="421.688679245283"/>
      <point x="337.8301886792453" y="421.688679245283" type="curve"/>
      <point x="337.8301886792453" y="404.02830188679246" type="line"/>
      <point x="313.95283018867923" y="386.933962264151"/>
      <point x="293.66037735849056" y="369.7169811320755"/>
      <point x="271.07547169811323" y="348.62264150943395" type="curve" smooth="yes"/>
      <point x="214.25471698113208" y="291.3207547169811"/>
      <point x="153.14150943396226" y="222.6509433962264"/>
      <point x="66.43396226415095" y="129.26415094339623" type="curve"/>
      <point x="66.43396226415095" y="11.0" type="line" smooth="yes"/>
      <point x="66.43396226415095" y="4.0"/>
      <point x="70.43396226415095" y="0.0"/>
      <point x="77.43396226415095" y="0.0" type="curve" smooth="yes"/>
      <point x="483.5660377358491" y="0.0" type="line"/>
      <point x="483.5660377358491" y="34.64150943396226"/>
      <point x="483.5660377358491" y="68.5754716981132"/>
      <point x="483.5660377358491" y="103.21698113207546" type="curve" smooth="yes"/>
      <point x="483.5660377358491" y="110.21698113207546"/>
      <point x="479.5660377358491" y="114.21698113207546"/>
      <point x="472.5660377358491" y="114.21698113207546" type="curve"/>
      <point x="307.9339622641509" y="114.21698113207546" type="line" smooth="yes"/>
      <point x="277.39622641509436" y="114.21698113207546"/>
      <point x="246.85849056603774" y="114.21698113207546"/>
      <point x="216.32075471698113" y="114.21698113207546" type="curve"/>
      <point x="216.32075471698113" y="131.58490566037736" type="line"/>
      <point x="237.56603773584905" y="145.87735849056605"/>
      <point x="255.81132075471697" y="159.87735849056605"/>
      <point x="282.42452830188677" y="185.95283018867923" type="curve" smooth="yes"/>
      <point x="334.5566037735849" y="241.5188679245283"/>
      <point x="398.0566037735849" y="313.3301886792453"/>
      <point x="483.5660377358491" y="409.5660377358491" type="curve"/>
      <point x="483.5660377358491" y="524.9056603773585" type="line" smooth="yes"/>
      <point x="483.5660377358491" y="531.9056603773585"/>
      <point x="479.5660377358491" y="535.9056603773585"/>
      <point x="472.5660377358491" y="535.9056603773585" type="curve"/>
    </contour>
  </outline>
</glyph>
<glyph name="currency" format="2">
  <advance width="600.0"/>
  <unicode hex="00A4"/>
  <outline>
    <contour>
      <point x="245.1320754716981" y="422.8301886792453" type="curve"/>
      <point x="216.17924528301887" y="451.7830188679245"/>
      <point x="181.93396226415095" y="486.02830188679246"/>
      <point x="151.9811320754717" y="515.9811320754717" type="curve" smooth="yes"/>
      <point x="149.9811320754717" y="517.9811320754717"/>
      <point x="147.9811320754717" y="518.9811320754717"/>
      <point x="145.9811320754717" y="518.9811320754717" type="curve" smooth="yes"/>
      <point x="143.9811320754717" y="518.9811320754717"/>
      <point x="141.9811320754717" y="517.9811320754717"/>
      <point x="139.9811320754717" y="515.9811320754717" type="curve" smooth="yes"/>
      <point x="117.66037735849056" y="493.66037735849056"/>
      <point x="94.50943396226415" y="470.50943396226415"/>
      <point x="77.01886792452831" y="453.0188679245283" type="curve"/>
      <point x="105.97169811320755" y="424.0660377358491"/>
      <point x="141.21698113207546" y="388.8207547169811"/>
      <point x="170.16981132075472" y="359.8679245283019" type="curve" smooth="yes"/>
      <point x="174.16981132075472" y="355.8679245283019"/>
      <point x="178.16981132075472" y="355.8679245283019"/>
      <point x="182.16981132075472" y="359.8679245283019" type="curve" smooth="yes"/>
      <point x="202.0754716981132" y="379.77358490566036"/>
      <point x="226.93396226415095" y="404.6320754716981"/>
    </contour>
    <contour>
      <point x="352.8679245283019" y="422.8301886792453" type="curve"/>
      <point x="360.45283018867923" y="415.24528301886795"/>
      <point x="407.24528301886795" y="368.45283018867923"/>
      <point x="415.8301886792453" y="359.8679245283019" type="curve" smooth="yes"/>
      <point x="419.8301886792453" y="355.8679245283019"/>
      <point x="423.8301886792453" y="355.8679245283019"/>
      <point x="427.8301886792453" y="359.8679245283019" type="curve" smooth="yes"/>
      <point x="456.7830188679245" y="388.8207547169811"/>
      <point x="492.02830188679246" y="424.0660377358491"/>
      <point x="520.9811320754717" y="453.0188679245283" type="curve"/>
      <point x="499.95283018867923" y="474.04716981132077"/>
      <point x="479.6320754716981" y="494.3679245283019"/>
      <point x="458.0188679245283" y="515.9811320754717" type="curve" smooth="yes"/>
      <point x="456.0188679245283" y="517.9811320754717"/>
      <point x="454.0188679245283" y="518.9811320754717"/>
      <point x="452.0188679245283" y="518.9811320754717" type="curve" smooth="yes"/>
      <point x="450.0188679245283" y="518.9811320754717"/>
      <point x="448.0188679245283" y="517.9811320754717"/>
      <point x="446.0188679245283" y="515.9811320754717" type="curve" smooth="yes"/>
      <point x="416.0660377358491" y="486.02830188679246"/>
      <point x="381.8207547169811" y="451.7830188679245"/>
    </contour>
    <contour>
      <point x="352.8679245283019" y="175.75471698113208" type="curve"/>
      <point x="381.8207547169811" y="146.80188679245282"/>
      <point x="416.0660377358491" y="112.55660377358491"/>
      <point x="446.0188679245283" y="82.60377358490567" type="curve" smooth="yes"/>
      <point x="448.0188679245283" y="80.60377358490567"/>
      <point x="450.0188679245283" y="79.60377358490567"/>
      <point x="452.0188679245283" y="79.60377358490567" type="curve" smooth="yes"/>
      <point x="454.0188679245283" y="79.60377358490567"/>
      <point x="456.0188679245283" y="80.60377358490567"/>
      <point x="458.0188679245283" y="82.60377358490567" type="curve" smooth="yes"/>
      <point x="480.33962264150944" y="104.9245283018868"/>
      <point x="503.49056603773585" y="128.0754716981132"/>
      <point x="520.9811320754717" y="145.56603773584905" type="curve"/>
      <point x="492.02830188679246" y="174.5188679245283"/>
      <point x="456.7830188679245" y="209.76415094339623"/>
      <point x="427.8301886792453" y="238.71698113207546" type="curve" smooth="yes"/>
      <point x="423.8301886792453" y="242.71698113207546"/>
      <point x="419.8301886792453" y="242.71698113207546"/>
      <point x="415.8301886792453" y="238.71698113207546" type="curve" smooth="yes"/>
      <point x="395.92452830188677" y="218.81132075471697"/>
      <point x="371.0660377358491" y="193.95283018867926"/>
    </contour>
    <contour>
      <point x="245.1320754716981" y="175.75471698113208" type="curve"/>
      <point x="237.54716981132074" y="183.33962264150944"/>
      <point x="190.75471698113208" y="230.1320754716981"/>
      <point x="182.16981132075472" y="238.71698113207546" type="curve" smooth="yes"/>
      <point x="178.16981132075472" y="242.71698113207546"/>
      <point x="174.16981132075472" y="242.71698113207546"/>
      <point x="170.16981132075472" y="238.71698113207546" type="curve" smooth="yes"/>
      <point x="141.21698113207546" y="209.76415094339623"/>
      <point x="105.97169811320755" y="174.5188679245283"/>
      <point x="77.01886792452831" y="145.56603773584905" type="curve"/>
      <point x="98.04716981132076" y="124.5377358490566"/>
      <point x="118.36792452830188" y="104.21698113207547"/>
      <point x="139.9811320754717" y="82.60377358490567" type="curve" smooth="yes"/>
      <point x="141.9811320754717" y="80.60377358490567"/>
      <point x="143.9811320754717" y="79.60377358490567"/>
      <point x="145.9811320754717" y="79.60377358490567" type="curve" smooth="yes"/>
      <point x="147.9811320754717" y="79.60377358490567"/>
      <point x="149.9811320754717" y="80.60377358490567"/>
      <point x="151.9811320754717" y="82.60377358490567" type="curve" smooth="yes"/>
      <point x="181.93396226415095" y="112.55660377358491"/>
      <point x="216.17924528301887" y="146.80188679245282"/>
    </contour>
    <contour>
      <point x="123.97169811320755" y="308.97169811320754" type="curve" smooth="yes"/>
      <point x="123.97169811320755" y="289.49056603773585" type="line" smooth="yes"/>
      <point x="123.97169811320755" y="194.53773584905662"/>
      <point x="195.04716981132074" y="127.63207547169812"/>
      <point x="300.0" y="127.63207547169812" type="curve" smooth="yes"/>
      <point x="404.95283018867923" y="127.63207547169812"/>
      <point x="476.02830188679246" y="194.53773584905662"/>
      <point x="476.02830188679246" y="289.49056603773585" type="curve" smooth="yes"/>
      <point x="476.02830188679246" y="308.2641509433962" type="line" smooth="yes"/>
      <point x="476.02830188679246" y="406.04716981132077"/>
      <point x="404.95283018867923" y="473.66037735849056"/>
      <point x="300.0" y="473.66037735849056" type="curve" smooth="yes"/>
      <point x="195.04716981132074" y="473.66037735849056"/>
      <point x="123.97169811320755" y="406.04716981132077"/>
    </contour>
    <contour>
      <point x="220.96226415094338" y="293.02830188679246" type="curve" smooth="yes"/>
      <point x="220.96226415094338" y="311.0943396226415" type="line" smooth="yes"/>
      <point x="220.96226415094338" y="358.9433962264151"/>
      <point x="245.9811320754717" y="383.91509433962267"/>
      <point x="300.0" y="383.91509433962267" type="curve" smooth="yes"/>
      <point x="329.0943396226415" y="383.91509433962267"/>
      <point x="349.188679245283" y="377.16037735849056"/>
      <point x="361.8207547169811" y="364.52830188679246" type="curve"/>
      <point x="373.8679245283019" y="352.4811320754717"/>
      <point x="379.0377358490566" y="335.8490566037736"/>
      <point x="379.0377358490566" y="311.0943396226415" type="curve" smooth="yes"/>
      <point x="379.0377358490566" y="293.02830188679246" type="line" smooth="yes"/>
      <point x="379.0377358490566" y="243.0566037735849"/>
      <point x="354.0188679245283" y="217.37735849056605"/>
      <point x="300.0" y="217.37735849056605" type="curve" smooth="yes"/>
      <point x="272.6132075471698" y="217.37735849056605"/>
      <point x="253.22641509433961" y="223.83962264150944"/>
      <point x="239.88679245283018" y="235.0566037735849" type="curve"/>
      <point x="227.1320754716981" y="247.10377358490567"/>
      <point x="220.96226415094338" y="264.7358490566038"/>
    </contour>
  </outline>
</glyph>
<glyph name="guillemotleft" format="2">
  <advance width="600.0"/>
  <unicode hex="00AB"/>
  <outline>
    <contour>
      <point x="328.22641509433964" y="95.66037735849056" type="line"/>
      <point x="239.0566037735849" y="188.83018867924528"/>
      <point x="190.76415094339623" y="239.83018867924528"/>
      <point x="135.17924528301887" y="299.0" type="curve"/>
      <point x="192.71698113207546" y="360.5377358490566"/>
      <point x="244.5943396226415" y="416.41509433962267"/>
      <point x="328.22641509433964" y="504.33962264150944" type="curve"/>
      <point x="328.22641509433964" y="522.0" type="line"/>
      <point x="298.24528301886795" y="522.0"/>
      <point x="268.6792452830189" y="522.0"/>
      <point x="238.69811320754718" y="522.0" type="curve" smooth="yes"/>
      <point x="226.69811320754718" y="522.0"/>
      <point x="221.69811320754718" y="521.0"/>
      <point x="212.69811320754718" y="512.0" type="curve" smooth="yes"/>
      <point x="183.69811320754718" y="482.0"/>
      <point x="97.69811320754718" y="391.0"/>
      <point x="35.69811320754717" y="325.0" type="curve"/>
      <point x="35.69811320754717" y="312.0"/>
      <point x="35.69811320754717" y="298.0"/>
      <point x="35.69811320754717" y="285.0" type="curve" smooth="yes"/>
      <point x="35.69811320754717" y="277.0"/>
      <point x="36.69811320754717" y="273.0"/>
      <point x="45.69811320754717" y="263.0" type="curve" smooth="yes"/>
      <point x="65.69811320754718" y="242.0"/>
      <point x="196.69811320754718" y="105.0"/>
      <point x="210.69811320754718" y="90.0" type="curve" smooth="yes"/>
      <point x="221.69811320754718" y="79.0"/>
      <point x="223.69811320754718" y="78.0"/>
      <point x="236.69811320754718" y="78.0" type="curve" smooth="yes"/>
      <point x="266.97169811320754" y="78.0"/>
      <point x="297.95283018867923" y="78.0"/>
      <point x="328.22641509433964" y="78.0" type="curve"/>
    </contour>
    <contour>
      <point x="558.2264150943396" y="95.66037735849056" type="line"/>
      <point x="469.0566037735849" y="188.83018867924528"/>
      <point x="420.7641509433962" y="239.83018867924528"/>
      <point x="365.1792452830189" y="299.0" type="curve"/>
      <point x="422.7169811320755" y="360.5377358490566"/>
      <point x="474.5943396226415" y="416.41509433962267"/>
      <point x="558.2264150943396" y="504.33962264150944" type="curve"/>
      <point x="558.2264150943396" y="522.0" type="line"/>
      <point x="528.2452830188679" y="522.0"/>
      <point x="498.6792452830189" y="522.0"/>
      <point x="468.6981132075472" y="522.0" type="curve" smooth="yes"/>
      <point x="456.6981132075472" y="522.0"/>
      <point x="451.6981132075472" y="521.0"/>
      <point x="442.6981132075472" y="512.0" type="curve" smooth="yes"/>
      <point x="413.6981132075472" y="482.0"/>
      <point x="327.6981132075472" y="391.0"/>
      <point x="265.6981132075472" y="325.0" type="curve"/>
      <point x="265.6981132075472" y="312.0"/>
      <point x="265.6981132075472" y="298.0"/>
      <point x="265.6981132075472" y="285.0" type="curve" smooth="yes"/>
      <point x="265.6981132075472" y="277.0"/>
      <point x="266.6981132075472" y="273.0"/>
      <point x="275.6981132075472" y="263.0" type="curve" smooth="yes"/>
      <point x="295.6981132075472" y="242.0"/>
      <point x="426.6981132075472" y="105.0"/>
      <point x="440.6981132075472" y="90.0" type="curve" smooth="yes"/>
      <point x="451.6981132075472" y="79.0"/>
      <point x="453.6981132075472" y="78.0"/>
      <point x="466.6981132075472" y="78.0" type="curve" smooth="yes"/>
      <point x="496.97169811320754" y="78.0"/>
      <point x="527.9528301886793" y="78.0"/>
      <point x="558.2264150943396" y="78.0" type="curve"/>
    </contour>
  </outline>
</glyph>
<glyph name="paragraph" format="2">
  <advance width="600.0"/>
  <unicode hex="00B6"/>
  <outline>
    <contour>
      <point x="303.1509433962264" y="589.3207547169811" type="curve" smooth="yes"/>
      <point x="389.12264150943395" y="589.3207547169811"/>
      <point x="497.7830188679245" y="589.3207547169811"/>
      <point x="563.3207547169811" y="589.3207547169811" type="curve"/>
      <point x="574.3207547169811" y="589.3207547169811" type="line"/>
      <point x="574.3207547169811" y="606.9811320754717"/>
      <point x="574.3207547169811" y="621.1037735849056"/>
      <point x="574.3207547169811" y="689.0" type="curve" smooth="yes"/>
      <point x="574.3207547169811" y="692.0"/>
      <point x="573.3207547169811" y="695.0"/>
      <point x="571.3207547169811" y="697.0" type="curve" smooth="yes"/>
      <point x="569.3207547169811" y="699.0"/>
      <point x="566.3207547169811" y="700.0"/>
      <point x="563.3207547169811" y="700.0" type="curve" smooth="yes"/>
      <point x="262.97169811320754" y="700.0" type="line" smooth="yes"/>
      <point x="125.16981132075472" y="700.0"/>
      <point x="42.69811320754717" y="623.3962264150944"/>
      <point x="42.69811320754717" y="487.12264150943395" type="curve" smooth="yes"/>
      <point x="42.69811320754717" y="401.41509433962267" type="line" smooth="yes"/>
      <point x="42.69811320754717" y="291.07547169811323"/>
      <point x="104.72641509433963" y="212.73584905660377"/>
      <point x="216.83962264150944" y="212.73584905660377" type="curve" smooth="yes"/>
      <point x="245.28301886792454" y="212.73584905660377" type="line" smooth="yes"/>
      <point x="263.57547169811323" y="212.73584905660377"/>
      <point x="287.4842264150943" y="212.73584905660377"/>
      <point x="314.2358490566038" y="212.73584905660377" type="curve"/>
      <point x="314.2358490566038" y="305.72641509433964" type="line"/>
      <point x="277.95283018867923" y="305.72641509433964" type="line" smooth="yes"/>
      <point x="230.50943396226415" y="305.72641509433964"/>
      <point x="212.27358490566036" y="321.08490566037733"/>
      <point x="212.27358490566036" y="377.35849056603774" type="curve" smooth="yes"/>
      <point x="212.27358490566036" y="489.95283018867923" type="line" smooth="yes"/>
      <point x="212.27358490566036" y="557.9622641509434"/>
      <point x="243.87735849056605" y="589.3207547169811"/>
    </contour>
    <contour>
      <point x="285.54716981132077" y="641.6981132075472" type="line"/>
      <point x="239.24528301886792" y="641.6981132075472" type="line"/>
      <point x="239.24528301886792" y="381.89622641509436"/>
      <point x="239.24528301886792" y="120.80188679245283"/>
      <point x="239.24528301886792" y="-139.0" type="curve" smooth="yes"/>
      <point x="239.24528301886792" y="-146.0"/>
      <point x="243.24528301886792" y="-150.0"/>
      <point x="250.24528301886792" y="-150.0" type="curve" smooth="yes"/>
      <point x="280.22641509433964" y="-150.0"/>
      <point x="308.79245283018867" y="-150.0"/>
      <point x="338.77358490566036" y="-150.0" type="curve"/>
      <point x="338.77358490566036" y="109.91799056603773"/>
      <point x="338.77358490566036" y="389.61320754716985"/>
      <point x="338.77358490566036" y="630.6981132075472" type="curve" smooth="yes"/>
      <point x="338.77358490566036" y="637.6981132075472"/>
      <point x="334.77358490566036" y="641.6981132075472"/>
      <point x="327.77358490566036" y="641.6981132075472" type="curve"/>
    </contour>
    <contour>
      <point x="469.0943396226415" y="641.6981132075472" type="line"/>
      <point x="424.62264150943395" y="641.6981132075472" type="line"/>
      <point x="424.62264150943395" y="381.89622641509436"/>
      <point x="424.62264150943395" y="120.80188679245283"/>
      <point x="424.62264150943395" y="-139.0" type="curve" smooth="yes"/>
      <point x="424.62264150943395" y="-146.0"/>
      <point x="428.62264150943395" y="-150.0"/>
      <point x="435.62264150943395" y="-150.0" type="curve" smooth="yes"/>
      <point x="465.60377358490564" y="-150.0"/>
      <point x="493.87735849056605" y="-150.0"/>
      <point x="524.1509433962265" y="-150.0" type="curve"/>
      <point x="524.1509433962265" y="-118.0"/>
      <point x="524.1509433962265" y="-80.0"/>
      <point x="524.1509433962265" y="-40.0" type="curve" smooth="yes"/>
      <point x="524.1509433962265" y="183.0943396226415"/>
      <point x="524.1509433962265" y="407.60377358490564"/>
      <point x="524.1509433962265" y="630.6981132075472" type="curve" smooth="yes"/>
      <point x="524.1509433962265" y="637.6981132075472"/>
      <point x="520.1509433962265" y="641.6981132075472"/>
      <point x="513.1509433962265" y="641.6981132075472" type="curve"/>
    </contour>
  </outline>
</glyph>
<glyph name="hbar" format="2">
  <advance width="600.0"/>
  <unicode hex="0127"/>
  <outline>
    <contour>
      <point x="31.754716981132077" y="679.7641509433962" type="line"/>
      <point x="31.754716981132077" y="656.0283018867924"/>
      <point x="31.754716981132077" y="634.0"/>
      <point x="31.754716981132077" y="610.2641509433962" type="curve" smooth="yes"/>
      <point x="31.754716981132077" y="603.2641509433962"/>
      <point x="35.75471698113208" y="599.2641509433962"/>
      <point x="42.75471698113208" y="599.2641509433962" type="curve" smooth="yes"/>
      <point x="387.0188679245283" y="599.2641509433962" type="line"/>
      <point x="387.0188679245283" y="623.0"/>
      <point x="387.0188679245283" y="645.0283018867924"/>
      <point x="387.0188679245283" y="668.7641509433962" type="curve" smooth="yes"/>
      <point x="387.0188679245283" y="675.7641509433962"/>
      <point x="383.0188679245283" y="679.7641509433962"/>
      <point x="376.0188679245283" y="679.7641509433962" type="curve"/>
    </contour>
    <component base="h"/>
  </outline>
</glyph>
<glyph name="IJ" format="2">
  <advance width="600.0"/>
  <unicode hex="0132"/>
  <outline>
    <contour>
      <point x="72.28301886792453" y="700.0" type="curve"/>
      <point x="72.28301886792453" y="664.877358490566"/>
      <point x="72.28301886792453" y="630.4622641509434"/>
      <point x="72.28301886792453" y="595.3396226415094" type="curve" smooth="yes"/>
      <point x="72.28301886792453" y="469.0188679245047"/>
      <point x="72.28301886792453" y="342.69811320757077"/>
      <point x="72.28301886792453" y="216.37735849056605" type="curve" smooth="yes"/>
      <point x="72.28301886792453" y="209.37735849056605"/>
      <point x="76.28301886792453" y="205.37735849056605"/>
      <point x="83.28301886792453" y="205.37735849056605" type="curve" smooth="yes"/>
      <point x="122.4622641509434" y="205.37735849056605"/>
      <point x="160.93396226415095" y="205.37735849056605"/>
      <point x="200.1132075471698" y="205.37735849056605" type="curve"/>
      <point x="200.1132075471698" y="366.26382232933963"/>
      <point x="200.1132075471698" y="528.1135361612264"/>
      <point x="200.1132075471698" y="689.0" type="curve" smooth="yes"/>
      <point x="200.1132075471698" y="696.0"/>
      <point x="196.1132075471698" y="700.0"/>
      <point x="189.1132075471698" y="700.0" type="curve"/>
      <point x="149.93396226415095" y="700.0"/>
      <point x="111.4622641509434" y="700.0"/>
    </contour>
    <contour>
      <point x="273.0188679245283" y="93.50943396226414" type="curve" smooth="yes"/>
      <point x="200.60377358490567" y="93.50943396226414"/>
      <point x="143.69811320754718" y="105.80188679245282"/>
      <point x="99.35849056603774" y="128.4811320754717" type="curve"/>
      <point x="81.69811320754718" y="128.4811320754717" type="line"/>
      <point x="81.69811320754718" y="94.45481628599339"/>
      <point x="81.69811320754718" y="67.07348560079906"/>
      <point x="81.69811320754718" y="35.87735849056604" type="curve"/>
      <point x="81.69811320754718" y="29.462264150943398"/>
      <point x="82.69811320754718" y="25.339622641509436"/>
      <point x="86.40566037735849" y="22.339622641509436" type="curve"/>
      <point x="115.52830188679246" y="-1.8301886792452828"/>
      <point x="196.18867924528303" y="-20.0"/>
      <point x="280.0943396226415" y="-20.0" type="curve" smooth="yes"/>
      <point x="443.04716981132077" y="-20.0"/>
      <point x="536.7830188679245" y="73.44339622641509"/>
      <point x="537.0754716981132" y="236.22641509433961" type="curve"/>
      <point x="537.0754716981132" y="387.7358490566038"/>
      <point x="537.0754716981132" y="537.4905660377359"/>
      <point x="537.0754716981132" y="689.0" type="curve"/>
      <point x="537.0754716981132" y="696.0"/>
      <point x="533.0754716981132" y="700.0"/>
      <point x="526.0754716981132" y="700.0" type="curve"/>
      <point x="445.10377358490564" y="700.0"/>
      <point x="371.410270501317" y="700.0"/>
      <point x="290.47169811320754" y="700.0" type="curve"/>
      <point x="290.47169811320754" y="665.3584905660377"/>
      <point x="290.47169811320754" y="636.377358490566"/>
      <point x="290.47169811320754" y="601.7358490566038" type="curve" smooth="yes"/>
      <point x="290.47169811320754" y="594.7358490566038"/>
      <point x="294.47169811320754" y="590.7358490566038"/>
      <point x="301.47169811320754" y="590.7358490566038" type="curve" smooth="yes"/>
      <point x="349.2641509433962" y="590.7358490566038"/>
      <point x="389.54454013543585" y="590.7358490566038"/>
      <point x="437.2452830188679" y="590.7358490566038" type="curve"/>
      <point x="392.58490566037733" y="611.6415094339623" type="line"/>
      <point x="427.1509433962264" y="574.4150943396227" type="line"/>
      <point x="408.66037735849056" y="618.6132075471698" type="line"/>
      <point x="408.66037735849056" y="476.1792452830189"/>
      <point x="408.66037735849056" y="349.1132075471698"/>
      <point x="408.66037735849056" y="227.9056603773585" type="curve"/>
      <point x="408.66037735849056" y="182.00943396226415"/>
      <point x="398.61320754716985" y="148.5754716981132"/>
      <point x="376.22641509433964" y="126.18867924528301" type="curve" smooth="yes"/>
      <point x="353.9696507827123" y="103.93191493365566"/>
      <point x="319.16037735849056" y="93.50943396226414"/>
    </contour>
  </outline>
</glyph>
<glyph name="Eng" format="2">
  <advance width="700.0"/>
  <unicode hex="014A"/>
  <outline>
    <contour>
      <point x="393.4433962264151" y="-130.12264150943395" type="curve" smooth="yes"/>
      <point x="351.7641509433962" y="-130.12264150943395"/>
      <point x="320.42452830188677" y="-122.95283018867924"/>
      <point x="284.3018867924528" y="-104.5377358490566" type="curve"/>
      <point x="266.64150943396226" y="-104.5377358490566" type="line"/>
      <point x="266.64150943396226" y="-139.8867924528302"/>
      <point x="266.64150943396226" y="-178.06603773584905"/>
      <point x="266.64150943396226" y="-213.41509433962264" type="curve" smooth="yes"/>
      <point x="266.64150943396226" y="-216.70754716981133"/>
      <point x="267.64150943396226" y="-219.41509433962264"/>
      <point x="269.64150943396226" y="-221.41509433962264" type="curve" smooth="yes"/>
      <point x="283.9339622641509" y="-235.70754716981133"/>
      <point x="345.3018867924528" y="-250.0"/>
      <point x="407.6698113207547" y="-250.0" type="curve" smooth="yes"/>
      <point x="555.6698113207547" y="-250.0"/>
      <point x="616.2264150943396" y="-162.24528301886792"/>
      <point x="616.2264150943396" y="0.0" type="curve"/>
      <point x="616.2264150943396" y="17.19811320754717"/>
      <point x="582.1698113207547" y="18.075471698113205"/>
      <point x="495.47169811320754" y="18.075471698113205" type="curve"/>
      <point x="495.47169811320754" y="-94.4245283018868"/>
      <point x="460.2830188679245" y="-130.12264150943395"/>
    </contour>
    <component base="N" xOffset="25.0"/>
  </outline>
</glyph>
<glyph name="dotlessj" format="2">
  <advance width="350.0"/>
  <unicode hex="0237"/>
  <anchor x="204.43396226415095" y="546.9056603773585" name="top"/>
  <outline>
    <contour>
      <point x="255.22641509433961" y="535.9056603773585" type="curve" smooth="yes"/>
      <point x="200.5943396226415" y="535.9056603773585"/>
      <point x="135.0566037735849" y="535.9056603773585"/>
      <point x="47.16981132075472" y="535.9056603773585" type="curve"/>
      <point x="47.16981132075472" y="501.2641509433962"/>
      <point x="47.16981132075472" y="467.3301886792453"/>
      <point x="47.16981132075472" y="432.688679245283" type="curve" smooth="yes"/>
      <point x="47.16981132075472" y="425.9811320754717"/>
      <point x="51.4622641509434" y="421.688679245283"/>
      <point x="58.16981132075472" y="421.688679245283" type="curve" smooth="yes"/>
      <point x="82.89622641509433" y="421.688679245283"/>
      <point x="119.65094339622641" y="421.688679245283"/>
      <point x="138.00943396226415" y="421.688679245283" type="curve"/>
      <point x="145.47169811320754" y="421.688679245283" type="line"/>
      <point x="145.47169811320754" y="282.4622641509434"/>
      <point x="145.47169811320754" y="170.5943396226415"/>
      <point x="145.47169811320754" y="-8.962264150943398" type="curve" smooth="yes"/>
      <point x="145.47169811320754" y="-30.811320754716988"/>
      <point x="140.30188679245282" y="-46.19811320754718"/>
      <point x="130.25471698113208" y="-56.83018867924528" type="curve"/>
      <point x="120.20754716981132" y="-66.4622641509434"/>
      <point x="106.28301886792453" y="-71.63207547169812"/>
      <point x="86.77358490566039" y="-71.63207547169812" type="curve" smooth="yes"/>
      <point x="60.38679245283019" y="-71.63207547169812"/>
      <point x="43.924528301886795" y="-67.04716981132076"/>
      <point x="17.047169811320757" y="-52.75471698113208" type="curve"/>
      <point x="-0.6132075471698109" y="-52.75471698113208" type="line"/>
      <point x="-0.6132075471698109" y="-88.81132075471699"/>
      <point x="-0.6132075471698109" y="-131.23584905660377"/>
      <point x="-0.6132075471698109" y="-167.29245283018867" type="curve" smooth="yes"/>
      <point x="-0.6132075471698109" y="-170.58490566037736"/>
      <point x="0.38679245283018915" y="-173.29245283018867"/>
      <point x="2.386792452830189" y="-175.29245283018867" type="curve" smooth="yes"/>
      <point x="15.924528301886793" y="-188.83018867924528"/>
      <point x="54.04716981132076" y="-200.0"/>
      <point x="116.32075471698113" y="-200.0" type="curve" smooth="yes"/>
      <point x="217.27358490566039" y="-200.0"/>
      <point x="266.22641509433964" y="-149.19811320754718"/>
      <point x="266.22641509433964" y="-12.5" type="curve" smooth="yes"/>
      <point x="266.22641509433964" y="193.20754716981133"/>
      <point x="266.22641509433964" y="348.20754716981133"/>
      <point x="266.22641509433964" y="524.9056603773585" type="curve" smooth="yes"/>
      <point x="266.22641509433964" y="531.6132075471698"/>
      <point x="262.5188679245283" y="535.9056603773585"/>
    </contour>
  </outline>
</glyph>
<glyph name="circumflexcomb" format="2">
  <unicode hex="0302"/>
  <anchor x="0.0" y="545.4905660377359" name="_top"/>
  <anchor x="170.0" y="712.0" name="side"/>
  <anchor x="0.0" y="756.1509433962265" name="top"/>
  <outline>
    <contour>
      <point x="-44.93396226415094" y="815.8490566037735" type="curve"/>
      <point x="-72.10377358490567" y="783.8490566037735"/>
      <point x="-156.19811320754718" y="686.8490566037735"/>
      <point x="-186.66037735849056" y="650.8490566037735" type="curve" smooth="yes"/>
      <point x="-203.53773584905662" y="630.8490566037735"/>
      <point x="-205.83018867924528" y="628.5566037735849"/>
      <point x="-205.83018867924528" y="622.8490566037735" type="curve" smooth="yes"/>
      <point x="-205.83018867924528" y="617.8490566037735"/>
      <point x="-203.12264150943398" y="613.8490566037735"/>
      <point x="-195.12264150943398" y="613.8490566037735" type="curve" smooth="yes"/>
      <point x="-108.59433962264151" y="613.8490566037735" type="line"/>
      <point x="-76.91509433962264" y="644.8207547169811"/>
      <point x="-41.4811320754717" y="682.2547169811321"/>
      <point x="17.87735849056604" y="743.7358490566038" type="curve"/>
      <point x="-29.49056603773585" y="721.3207547169811" type="line"/>
      <point x="29.78301886792453" y="721.3207547169811" type="line"/>
      <point x="-19.0" y="742.3207547169811" type="line"/>
      <point x="41.89622641509434" y="680.1320754716982"/>
      <point x="80.83962264150944" y="640.188679245283"/>
      <point x="96.17924528301887" y="624.8490566037735" type="curve" smooth="yes"/>
      <point x="105.17924528301887" y="615.8490566037735"/>
      <point x="110.17924528301887" y="613.8490566037735"/>
      <point x="125.17924528301887" y="613.8490566037735" type="curve" smooth="yes"/>
      <point x="156.03773584905662" y="613.8490566037735"/>
      <point x="186.43396226415095" y="613.8490566037735"/>
      <point x="217.29245283018867" y="613.8490566037735" type="curve"/>
      <point x="167.95283018867926" y="671.8490566037735"/>
      <point x="82.85849056603773" y="770.8490566037735"/>
      <point x="62.9811320754717" y="793.8490566037735" type="curve" smooth="yes"/>
      <point x="46.10377358490566" y="812.8490566037735"/>
      <point x="42.10377358490566" y="815.8490566037735"/>
      <point x="32.10377358490566" y="815.8490566037735" type="curve" smooth="yes"/>
      <point x="6.660377358490566" y="815.8490566037735"/>
      <point x="-19.49056603773585" y="815.8490566037735"/>
    </contour>
  </outline>
</glyph>
<glyph name="ringcomb" format="2">
  <unicode hex="030A"/>
  <anchor x="0.0" y="546.9056603773585" name="_top"/>
  <anchor x="0.0" y="779.7735849056604" name="top"/>
  <outline>
    <contour>
      <point x="0.0" y="861.566037735849" type="curve" smooth="yes"/>
      <point x="-81.73584905660377" y="861.566037735849"/>
      <point x="-133.22641509433961" y="815.9056603773585"/>
      <point x="-133.22641509433961" y="746.1698113207547" type="curve" smooth="yes"/>
      <point x="-133.22641509433961" y="718.0471698113207" type="line" smooth="yes"/>
      <point x="-133.22641509433961" y="648.0188679245283"/>
      <point x="-81.73584905660377" y="602.6509433962265"/>
      <point x="0.0" y="602.6509433962265" type="curve" smooth="yes"/>
      <point x="81.73584905660377" y="602.6509433962265"/>
      <point x="133.22641509433961" y="648.0188679245283"/>
      <point x="133.22641509433961" y="718.0471698113207" type="curve" smooth="yes"/>
      <point x="133.22641509433961" y="746.1698113207547" type="line" smooth="yes"/>
      <point x="133.22641509433961" y="815.9056603773585"/>
      <point x="81.73584905660377" y="861.566037735849"/>
    </contour>
    <contour>
      <point x="0.0" y="790.5566037735849" type="curve" smooth="yes"/>
      <point x="17.754716981132077" y="790.5566037735849"/>
      <point x="31.924528301886795" y="785.2641509433962"/>
      <point x="40.801886792452834" y="776.0943396226415" type="curve"/>
      <point x="49.09433962264151" y="767.8018867924528"/>
      <point x="53.38679245283019" y="755.5094339622641"/>
      <point x="53.38679245283019" y="740.9245283018868" type="curve" smooth="yes"/>
      <point x="53.38679245283019" y="722.5849056603773" type="line" smooth="yes"/>
      <point x="53.38679245283019" y="692.8301886792453"/>
      <point x="33.632075471698116" y="673.9528301886793"/>
      <point x="0.0" y="673.9528301886793" type="curve" smooth="yes"/>
      <point x="-17.169811320754718" y="673.9528301886793"/>
      <point x="-30.632075471698116" y="678.9528301886793"/>
      <point x="-39.509433962264154" y="687.5377358490566" type="curve"/>
      <point x="-48.801886792452834" y="696.122641509434"/>
      <point x="-53.38679245283019" y="707.7075471698113"/>
      <point x="-53.38679245283019" y="722.5849056603773" type="curve" smooth="yes"/>
      <point x="-53.38679245283019" y="740.9245283018868" type="line" smooth="yes"/>
      <point x="-53.38679245283019" y="772.3867924528302"/>
      <point x="-33.632075471698116" y="790.5566037735849"/>
    </contour>
  </outline>
</glyph>
<glyph name="quotedblleft" format="2">
  <advance width="600.0"/>
  <unicode hex="201C"/>
  <outline>
    <contour>
      <point x="298.85849056603774" y="741.2264150943396" type="curve"/>
      <point x="268.4622641509434" y="741.2264150943396"/>
      <point x="240.60377358490567" y="741.2264150943396"/>
      <point x="190.47169811320754" y="741.2264150943396" type="curve" smooth="yes"/>
      <point x="185.47169811320754" y="741.2264150943396"/>
      <point x="182.47169811320754" y="740.2264150943396"/>
      <point x="180.47169811320754" y="734.2264150943396" type="curve"/>
      <point x="141.5943396226415" y="635.566037735849"/>
      <point x="105.83962264150944" y="543.688679245283"/>
      <point x="66.25471698113208" y="445.02830188679246" type="curve"/>
      <point x="63.25471698113208" y="437.02830188679246"/>
      <point x="66.25471698113208" y="432.02830188679246"/>
      <point x="74.25471698113208" y="432.02830188679246" type="curve" smooth="yes"/>
      <point x="134.72641509433961" y="432.02830188679246"/>
      <point x="156.14150943396226" y="432.02830188679246"/>
      <point x="226.85849056603774" y="432.02830188679246" type="curve"/>
      <point x="250.85849056603774" y="535.566037735849"/>
      <point x="274.85849056603774" y="635.566037735849"/>
    </contour>
    <contour>
      <point x="534.2358490566038" y="741.2264150943396" type="curve"/>
      <point x="503.83962264150944" y="741.2264150943396"/>
      <point x="475.9811320754717" y="741.2264150943396"/>
      <point x="425.8490566037736" y="741.2264150943396" type="curve" smooth="yes"/>
      <point x="420.8490566037736" y="741.2264150943396"/>
      <point x="417.8490566037736" y="740.2264150943396"/>
      <point x="415.8490566037736" y="734.2264150943396" type="curve"/>
      <point x="376.97169811320754" y="635.566037735849"/>
      <point x="341.2169811320755" y="543.688679245283"/>
      <point x="301.6320754716981" y="445.02830188679246" type="curve"/>
      <point x="298.6320754716981" y="437.02830188679246"/>
      <point x="301.6320754716981" y="432.02830188679246"/>
      <point x="309.6320754716981" y="432.02830188679246" type="curve" smooth="yes"/>
      <point x="370.10377358490564" y="432.02830188679246"/>
      <point x="391.5188679245283" y="432.02830188679246"/>
      <point x="462.2358490566038" y="432.02830188679246" type="curve"/>
      <point x="486.2358490566038" y="535.566037735849"/>
      <point x="510.2358490566038" y="635.566037735849"/>
    </contour>
  </outline>
</glyph>
<glyph name="ellipsis" format="2">
  <advance width="800.0"/>
  <unicode hex="2026"/>
  <outline>
    <contour>
      <point x="216.54716981132074" y="-8.537735849056602" type="curve"/>
      <point x="216.54716981132074" y="144.14150943396226" type="line" smooth="yes"/>
      <point x="216.54716981132074" y="151.14150943396226"/>
      <point x="212.54716981132074" y="155.14150943396226"/>
      <point x="205.54716981132074" y="155.14150943396226" type="curve" smooth="yes"/>
      <point x="168.47169811320754" y="155.14150943396226"/>
      <point x="91.69811320754718" y="155.14150943396226"/>
      <point x="54.62264150943396" y="155.14150943396226" type="curve"/>
      <point x="54.62264150943396" y="2.4622641509433967" type="line" smooth="yes"/>
      <point x="54.62264150943396" y="-4.537735849056603"/>
      <point x="58.62264150943396" y="-8.537735849056602"/>
      <point x="65.62264150943396" y="-8.537735849056602" type="curve" smooth="yes"/>
      <point x="102.69811320754718" y="-8.537735849056602"/>
      <point x="179.47169811320754" y="-8.537735849056602"/>
    </contour>
    <contour>
      <point x="480.9622641509434" y="-8.537735849056602" type="curve"/>
      <point x="480.9622641509434" y="144.14150943396226" type="line" smooth="yes"/>
      <point x="480.9622641509434" y="151.14150943396226"/>
      <point x="476.9622641509434" y="155.14150943396226"/>
      <point x="469.9622641509434" y="155.14150943396226" type="curve" smooth="yes"/>
      <point x="432.8867924528302" y="155.14150943396226"/>
      <point x="356.1132075471698" y="155.14150943396226"/>
      <point x="319.0377358490566" y="155.14150943396226" type="curve"/>
      <point x="319.0377358490566" y="2.4622641509433967" type="line" smooth="yes"/>
      <point x="319.0377358490566" y="-4.537735849056603"/>
      <point x="323.0377358490566" y="-8.537735849056602"/>
      <point x="330.0377358490566" y="-8.537735849056602" type="curve" smooth="yes"/>
      <point x="367.1132075471698" y="-8.537735849056602"/>
      <point x="443.8867924528302" y="-8.537735849056602"/>
    </contour>
    <contour>
      <point x="745.377358490566" y="-8.537735849056602" type="curve"/>
      <point x="745.377358490566" y="144.14150943396226" type="line" smooth="yes"/>
      <point x="745.377358490566" y="151.14150943396226"/>
      <point x="741.377358490566" y="155.14150943396226"/>
      <point x="734.377358490566" y="155.14150943396226" type="curve" smooth="yes"/>
      <point x="697.3018867924528" y="155.14150943396226"/>
      <point x="620.5283018867924" y="155.14150943396226"/>
      <point x="583.4528301886793" y="155.14150943396226" type="curve"/>
      <point x="583.4528301886793" y="2.4622641509433967" type="line" smooth="yes"/>
      <point x="583.4528301886793" y="-4.537735849056603"/>
      <point x="587.4528301886793" y="-8.537735849056602"/>
      <point x="594.4528301886793" y="-8.537735849056602" type="curve" smooth="yes"/>
      <point x="631.5283018867924" y="-8.537735849056602"/>
      <point x="708.3018867924528" y="-8.537735849056602"/>
    </contour>
  </outline>
</glyph>
<glyph name="minute" format="2">
  <advance width="300.0"/>
  <unicode hex="2032"/>
  <outline>
    <contour>
      <point x="141.1320754716981" y="439.92452830188677" type="curve" smooth="yes"/>
      <point x="146.1320754716981" y="439.92452830188677"/>
      <point x="151.83962264150944" y="441.2169811320755"/>
      <point x="155.1320754716981" y="447.92452830188677" type="curve" smooth="yes"/>
      <point x="202.27358490566039" y="546.9245283018868"/>
      <point x="251.3679245283019" y="646.0"/>
      <point x="295.33962264150944" y="737.0" type="curve" smooth="yes"/>
      <point x="299.6320754716981" y="745.7075471698113"/>
      <point x="295.33962264150944" y="750.0"/>
      <point x="287.33962264150944" y="750.0" type="curve" smooth="yes"/>
      <point x="230.08490566037736" y="750.0"/>
      <point x="189.25471698113208" y="750.0"/>
      <point x="124.09433962264151" y="750.0" type="curve"/>
      <point x="88.9056603773585" y="644.0"/>
      <point x="60.05660377358491" y="553.9245283018868"/>
      <point x="21.698113207547173" y="439.92452830188677" type="curve"/>
      <point x="54.72641509433963" y="439.92452830188677"/>
      <point x="93.04716981132076" y="439.92452830188677"/>
    </contour>
  </outline>
</glyph>
<glyph name="fraction" format="2">
  <advance width="600.0"/>
  <unicode hex="2044"/>
  <outline>
    <contour>
      <point x="361.6792452830189" y="405.0" type="curve"/>
      <point x="372.0943396226415" y="405.0"/>
      <point x="446.6698113207547" y="405.0"/>
      <point x="456.37735849056605" y="405.0" type="curve" smooth="yes"/>
      <point x="461.37735849056605" y="405.0"/>
      <point x="464.08490566037733" y="406.0"/>
      <point x="466.37735849056605" y="412.0" type="curve" smooth="yes"/>
      <point x="483.66037735849056" y="450.39622641509436"/>
      <point x="562.7924528301887" y="658.6037735849056"/>
      <point x="580.0754716981132" y="697.0" type="curve" smooth="yes"/>
      <point x="583.3679245283018" y="705.0"/>
      <point x="580.0754716981132" y="710.0"/>
      <point x="572.0754716981132" y="710.0" type="curve" smooth="yes"/>
      <point x="561.7830188679245" y="710.0"/>
      <point x="473.5660377358491" y="710.0"/>
      <point x="463.85849056603774" y="710.0" type="curve"/>
      <point x="447.1132075471698" y="672.3867924528302"/>
      <point x="379.42452830188677" y="444.7358490566038"/>
    </contour>
    <contour>
      <point x="238.32075471698113" y="296.0" type="curve"/>
      <point x="227.9056603773585" y="296.0"/>
      <point x="153.33018867924528" y="296.0"/>
      <point x="143.62264150943395" y="296.0" type="curve" smooth="yes"/>
      <point x="138.62264150943395" y="296.0"/>
      <point x="135.91509433962264" y="295.0"/>
      <point x="133.62264150943395" y="289.0" type="curve" smooth="yes"/>
      <point x="116.33962264150944" y="250.60377358490564"/>
      <point x="37.20754716981132" y="42.39622641509435"/>
      <point x="19.924528301886795" y="4.0" type="curve" smooth="yes"/>
      <point x="16.632075471698116" y="-4.0"/>
      <point x="19.924528301886795" y="-9.0"/>
      <point x="27.924528301886795" y="-9.0" type="curve" smooth="yes"/>
      <point x="38.216981132075475" y="-9.0"/>
      <point x="126.43396226415095" y="-9.0"/>
      <point x="136.14150943396226" y="-9.0" type="curve"/>
      <point x="152.88679245283018" y="28.61320754716982"/>
      <point x="220.5754716981132" y="256.2641509433962"/>
    </contour>
  </outline>
</glyph>
<glyph name="fivesuperior" format="2">
  <advance width="600.0"/>
  <unicode hex="2075"/>
  <outline>
    <contour>
      <point x="177.43396226415095" y="729.0754716981132" type="line"/>
      <point x="177.43396226415095" y="719.0754716981132"/>
      <point x="177.72641509433961" y="671.8962264150944"/>
      <point x="178.60377358490567" y="662.188679245283" type="curve" smooth="yes"/>
      <point x="178.89622641509433" y="659.8962264150944"/>
      <point x="181.60377358490567" y="658.188679245283"/>
      <point x="184.60377358490567" y="658.188679245283" type="curve" smooth="yes"/>
      <point x="414.49056603773585" y="658.188679245283" type="line"/>
      <point x="414.49056603773585" y="668.188679245283"/>
      <point x="414.49056603773585" y="707.0754716981132"/>
      <point x="414.49056603773585" y="717.0754716981132" type="curve" smooth="yes"/>
      <point x="414.49056603773585" y="724.7830188679245"/>
      <point x="410.49056603773585" y="728.7830188679245"/>
      <point x="403.49056603773585" y="728.7830188679245" type="curve"/>
    </contour>
    <contour>
      <point x="434.7830188679245" y="482.12264150943395" type="curve" smooth="yes"/>
      <point x="434.7830188679245" y="488.70754716981133" type="line" smooth="yes"/>
      <point x="434.7830188679245" y="559.7075471698113"/>
      <point x="395.9811320754717" y="597.2452830188679"/>
      <point x="327.02830188679246" y="597.2452830188679" type="curve" smooth="yes"/>
      <point x="284.27358490566036" y="597.2452830188679"/>
      <point x="253.9811320754717" y="584.2452830188679"/>
      <point x="232.5188679245283" y="560.3679245283018" type="curve"/>
      <point x="269.64150943396226" y="578.3679245283018" type="line"/>
      <point x="222.4433962264151" y="578.3679245283018" type="line"/>
      <point x="235.4433962264151" y="566.3679245283018" type="line"/>
      <point x="238.73584905660377" y="603.8301886792453"/>
      <point x="242.4433962264151" y="644.7547169811321"/>
      <point x="245.1509433962264" y="676.0754716981132" type="curve" smooth="yes"/>
      <point x="246.4433962264151" y="690.8301886792453"/>
      <point x="247.4433962264151" y="698.122641509434"/>
      <point x="248.1509433962264" y="707.9528301886793" type="curve"/>
      <point x="249.56603773584905" y="712.6603773584906" type="line"/>
      <point x="231.12264150943398" y="720.0754716981132"/>
      <point x="198.67924528301887" y="729.0754716981132"/>
      <point x="177.43396226415095" y="729.0754716981132" type="curve"/>
      <point x="172.43396226415095" y="657.0754716981132"/>
      <point x="165.89622641509433" y="568.3018867924528"/>
      <point x="163.0188679245283" y="523.188679245283" type="curve" smooth="yes"/>
      <point x="162.0188679245283" y="514.188679245283"/>
      <point x="165.0188679245283" y="510.188679245283"/>
      <point x="173.0188679245283" y="510.188679245283" type="curve" smooth="yes"/>
      <point x="240.12264150943398" y="510.188679245283" type="line"/>
      <point x="254.70754716981133" y="519.4811320754717"/>
      <point x="272.58490566037733" y="523.6509433962265"/>
      <point x="300.4622641509434" y="523.6509433962265" type="curve" smooth="yes"/>
      <point x="340.14150943396226" y="523.6509433962265"/>
      <point x="359.0660377358491" y="513.1415094339623"/>
      <point x="359.0660377358491" y="485.1698113207547" type="curve" smooth="yes"/>
      <point x="359.0660377358491" y="480.4622641509434" type="line" smooth="yes"/>
      <point x="359.0660377358491" y="449.5660377358491"/>
      <point x="339.5566037735849" y="437.22641509433964"/>
      <point x="287.3867924528302" y="437.22641509433964" type="curve" smooth="yes"/>
      <point x="241.50943396226415" y="437.22641509433964"/>
      <point x="210.0943396226415" y="443.39622641509436"/>
      <point x="174.38679245283018" y="461.3679245283019" type="curve"/>
      <point x="162.38679245283018" y="461.3679245283019" type="line"/>
      <point x="162.38679245283018" y="450.7830188679245"/>
      <point x="162.38679245283018" y="408.6509433962264"/>
      <point x="162.38679245283018" y="398.0660377358491" type="curve" smooth="yes"/>
      <point x="162.38679245283018" y="390.35849056603774"/>
      <point x="163.67924528301887" y="388.0660377358491"/>
      <point x="168.38679245283018" y="384.77358490566036" type="curve" smooth="yes"/>
      <point x="187.50943396226415" y="372.311320754717"/>
      <point x="237.16981132075472" y="361.3867924528302"/>
      <point x="292.33962264150944" y="361.3867924528302" type="curve" smooth="yes"/>
      <point x="390.66037735849056" y="361.3867924528302"/>
      <point x="434.7830188679245" y="397.89622641509436"/>
    </contour>
  </outline>
</glyph>
<glyph name="numero" format="2">
  <advance width="850.0"/>
  <unicode hex="2116"/>
  <outline>
    <contour>
      <point x="179.52830188679246" y="0.0" type="curve"/>
      <point x="179.52830188679246" y="53.70754716981132"/>
      <point x="179.23584905660377" y="111.33962264150944"/>
      <point x="179.52830188679246" y="162.12264150943398" type="curve"/>
      <point x="179.52830188679246" y="256.7358490566038"/>
      <point x="176.69811320754718" y="384.8679245283019"/>
      <point x="154.71698113207546" y="545.566037735849" type="curve"/>
      <point x="137.47169811320754" y="526.7924528301887" type="line"/>
      <point x="202.8679245283019" y="526.7924528301887" type="line"/>
      <point x="159.66981132075472" y="561.5471698113207" type="line"/>
      <point x="247.12264150943398" y="385.3207547169811"/>
      <point x="325.54716981132077" y="233.10377358490567"/>
      <point x="455.60377358490564" y="7.7075471698113205" type="curve" smooth="yes"/>
      <point x="459.311320754717" y="1.2924528301886793"/>
      <point x="462.311320754717" y="0.0"/>
      <point x="470.311320754717" y="0.0" type="curve" smooth="yes"/>
      <point x="503.04716981132077" y="0.0"/>
      <point x="555.6603773584906" y="0.0"/>
      <point x="591.2264150943396" y="0.0" type="curve"/>
      <point x="591.2264150943396" y="39.72641509433963"/>
      <point x="591.2264150943396" y="80.16037735849056"/>
      <point x="591.2264150943396" y="119.88679245283019" type="curve"/>
      <point x="591.2264150943396" y="309.16037735849056"/>
      <point x="591.2264150943396" y="499.72641509433964"/>
      <point x="591.2264150943396" y="689.0" type="curve"/>
      <point x="591.2264150943396" y="695.0"/>
      <point x="586.2264150943396" y="700.0"/>
      <point x="580.2264150943396" y="700.0" type="curve"/>
      <point x="543.877358490566" y="700.0"/>
      <point x="506.8207547169811" y="700.0"/>
      <point x="470.47169811320754" y="700.0" type="curve"/>
      <point x="470.47169811320754" y="649.5377358490566"/>
      <point x="470.47169811320754" y="599.7830188679245"/>
      <point x="470.47169811320754" y="558.5188679245283" type="curve"/>
      <point x="470.47169811320754" y="437.6792452830189"/>
      <point x="474.83962264150944" y="324.60377358490564"/>
      <point x="498.8207547169811" y="172.75471698113208" type="curve"/>
      <point x="518.066037735849" y="187.14150943396226" type="line"/>
      <point x="452.16037735849056" y="187.14150943396226" type="line"/>
      <point x="491.8679245283019" y="158.50943396226415" type="line"/>
      <point x="405.29245283018867" y="333.02830188679246"/>
      <point x="314.92452830188677" y="502.7641509433962"/>
      <point x="214.5" y="690.0" type="curve" smooth="yes"/>
      <point x="209.79245283018867" y="699.4150943396227"/>
      <point x="208.62264150943395" y="700.0"/>
      <point x="197.79245283018867" y="700.0" type="curve" smooth="yes"/>
      <point x="159.5188679245283" y="700.0"/>
      <point x="97.04716981132076" y="700.0"/>
      <point x="58.77358490566038" y="700.0" type="curve"/>
      <point x="58.77358490566038" y="662.9056603773585"/>
      <point x="58.77358490566038" y="625.3962264150944"/>
      <point x="58.77358490566038" y="588.3018867924528" type="curve"/>
      <point x="58.77358490566038" y="396.10377358490564"/>
      <point x="58.77358490566038" y="203.19811320754718"/>
      <point x="58.77358490566038" y="11.0" type="curve"/>
      <point x="58.77358490566038" y="5.0"/>
      <point x="63.77358490566038" y="0.0"/>
      <point x="69.77358490566039" y="0.0" type="curve"/>
      <point x="106.12264150943396" y="0.0"/>
      <point x="143.17924528301887" y="0.0"/>
    </contour>
    <contour>
      <point x="758.0" y="710.9528301886793" type="curve" smooth="yes"/>
      <point x="673.433962264151" y="710.9528301886793"/>
      <point x="648.311320754717" y="665.2924528301887"/>
      <point x="648.311320754717" y="595.5566037735849" type="curve" smooth="yes"/>
      <point x="648.311320754717" y="567.433962264151" type="line" smooth="yes"/>
      <point x="648.311320754717" y="497.4056603773585"/>
      <point x="673.433962264151" y="452.0377358490566"/>
      <point x="758.0" y="452.0377358490566" type="curve" smooth="yes"/>
      <point x="841.8584905660377" y="452.0377358490566"/>
      <point x="867.688679245283" y="497.4056603773585"/>
      <point x="867.688679245283" y="567.433962264151" type="curve" smooth="yes"/>
      <point x="867.688679245283" y="595.5566037735849" type="line" smooth="yes"/>
      <point x="867.688679245283" y="665.2924528301887"/>
      <point x="841.8584905660377" y="710.9528301886793"/>
    </contour>
    <contour>
      <point x="758.0" y="639.9433962264151" type="curve" smooth="yes"/>
      <point x="773.1698113207547" y="639.9433962264151"/>
      <point x="783.3396226415094" y="635.9433962264151"/>
      <point x="789.6320754716982" y="628.3584905660377" type="curve"/>
      <point x="795.2169811320755" y="620.7735849056604"/>
      <point x="796.5094339622641" y="611.9433962264151"/>
      <point x="796.5094339622641" y="596.7735849056604" type="curve" smooth="yes"/>
      <point x="796.5094339622641" y="565.5094339622641" type="line" smooth="yes"/>
      <point x="796.5094339622641" y="536.6320754716982"/>
      <point x="789.877358490566" y="523.3396226415094"/>
      <point x="758.0" y="523.3396226415094" type="curve" smooth="yes"/>
      <point x="742.122641509434" y="523.3396226415094"/>
      <point x="732.9528301886793" y="526.0471698113207"/>
      <point x="727.3679245283018" y="532.6320754716982" type="curve"/>
      <point x="721.0754716981132" y="539.2169811320755"/>
      <point x="719.4905660377359" y="548.7547169811321"/>
      <point x="719.4905660377359" y="565.5094339622641" type="curve" smooth="yes"/>
      <point x="719.4905660377359" y="596.7735849056604" type="line" smooth="yes"/>
      <point x="719.4905660377359" y="626.4811320754717"/>
      <point x="726.9528301886793" y="639.9433962264151"/>
    </contour>
    <contour>
      <point x="654.311320754717" y="409.29245283018867" type="line"/>
      <point x="654.311320754717" y="377.89622641509436"/>
      <point x="654.311320754717" y="350.0377358490566"/>
      <point x="654.311320754717" y="318.64150943396226" type="curve" smooth="yes"/>
      <point x="654.311320754717" y="311.64150943396226"/>
      <point x="659.0188679245283" y="307.64150943396226"/>
      <point x="666.7264150943396" y="307.64150943396226" type="curve" smooth="yes"/>
      <point x="863.811320754717" y="307.64150943396226" type="line"/>
      <point x="863.811320754717" y="339.0377358490566"/>
      <point x="863.811320754717" y="366.89622641509436"/>
      <point x="863.811320754717" y="398.29245283018867" type="curve" smooth="yes"/>
      <point x="863.811320754717" y="405.29245283018867"/>
      <point x="859.1037735849056" y="409.29245283018867"/>
      <point x="851.3962264150944" y="409.29245283018867" type="curve" smooth="yes"/>
    </contour>
  </outline>
</glyph>
<glyph name="arrowleft" format="2">
  <advance width="800.0"/>
  <unicode hex="2190"/>
  <outline>
    <contour>
      <point x="262.45283018867923" y="372.66037735849056" type="curve"/>
      <point x="262.45283018867923" y="365.66037735849056"/>
      <point x="262.45283018867923" y="350.41509433962267"/>
      <point x="262.45283018867923" y="336.33962264150944" type="curve" smooth="yes"/>
      <point x="262.45283018867923" y="327.92452830188677"/>
      <point x="264.3301886792453" y="324.6320754716981"/>
      <point x="273.45283018867923" y="322.50943396226415" type="curve"/>
      <point x="296.7452830188679" y="317.97169811320754"/>
      <point x="517.8490566037735" y="287.91509433962267"/>
      <point x="525.8490566037735" y="287.91509433962267" type="curve"/>
      <point x="744.1509433962265" y="287.91509433962267" type="line"/>
      <point x="744.1509433962265" y="324.2641509433962"/>
      <point x="744.1509433962265" y="361.3207547169811"/>
      <point x="744.1509433962265" y="397.6698113207547" type="curve" smooth="yes"/>
      <point x="744.1509433962265" y="403.9622641509434"/>
      <point x="740.1509433962265" y="408.6698113207547"/>
      <point x="733.1509433962265" y="408.6698113207547" type="curve"/>
      <point x="525.8490566037735" y="408.6698113207547" type="line" smooth="yes"/>
      <point x="517.8490566037735" y="408.6698113207547"/>
      <point x="333.8679245283019" y="383.85849056603774"/>
    </contour>
    <contour>
      <point x="55.84905660377359" y="401.42452830188677" type="line"/>
      <point x="161.8490566037736" y="474.47169811320754"/>
      <point x="265.72641509433964" y="546.5188679245283"/>
      <point x="372.4339622641509" y="620.2735849056604" type="curve" smooth="yes"/>
      <point x="385.4339622641509" y="629.566037735849"/>
      <point x="388.4339622641509" y="630.566037735849"/>
      <point x="393.14150943396226" y="630.566037735849" type="curve" smooth="yes"/>
      <point x="397.8490566037736" y="630.566037735849"/>
      <point x="400.5566037735849" y="626.8584905660377"/>
      <point x="400.5566037735849" y="622.1509433962265" type="curve"/>
      <point x="400.5566037735849" y="585.9245283018868"/>
      <point x="400.5566037735849" y="550.8207547169811"/>
      <point x="400.5566037735849" y="514.5943396226415" type="curve"/>
      <point x="220.47169811320754" y="394.2169811320755"/>
      <point x="209.00943396226415" y="388.87735849056605"/>
      <point x="121.59433962264151" y="346.70754716981133" type="curve"/>
      <point x="145.37735849056605" y="384.12264150943395" type="line"/>
      <point x="145.37735849056605" y="313.29245283018867" type="line"/>
      <point x="121.59433962264151" y="350.70754716981133" type="line"/>
      <point x="209.00943396226415" y="308.5377358490566"/>
      <point x="220.47169811320754" y="303.1981132075472"/>
      <point x="400.5566037735849" y="182.82075471698113" type="curve"/>
      <point x="400.5566037735849" y="146.5943396226415"/>
      <point x="400.5566037735849" y="111.49056603773585"/>
      <point x="400.5566037735849" y="75.26415094339623" type="curve"/>
      <point x="400.5566037735849" y="70.55660377358491"/>
      <point x="397.8490566037736" y="66.84905660377359"/>
      <point x="393.14150943396226" y="66.84905660377359" type="curve" smooth="yes"/>
      <point x="388.4339622641509" y="66.84905660377359"/>
      <point x="385.4339622641509" y="67.84905660377359"/>
      <point x="372.4339622641509" y="77.14150943396227" type="curve" smooth="yes"/>
      <point x="270.4339622641509" y="147.18867924528303"/>
      <point x="125.68867924528303" y="245.53773584905662"/>
      <point x="70.38679245283019" y="285.8679245283019" type="curve" smooth="yes"/>
      <point x="57.84905660377359" y="294.99056603773585"/>
      <point x="55.84905660377359" y="298.8679245283019"/>
      <point x="55.84905660377359" y="311.57547169811323" type="curve" smooth="yes"/>
    </contour>
  </outline>
</glyph>
<glyph name="product" format="2">
  <advance width="600.0"/>
  <unicode hex="220F"/>
  <outline>
    <contour>
      <point x="38.77358490566038" y="700.0" type="line"/>
      <point x="38.77358490566038" y="665.7735849056604"/>
      <point x="38.77358490566038" y="631.0094339622642"/>
      <point x="38.77358490566038" y="596.7830188679245" type="curve" smooth="yes"/>
      <point x="38.77358490566038" y="589.7830188679245"/>
      <point x="42.77358490566038" y="585.7830188679245"/>
      <point x="49.77358490566038" y="585.7830188679245" type="curve" smooth="yes"/>
      <point x="561.2264150943396" y="585.7830188679245" type="line"/>
      <point x="561.2264150943396" y="620.0094339622642"/>
      <point x="561.2264150943396" y="654.7735849056604"/>
      <point x="561.2264150943396" y="689.0" type="curve" smooth="yes"/>
      <point x="561.2264150943396" y="696.0"/>
      <point x="557.2264150943396" y="700.0"/>
      <point x="550.2264150943396" y="700.0" type="curve"/>
    </contour>
    <contour>
      <point x="101.08490566037736" y="623.3962264150944" type="line"/>
      <point x="101.08490566037736" y="419.5"/>
      <point x="101.08490566037736" y="214.89622641509433"/>
      <point x="101.08490566037736" y="11.0" type="curve" smooth="yes"/>
      <point x="101.08490566037736" y="4.0"/>
      <point x="105.08490566037736" y="0.0"/>
      <point x="112.08490566037736" y="0.0" type="curve" smooth="yes"/>
      <point x="151.26415094339623" y="0.0"/>
      <point x="189.73584905660377" y="0.0"/>
      <point x="228.91509433962264" y="0.0" type="curve"/>
      <point x="228.91509433962264" y="190.45283018867926"/>
      <point x="228.91509433962264" y="380.9056603773585"/>
      <point x="228.91509433962264" y="571.3584905660377" type="curve" smooth="yes"/>
      <point x="228.91509433962264" y="584.8490566037735"/>
      <point x="228.03773584905662" y="601.5849056603773"/>
      <point x="221.89622641509433" y="623.3962264150944" type="curve"/>
      <point x="151.83018867924528" y="623.3962264150944" type="line"/>
    </contour>
    <contour>
      <point x="371.08490566037733" y="623.3962264150944" type="line"/>
      <point x="371.08490566037733" y="419.5"/>
      <point x="371.08490566037733" y="214.89622641509433"/>
      <point x="371.08490566037733" y="11.0" type="curve" smooth="yes"/>
      <point x="371.08490566037733" y="4.0"/>
      <point x="375.08490566037733" y="0.0"/>
      <point x="382.08490566037733" y="0.0" type="curve" smooth="yes"/>
      <point x="421.2641509433962" y="0.0"/>
      <point x="459.7358490566038" y="0.0"/>
      <point x="498.91509433962267" y="0.0" type="curve"/>
      <point x="498.91509433962267" y="32.70754716981132"/>
      <point x="498.91509433962267" y="66.41509433962264"/>
      <point x="498.91509433962267" y="100.0" type="curve" smooth="yes"/>
      <point x="498.91509433962267" y="259.2830188679245"/>
      <point x="498.91509433962267" y="418.4433962264151"/>
      <point x="498.91509433962267" y="577.7264150943396" type="curve" smooth="yes"/>
      <point x="498.91509433962267" y="593.0471698113207"/>
      <point x="498.3301886792453" y="608.6603773584906"/>
      <point x="493.066037735849" y="623.3962264150944" type="curve"/>
      <point x="420.29245283018867" y="623.3962264150944" type="line"/>
    </contour>
  </outline>
</glyph>
<glyph name="fi" format="2">
  <advance width="750.0"/>
  <unicode hex="FB01"/>
  <outline>
    <contour>
      <point x="25.849056603773587" y="515.3867924528302" type="line"/>
      <point x="25.849056603773587" y="481.8679245283019"/>
      <point x="25.849056603773587" y="454.1792452830189"/>
      <point x="25.849056603773587" y="420.66037735849056" type="curve" smooth="yes"/>
      <point x="25.849056603773587" y="413.66037735849056"/>
      <point x="29.849056603773587" y="409.66037735849056"/>
      <point x="36.84905660377359" y="409.66037735849056" type="curve" smooth="yes"/>
      <point x="555.2075471698113" y="409.66037735849056" type="line"/>
      <point x="555.2075471698113" y="443.1792452830189"/>
      <point x="555.2075471698113" y="470.8679245283019"/>
      <point x="555.2075471698113" y="504.3867924528302" type="curve" smooth="yes"/>
      <point x="555.2075471698113" y="511.3867924528302"/>
      <point x="551.2075471698113" y="515.3867924528302"/>
      <point x="544.2075471698113" y="515.3867924528302" type="curve" smooth="yes"/>
    </contour>
    <contour>
      <point x="234.76415094339623" y="12.0" type="curve"/>
      <point x="234.76415094339623" y="157.6509433962264"/>
      <point x="234.76415094339623" y="413.39622641509436"/>
      <point x="234.76415094339623" y="558.7547169811321" type="curve" smooth="yes"/>
      <point x="234.76415094339623" y="600.188679245283"/>
      <point x="240.5188679245283" y="627.1603773584906"/>
      <point x="256.3207547169811" y="642.9622641509434" type="curve" smooth="yes"/>
      <point x="270.95283018867923" y="656.5943396226415"/>
      <point x="288.0943396226415" y="662.3490566037735"/>
      <point x="324.60377358490564" y="662.3490566037735" type="curve" smooth="yes"/>
      <point x="361.6509433962264" y="662.3490566037735"/>
      <point x="392.8207547169811" y="655.4716981132076"/>
      <point x="428.99056603773585" y="644.4245283018868" type="curve"/>
      <point x="446.6509433962264" y="644.4245283018868" type="line"/>
      <point x="446.6509433962264" y="675.2358490566038"/>
      <point x="446.6509433962264" y="705.9245283018868"/>
      <point x="446.6509433962264" y="735.3207547169811" type="curve"/>
      <point x="446.6509433962264" y="738.6132075471698"/>
      <point x="445.6509433962264" y="741.3207547169811"/>
      <point x="443.6509433962264" y="743.3207547169811" type="curve" smooth="yes"/>
      <point x="433.35849056603774" y="753.6132075471698"/>
      <point x="396.2641509433962" y="768.0754716981132"/>
      <point x="318.16037735849056" y="768.0754716981132" type="curve" smooth="yes"/>
      <point x="181.17924528301887" y="768.0754716981132"/>
      <point x="114.00943396226415" y="696.5094339622641"/>
      <point x="114.00943396226415" y="558.4150943396227" type="curve" smooth="yes"/>
      <point x="114.00943396226415" y="385.6132075471698"/>
      <point x="114.00943396226415" y="273.50943396226415"/>
      <point x="114.00943396226415" y="100.70754716981132" type="curve"/>
      <point x="114.00943396226415" y="67.70754716981132"/>
      <point x="114.00943396226415" y="34.0"/>
      <point x="114.00943396226415" y="1.0" type="curve"/>
      <point x="151.77358490566039" y="1.0"/>
      <point x="186.0" y="1.0"/>
      <point x="223.76415094339623" y="1.0" type="curve"/>
      <point x="230.0566037735849" y="1.0"/>
      <point x="234.76415094339623" y="5.7075471698113205"/>
    </contour>
    <contour>
      <point x="508.1792452830189" y="788.2547169811321" type="curve"/>
      <point x="508.1792452830189" y="669.7264150943396" type="line" smooth="yes"/>
      <point x="508.1792452830189" y="662.7264150943396"/>
      <point x="512.1792452830189" y="658.7264150943396"/>
      <point x="519.1792452830189" y="658.7264150943396" type="curve" smooth="yes"/>
      <point x="565.5283018867924" y="658.7264150943396"/>
      <point x="619.6603773584906" y="658.7264150943396"/>
      <point x="666.0094339622641" y="658.7264150943396" type="curve"/>
      <point x="666.0094339622641" y="777.2547169811321" type="line" smooth="yes"/>
      <point x="666.0094339622641" y="784.2547169811321"/>
      <point x="662.0094339622641" y="788.2547169811321"/>
      <point x="655.0094339622641" y="788.2547169811321" type="curve" smooth="yes"/>
      <point x="608.6603773584906" y="788.2547169811321"/>
      <point x="554.5283018867924" y="788.2547169811321"/>
    </contour>
    <contour>
      <point x="521.7641509433962" y="515.3867924528302" type="curve"/>
      <point x="521.7641509433962" y="480.2830188679245"/>
      <point x="521.7641509433962" y="444.7641509433962"/>
      <point x="521.7641509433962" y="409.66037735849056" type="curve"/>
      <point x="521.7641509433962" y="318.1320754716981"/>
      <point x="521.7641509433962" y="101.11320754716982"/>
      <point x="521.7641509433962" y="11.0" type="curve" smooth="yes"/>
      <point x="521.7641509433962" y="4.0"/>
      <point x="525.7641509433962" y="0.0"/>
      <point x="532.7641509433962" y="0.0" type="curve" smooth="yes"/>
      <point x="571.9433962264151" y="0.0"/>
      <point x="603.3396226415094" y="0.0"/>
      <point x="642.5188679245283" y="0.0" type="curve"/>
      <point x="642.5188679245283" y="33.58490566037736"/>
      <point x="642.5188679245283" y="67.16981132075472"/>
      <point x="642.5188679245283" y="101.04716981132076" type="curve" smooth="yes"/>
      <point x="642.5188679245283" y="226.21698113207546"/>
      <point x="642.5188679245283" y="418.1320754716981"/>
      <point x="642.5188679245283" y="504.3867924528302" type="curve" smooth="yes"/>
      <point x="642.5188679245283" y="511.3867924528302"/>
      <point x="638.5188679245283" y="515.3867924528302"/>
      <point x="631.5188679245283" y="515.3867924528302" type="curve" smooth="yes"/>
      <point x="607.9528301886793" y="515.3867924528302"/>
      <point x="534.4245283018868" y="515.3867924528302"/>
    </contour>
  </outline>
</glyph>
<glyph name="L.sans" format="2">
  <advance width="550.0"/>
  <anchor x="116.78301886792453" y="711.0" name="top"/>
  <anchor x="283.4811320754717" y="-1.0" name="bottom"/>
  <anchor x="403.4811320754717" y="453.066037735849" name="dot"/>
  <anchor x="411.7830188679245" y="608.188679245283" name="caronslovak"/>
  <anchor x="134.93396226415095" y="361.9811320754717" name="slash"/>
  <outline>
    <contour>
      <point x="72.69811320754718" y="0.0" type="curve" smooth="yes"/>
      <point x="504.1509433962264" y="0.0" type="line"/>
      <point x="504.1509433962264" y="31.641509433962263"/>
      <point x="504.1509433962264" y="61.5"/>
      <point x="504.1509433962264" y="97.5566037735849" type="curve" smooth="yes"/>
      <point x="504.1509433962264" y="105.5566037735849"/>
      <point x="500.4433962264151" y="109.26415094339623"/>
      <point x="492.4433962264151" y="109.26415094339623" type="curve" smooth="yes"/>
      <point x="189.52830188679246" y="109.26415094339623" type="line"/>
      <point x="189.52830188679246" y="300.62264150943395"/>
      <point x="189.52830188679246" y="497.64150943396226"/>
      <point x="189.52830188679246" y="689.0" type="curve" smooth="yes"/>
      <point x="189.52830188679246" y="695.7075471698113"/>
      <point x="185.52830188679246" y="700.0"/>
      <point x="178.52830188679246" y="700.0" type="curve" smooth="yes"/>
      <point x="139.3490566037736" y="700.0"/>
      <point x="100.87735849056604" y="700.0"/>
      <point x="61.69811320754717" y="700.0" type="curve"/>
      <point x="61.69811320754717" y="671.2452830188679"/>
      <point x="61.69811320754717" y="642.9056603773585"/>
      <point x="61.69811320754717" y="614.1509433962265" type="curve" smooth="yes"/>
      <point x="61.69811320754717" y="442.4433962264151"/>
      <point x="61.69811320754717" y="220.72641509433961"/>
      <point x="61.69811320754717" y="11.0" type="curve" smooth="yes"/>
      <point x="61.69811320754717" y="4.0"/>
      <point x="65.69811320754718" y="0.0"/>
    </contour>
  </outline>
</glyph>
<glyph name="Z.sans" format="2">
  <advance width="600.0"/>
  <anchor x="300.0" y="711.0" name="top"/>
  <anchor x="302.70754716981133" y="0.0" name="bottom"/>
  <outline>
    <contour>
      <point x="550.6132075471698" y="0.0" type="line"/>
      <point x="550.6132075471698" y="34.64150943396226"/>
      <point x="550.6132075471698" y="68.5754716981132"/>
      <point x="550.6132075471698" y="103.21698113207546" type="curve" smooth="yes"/>
      <point x="550.6132075471698" y="110.21698113207546"/>
      <point x="546.6132075471698" y="114.21698113207546"/>
      <point x="539.6132075471698" y="114.21698113207546" type="curve" smooth="yes"/>
      <point x="336.41509433962267" y="114.21698113207546" type="line" smooth="yes"/>
      <point x="262.92452830188677" y="114.21698113207546"/>
      <point x="224.09433962264148" y="114.21698113207546"/>
      <point x="176.72641509433961" y="114.21698113207546" type="curve"/>
      <point x="176.72641509433961" y="131.58490566037736" type="line"/>
      <point x="216.09433962264148" y="159.60377358490564"/>
      <point x="243.0188679245283" y="185.66981132075472"/>
      <point x="282.2641509433962" y="234.37735849056605" type="curve" smooth="yes"/>
      <point x="374.54716981132077" y="353.0188679245283"/>
      <point x="469.29245283018867" y="472.12264150943395"/>
      <point x="547.0754716981132" y="569.4150943396227" type="curve"/>
      <point x="547.0754716981132" y="689.0" type="line"/>
      <point x="547.0754716981132" y="696.0"/>
      <point x="543.0754716981132" y="700.0"/>
      <point x="536.0754716981132" y="700.0" type="curve" smooth="yes"/>
      <point x="52.924528301886795" y="700.0" type="line"/>
      <point x="52.924528301886795" y="674.8018867924528"/>
      <point x="52.924528301886795" y="631.4245283018868"/>
      <point x="52.924528301886795" y="599.1981132075472" type="curve" smooth="yes"/>
      <point x="52.924528301886795" y="589.4905660377359"/>
      <point x="56.632075471698116" y="585.7830188679245"/>
      <point x="66.04716981132076" y="585.7830188679245" type="curve" smooth="yes"/>
      <point x="240.9811320754717" y="585.7830188679245" type="line" smooth="yes"/>
      <point x="298.2169811320755" y="585.7830188679245"/>
      <point x="332.7735849056604" y="585.7830188679245"/>
      <point x="424.1509433962264" y="585.7830188679245" type="curve"/>
      <point x="424.1509433962264" y="568.4150943396227" type="line"/>
      <point x="374.8301886792453" y="534.811320754717"/>
      <point x="354.811320754717" y="510.99056603773585"/>
      <point x="316.27358490566036" y="462.99056603773585" type="curve" smooth="yes"/>
      <point x="229.1320754716981" y="353.41509433962267"/>
      <point x="144.74528301886792" y="246.17924528301887"/>
      <point x="52.924528301886795" y="130.58490566037736" type="curve"/>
      <point x="52.924528301886795" y="11.0" type="line" smooth="yes"/>
      <point x="52.924528301886795" y="4.0"/>
      <point x="56.924528301886795" y="0.0"/>
      <point x="63.924528301886795" y="0.0" type="curve" smooth="yes"/>
    </contour>
  </outline>
</glyph>
<glyph name="ampersand_ampersand.code" format="2">
  <advance width="1200.0"/>
  <outline>
    <contour>
      <point x="301.3490566037736" y="451.4433962264151" type="curve" smooth="yes"/>
      <point x="271.7452830188679" y="492.4339622641509"/>
      <point x="266.0377358490566" y="507.311320754717"/>
      <point x="266.0377358490566" y="532.3584905660377" type="curve" smooth="yes"/>
      <point x="266.0377358490566" y="551.6981132075472"/>
      <point x="272.25471698113205" y="564.377358490566"/>
      <point x="283.9339622641509" y="575.1792452830189" type="curve"/>
      <point x="299.3207547169811" y="589.1037735849056"/>
      <point x="332.07547169811323" y="599.566037735849"/>
      <point x="372.92452830188677" y="599.566037735849" type="curve" smooth="yes"/>
      <point x="424.8018867924528" y="599.566037735849"/>
      <point x="463.1698113207547" y="592.3962264150944"/>
      <point x="507.7830188679245" y="577.2264150943396" type="curve"/>
      <point x="525.4433962264151" y="577.2264150943396" type="line"/>
      <point x="525.4433962264151" y="607.9150943396227"/>
      <point x="525.4433962264151" y="638.8962264150944"/>
      <point x="525.4433962264151" y="669.5849056603773" type="curve" smooth="yes"/>
      <point x="525.4433962264151" y="674.0"/>
      <point x="524.7358490566038" y="676.7075471698113"/>
      <point x="522.4433962264151" y="679.0" type="curve" smooth="yes"/>
      <point x="511.27358490566036" y="690.1698113207547"/>
      <point x="449.12264150943395" y="709.0"/>
      <point x="371.50943396226415" y="709.0" type="curve" smooth="yes"/>
      <point x="222.6509433962264" y="709.0"/>
      <point x="144.28301886792454" y="638.6603773584906"/>
      <point x="144.28301886792454" y="545.0943396226415" type="curve" smooth="yes"/>
      <point x="144.28301886792454" y="529.4811320754717" type="line" smooth="yes"/>
      <point x="144.28301886792454" y="475.6509433962264"/>
      <point x="159.69811320754718" y="445.99056603773585"/>
      <point x="225.89622641509433" y="356.3301886792453" type="curve" smooth="yes"/>
      <point x="303.2641509433962" y="250.79245283018867"/>
      <point x="398.933962264151" y="118.47169811320754"/>
      <point x="429.3018867924528" y="76.68867924528303" type="curve" smooth="yes"/>
      <point x="469.91509433962267" y="19.245283018867923"/>
      <point x="525.1415094339623" y="-10.0"/>
      <point x="604.566037735849" y="-10.0" type="curve" smooth="yes"/>
      <point x="659.188679245283" y="-10.0"/>
      <point x="723.377358490566" y="-0.09433962264150964"/>
      <point x="739.7924528301887" y="11.933962264150942" type="curve" smooth="yes"/>
      <point x="745.6698113207547" y="15.471698113207545"/>
      <point x="747.2547169811321" y="20.886792452830186"/>
      <point x="747.2547169811321" y="27.179245283018865" type="curve" smooth="yes"/>
      <point x="747.2547169811321" y="55.0377358490566"/>
      <point x="747.2547169811321" y="85.01886792452831"/>
      <point x="747.2547169811321" y="116.41509433962264" type="curve"/>
      <point x="729.5943396226415" y="116.41509433962264" type="line"/>
      <point x="694.6603773584906" y="105.0943396226415"/>
      <point x="646.0377358490566" y="99.43396226415095"/>
      <point x="611.1037735849056" y="99.43396226415095" type="curve" smooth="yes"/>
      <point x="572.7830188679245" y="99.43396226415095"/>
      <point x="550.5377358490566" y="114.38679245283018"/>
      <point x="525.4622641509434" y="146.16981132075472" type="curve" smooth="yes"/>
      <point x="498.0660377358491" y="181.81132075471697"/>
      <point x="408.00943396226415" y="305.5660377358491"/>
    </contour>
    <contour>
      <point x="920.433962264151" y="67.49056603773585" type="curve" smooth="yes"/>
      <point x="958.2169811320755" y="15.0"/>
      <point x="996.4622641509434" y="-2.9245283018867934"/>
      <point x="1051.8301886792453" y="-2.9245283018867934" type="curve" smooth="yes"/>
      <point x="1071.0754716981132" y="-2.9245283018867934"/>
      <point x="1096.3962264150944" y="-2.9245283018867934"/>
      <point x="1108.566037735849" y="-2.9245283018867934" type="curve" smooth="yes"/>
      <point x="1116.566037735849" y="-2.9245283018867934"/>
      <point x="1119.566037735849" y="1.0754716981132066"/>
      <point x="1119.566037735849" y="8.075471698113207" type="curve" smooth="yes"/>
      <point x="1119.566037735849" y="42.30188679245283"/>
      <point x="1119.566037735849" y="76.52830188679245"/>
      <point x="1119.566037735849" y="110.75471698113208" type="curve"/>
      <point x="1101.9056603773586" y="110.75471698113208" type="line"/>
      <point x="1091.0283018867924" y="110.75471698113208"/>
      <point x="1078.4433962264152" y="110.75471698113208"/>
      <point x="1067.566037735849" y="110.75471698113208" type="curve" smooth="yes"/>
      <point x="1042.688679245283" y="110.75471698113208"/>
      <point x="1031.7641509433963" y="115.80188679245282"/>
      <point x="1011.6415094339623" y="141.21698113207546" type="curve" smooth="yes"/>
      <point x="984.2452830188679" y="176.85849056603774"/>
      <point x="890.6509433962265" y="305.5660377358491"/>
      <point x="783.9905660377358" y="451.4433962264151" type="curve" smooth="yes"/>
      <point x="754.3867924528302" y="492.4339622641509"/>
      <point x="748.6792452830189" y="507.311320754717"/>
      <point x="748.6792452830189" y="532.3584905660377" type="curve" smooth="yes"/>
      <point x="748.6792452830189" y="551.6981132075472"/>
      <point x="754.8962264150944" y="564.377358490566"/>
      <point x="766.5754716981132" y="575.1792452830189" type="curve"/>
      <point x="781.9622641509434" y="589.1037735849056"/>
      <point x="808.0094339622641" y="599.566037735849"/>
      <point x="847.1037735849056" y="599.566037735849" type="curve" smooth="yes"/>
      <point x="901.2735849056604" y="599.566037735849"/>
      <point x="943.0754716981132" y="592.3962264150944"/>
      <point x="988.3962264150944" y="577.2264150943396" type="curve"/>
      <point x="1006.0566037735849" y="577.2264150943396" type="line"/>
      <point x="1006.0566037735849" y="607.9150943396227"/>
      <point x="1006.0566037735849" y="638.8962264150944"/>
      <point x="1006.0566037735849" y="667.4622641509434" type="curve" smooth="yes"/>
      <point x="1006.0566037735849" y="674.0"/>
      <point x="1005.3490566037735" y="676.7075471698113"/>
      <point x="1003.0566037735849" y="679.0" type="curve" smooth="yes"/>
      <point x="991.8867924528302" y="690.1698113207547"/>
      <point x="926.811320754717" y="709.0"/>
      <point x="848.5188679245283" y="709.0" type="curve" smooth="yes"/>
      <point x="699.8301886792453" y="709.0"/>
      <point x="628.3396226415094" y="638.6603773584906"/>
      <point x="628.3396226415094" y="545.0943396226415" type="curve" smooth="yes"/>
      <point x="628.3396226415094" y="529.4811320754717" type="line" smooth="yes"/>
      <point x="628.3396226415094" y="475.6509433962264"/>
      <point x="643.7547169811321" y="445.99056603773585"/>
      <point x="709.9528301886793" y="356.3301886792453" type="curve" smooth="yes"/>
      <point x="786.6132075471698" y="252.20754716981133"/>
      <point x="890.7735849056604" y="108.56603773584905"/>
    </contour>
    <contour>
      <point x="250.4245283018868" y="-9.0" type="curve" smooth="yes"/>
      <point x="329.91509433962267" y="-9.0"/>
      <point x="377.08490566037733" y="25.32075471698113"/>
      <point x="407.7169811320755" y="79.98113207547169" type="curve"/>
      <point x="457.5" y="79.98113207547169" type="line"/>
      <point x="399.933962264151" y="151.33018867924528" type="line"/>
      <point x="359.54716981132077" y="109.94339622641509"/>
      <point x="329.188679245283" y="95.60377358490565"/>
      <point x="281.14150943396226" y="95.60377358490565" type="curve" smooth="yes"/>
      <point x="228.76415094339623" y="95.60377358490565"/>
      <point x="203.62264150943395" y="123.79245283018868"/>
      <point x="203.62264150943395" y="176.9811320754717" type="curve" smooth="yes"/>
      <point x="203.62264150943395" y="233.66037735849056" type="line" smooth="yes"/>
      <point x="203.62264150943395" y="281.35849056603774"/>
      <point x="231.95283018867926" y="314.83962264150944"/>
      <point x="283.52830188679246" y="319.08490566037733" type="curve"/>
      <point x="208.99056603773585" y="405.2641509433962" type="line"/>
      <point x="208.99056603773585" y="359.77358490566036" type="line"/>
      <point x="137.0188679245283" y="345.14150943396226"/>
      <point x="82.86792452830188" y="294.5566037735849"/>
      <point x="82.86792452830188" y="200.72641509433961" type="curve" smooth="yes"/>
      <point x="82.86792452830188" y="147.97169811320754" type="line" smooth="yes"/>
      <point x="82.86792452830188" y="47.58490566037736"/>
      <point x="147.69811320754718" y="-9.0"/>
    </contour>
    <contour>
      <point x="485.1132075471698" y="179.17924528301887" type="line"/>
      <point x="509.87735849056605" y="271.72641509433964"/>
      <point x="536.8018867924528" y="292.79245283018867"/>
      <point x="607.4811320754717" y="292.79245283018867" type="curve" smooth="yes"/>
      <point x="670.0943396226415" y="292.79245283018867"/>
      <point x="717.7264150943396" y="287.2358490566038"/>
      <point x="789.5094339622641" y="276.41509433962267" type="curve"/>
      <point x="686.7452830188679" y="427.3490566037736" type="line"/>
      <point x="686.7452830188679" y="368.39622641509436" type="line"/>
      <point x="651.2830188679245" y="388.5660377358491"/>
      <point x="619.8207547169811" y="397.1509433962264"/>
      <point x="583.622641509434" y="397.1509433962264" type="curve" smooth="yes"/>
      <point x="567.7169811320755" y="397.1509433962264" type="line" smooth="yes"/>
      <point x="501.6981132075472" y="397.1509433962264"/>
      <point x="465.14150943396226" y="356.9811320754717"/>
      <point x="461.60377358490564" y="256.3679245283019" type="curve"/>
      <point x="433.14150943396226" y="256.3679245283019" type="line"/>
    </contour>
    <contour>
      <point x="1088.1603773584907" y="440.6132075471698" type="curve" smooth="yes"/>
      <point x="1053.933962264151" y="440.6132075471698"/>
      <point x="1019.0" y="440.6132075471698"/>
      <point x="984.7735849056604" y="440.6132075471698" type="curve"/>
      <point x="984.7735849056604" y="403.6132075471698"/>
      <point x="984.7735849056604" y="369.70754716981133"/>
      <point x="984.7735849056604" y="329.7830188679245" type="curve" smooth="yes"/>
      <point x="984.7735849056604" y="281.0377358490566"/>
      <point x="973.7547169811321" y="255.75471698113208"/>
      <point x="937.8301886792453" y="223.56603773584905" type="curve"/>
      <point x="988.9811320754717" y="137.43396226415095" type="line"/>
      <point x="988.9811320754717" y="191.16981132075472" type="line"/>
      <point x="1071.0377358490566" y="233.35849056603774"/>
      <point x="1099.1603773584907" y="274.99056603773585"/>
      <point x="1099.1603773584907" y="366.1320754716981" type="curve" smooth="yes"/>
      <point x="1099.1603773584907" y="429.6132075471698" type="line" smooth="yes"/>
      <point x="1099.1603773584907" y="436.6132075471698"/>
      <point x="1095.867924528302" y="440.6132075471698"/>
    </contour>
  </outline>
</glyph>
<glyph name="ampersand_ampersand_ampersand.code" format="2">
  <advance width="1800.0"/>
  <outline>
    <contour>
      <point x="351.3490566037736" y="451.4433962264151" type="curve" smooth="yes"/>
      <point x="321.7452830188679" y="492.4339622641509"/>
      <point x="316.0377358490566" y="507.311320754717"/>
      <point x="316.0377358490566" y="532.3584905660377" type="curve" smooth="yes"/>
      <point x="316.0377358490566" y="551.6981132075472"/>
      <point x="322.25471698113205" y="564.377358490566"/>
      <point x="333.9339622641509" y="575.1792452830189" type="curve"/>
      <point x="349.3207547169811" y="589.1037735849056"/>
      <point x="382.07547169811323" y="599.566037735849"/>
      <point x="422.92452830188677" y="599.566037735849" type="curve" smooth="yes"/>
      <point x="474.8018867924528" y="599.566037735849"/>
      <point x="513.1698113207547" y="592.3962264150944"/>
      <point x="557.7830188679245" y="577.2264150943396" type="curve"/>
      <point x="575.4433962264151" y="577.2264150943396" type="line"/>
      <point x="575.4433962264151" y="607.9150943396227"/>
      <point x="575.4433962264151" y="638.8962264150944"/>
      <point x="575.4433962264151" y="669.5849056603773" type="curve" smooth="yes"/>
      <point x="575.4433962264151" y="674.0"/>
      <point x="574.7358490566038" y="676.7075471698113"/>
      <point x="572.4433962264151" y="679.0" type="curve" smooth="yes"/>
      <point x="561.2735849056604" y="690.1698113207547"/>
      <point x="499.12264150943395" y="709.0"/>
      <point x="421.50943396226415" y="709.0" type="curve" smooth="yes"/>
      <point x="272.6509433962264" y="709.0"/>
      <point x="194.28301886792454" y="638.6603773584906"/>
      <point x="194.28301886792454" y="545.0943396226415" type="curve" smooth="yes"/>
      <point x="194.28301886792454" y="529.4811320754717" type="line" smooth="yes"/>
      <point x="194.28301886792454" y="475.6509433962264"/>
      <point x="209.69811320754718" y="445.99056603773585"/>
      <point x="275.89622641509436" y="356.3301886792453" type="curve" smooth="yes"/>
      <point x="353.2641509433962" y="250.79245283018867"/>
      <point x="448.933962264151" y="118.47169811320754"/>
      <point x="479.3018867924528" y="76.68867924528303" type="curve" smooth="yes"/>
      <point x="519.9150943396227" y="19.245283018867923"/>
      <point x="575.1415094339623" y="-10.0"/>
      <point x="654.566037735849" y="-10.0" type="curve" smooth="yes"/>
      <point x="709.188679245283" y="-10.0"/>
      <point x="773.377358490566" y="-0.09433962264150964"/>
      <point x="789.7924528301887" y="11.933962264150942" type="curve" smooth="yes"/>
      <point x="795.6698113207547" y="15.471698113207545"/>
      <point x="797.2547169811321" y="20.886792452830186"/>
      <point x="797.2547169811321" y="27.179245283018865" type="curve" smooth="yes"/>
      <point x="797.2547169811321" y="55.0377358490566"/>
      <point x="797.2547169811321" y="85.01886792452831"/>
      <point x="797.2547169811321" y="116.41509433962264" type="curve"/>
      <point x="779.5943396226415" y="116.41509433962264" type="line"/>
      <point x="744.6603773584906" y="105.0943396226415"/>
      <point x="696.0377358490566" y="99.43396226415095"/>
      <point x="661.1037735849056" y="99.43396226415095" type="curve" smooth="yes"/>
      <point x="622.7830188679245" y="99.43396226415095"/>
      <point x="600.5377358490566" y="114.38679245283018"/>
      <point x="575.4622641509434" y="146.16981132075472" type="curve" smooth="yes"/>
      <point x="548.066037735849" y="181.81132075471697"/>
      <point x="458.00943396226415" y="305.5660377358491"/>
    </contour>
    <contour>
      <point x="300.42452830188677" y="-9.0" type="curve" smooth="yes"/>
      <point x="379.91509433962267" y="-9.0"/>
      <point x="427.08490566037733" y="25.32075471698113"/>
      <point x="457.7169811320755" y="79.98113207547169" type="curve"/>
      <point x="507.5" y="79.98113207547169" type="line"/>
      <point x="449.933962264151" y="151.33018867924528" type="line"/>
      <point x="409.54716981132077" y="109.94339622641509"/>
      <point x="379.188679245283" y="95.60377358490565"/>
      <point x="331.14150943396226" y="95.60377358490565" type="curve" smooth="yes"/>
      <point x="278.7641509433962" y="95.60377358490565"/>
      <point x="253.62264150943395" y="123.79245283018868"/>
      <point x="253.62264150943395" y="176.9811320754717" type="curve" smooth="yes"/>
      <point x="253.62264150943395" y="233.66037735849056" type="line" smooth="yes"/>
      <point x="253.62264150943395" y="281.35849056603774"/>
      <point x="281.95283018867923" y="314.83962264150944"/>
      <point x="333.52830188679246" y="319.08490566037733" type="curve"/>
      <point x="258.99056603773585" y="405.2641509433962" type="line"/>
      <point x="258.99056603773585" y="359.77358490566036" type="line"/>
      <point x="187.0188679245283" y="345.14150943396226"/>
      <point x="132.8679245283019" y="294.5566037735849"/>
      <point x="132.8679245283019" y="200.72641509433961" type="curve" smooth="yes"/>
      <point x="132.8679245283019" y="147.97169811320754" type="line" smooth="yes"/>
      <point x="132.8679245283019" y="47.58490566037736"/>
      <point x="197.69811320754718" y="-9.0"/>
    </contour>
    <contour>
      <point x="535.1132075471698" y="179.17924528301887" type="line"/>
      <point x="559.877358490566" y="271.72641509433964"/>
      <point x="586.8018867924528" y="292.79245283018867"/>
      <point x="657.4811320754717" y="292.79245283018867" type="curve" smooth="yes"/>
      <point x="720.0943396226415" y="292.79245283018867"/>
      <point x="767.7264150943396" y="287.2358490566038"/>
      <point x="839.5094339622641" y="276.41509433962267" type="curve"/>
      <point x="736.7452830188679" y="427.3490566037736" type="line"/>
      <point x="736.7452830188679" y="368.39622641509436" type="line"/>
      <point x="701.2830188679245" y="388.5660377358491"/>
      <point x="669.8207547169811" y="397.1509433962264"/>
      <point x="633.622641509434" y="397.1509433962264" type="curve" smooth="yes"/>
      <point x="617.7169811320755" y="397.1509433962264" type="line" smooth="yes"/>
      <point x="551.6981132075472" y="397.1509433962264"/>
      <point x="515.1415094339623" y="356.9811320754717"/>
      <point x="511.60377358490564" y="256.3679245283019" type="curve"/>
      <point x="483.14150943396226" y="256.3679245283019" type="line"/>
    </contour>
    <contour>
      <point x="1451.9528301886792" y="67.49056603773585" type="curve" smooth="yes"/>
      <point x="1489.7358490566037" y="15.0"/>
      <point x="1527.9811320754718" y="-2.9245283018867934"/>
      <point x="1583.3490566037735" y="-2.9245283018867934" type="curve" smooth="yes"/>
      <point x="1602.5943396226414" y="-2.9245283018867934"/>
      <point x="1627.9150943396226" y="-2.9245283018867934"/>
      <point x="1640.0849056603774" y="-2.9245283018867934" type="curve" smooth="yes"/>
      <point x="1648.0849056603774" y="-2.9245283018867934"/>
      <point x="1651.0849056603774" y="1.0754716981132066"/>
      <point x="1651.0849056603774" y="8.075471698113207" type="curve" smooth="yes"/>
      <point x="1651.0849056603774" y="42.30188679245283"/>
      <point x="1651.0849056603774" y="76.52830188679245"/>
      <point x="1651.0849056603774" y="110.75471698113208" type="curve"/>
      <point x="1633.4245283018868" y="110.75471698113208" type="line"/>
      <point x="1622.5471698113208" y="110.75471698113208"/>
      <point x="1609.9622641509434" y="110.75471698113208"/>
      <point x="1599.0849056603774" y="110.75471698113208" type="curve" smooth="yes"/>
      <point x="1574.2075471698113" y="110.75471698113208"/>
      <point x="1563.2830188679245" y="115.80188679245282"/>
      <point x="1543.1603773584907" y="141.21698113207546" type="curve" smooth="yes"/>
      <point x="1515.7641509433963" y="176.85849056603774"/>
      <point x="1422.1698113207547" y="305.5660377358491"/>
      <point x="1315.5094339622642" y="451.4433962264151" type="curve" smooth="yes"/>
      <point x="1285.9056603773586" y="492.4339622641509"/>
      <point x="1280.198113207547" y="507.311320754717"/>
      <point x="1280.198113207547" y="532.3584905660377" type="curve" smooth="yes"/>
      <point x="1280.198113207547" y="551.6981132075472"/>
      <point x="1286.4150943396226" y="564.377358490566"/>
      <point x="1298.0943396226414" y="575.1792452830189" type="curve"/>
      <point x="1313.4811320754716" y="589.1037735849056"/>
      <point x="1339.5283018867924" y="599.566037735849"/>
      <point x="1378.622641509434" y="599.566037735849" type="curve" smooth="yes"/>
      <point x="1432.7924528301887" y="599.566037735849"/>
      <point x="1474.5943396226414" y="592.3962264150944"/>
      <point x="1519.9150943396226" y="577.2264150943396" type="curve"/>
      <point x="1537.5754716981132" y="577.2264150943396" type="line"/>
      <point x="1537.5754716981132" y="607.9150943396227"/>
      <point x="1537.5754716981132" y="638.8962264150944"/>
      <point x="1537.5754716981132" y="667.4622641509434" type="curve" smooth="yes"/>
      <point x="1537.5754716981132" y="674.0"/>
      <point x="1536.867924528302" y="676.7075471698113"/>
      <point x="1534.5754716981132" y="679.0" type="curve" smooth="yes"/>
      <point x="1523.4056603773586" y="690.1698113207547"/>
      <point x="1458.3301886792453" y="709.0"/>
      <point x="1380.0377358490566" y="709.0" type="curve" smooth="yes"/>
      <point x="1231.3490566037735" y="709.0"/>
      <point x="1159.8584905660377" y="638.6603773584906"/>
      <point x="1159.8584905660377" y="545.0943396226415" type="curve" smooth="yes"/>
      <point x="1159.8584905660377" y="529.4811320754717" type="line" smooth="yes"/>
      <point x="1159.8584905660377" y="475.6509433962264"/>
      <point x="1175.2735849056603" y="445.99056603773585"/>
      <point x="1241.4716981132076" y="356.3301886792453" type="curve" smooth="yes"/>
      <point x="1318.132075471698" y="252.20754716981133"/>
      <point x="1422.2924528301887" y="108.56603773584905"/>
    </contour>
    <contour>
      <point x="1016.6320754716982" y="179.17924528301887" type="line"/>
      <point x="1041.3962264150944" y="271.72641509433964"/>
      <point x="1068.3207547169811" y="292.79245283018867"/>
      <point x="1139.0" y="292.79245283018867" type="curve" smooth="yes"/>
      <point x="1201.6132075471698" y="292.79245283018867"/>
      <point x="1249.245283018868" y="287.2358490566038"/>
      <point x="1321.0283018867924" y="276.41509433962267" type="curve"/>
      <point x="1218.2641509433963" y="427.3490566037736" type="line"/>
      <point x="1218.2641509433963" y="368.39622641509436" type="line"/>
      <point x="1182.801886792453" y="388.5660377358491"/>
      <point x="1151.3396226415093" y="397.1509433962264"/>
      <point x="1115.1415094339623" y="397.1509433962264" type="curve" smooth="yes"/>
      <point x="1099.2358490566037" y="397.1509433962264" type="line" smooth="yes"/>
      <point x="1033.2169811320755" y="397.1509433962264"/>
      <point x="996.6603773584906" y="356.9811320754717"/>
      <point x="993.122641509434" y="256.3679245283019" type="curve"/>
      <point x="964.6603773584906" y="256.3679245283019" type="line"/>
    </contour>
    <contour>
      <point x="1619.6792452830189" y="440.6132075471698" type="curve" smooth="yes"/>
      <point x="1585.4528301886792" y="440.6132075471698"/>
      <point x="1550.5188679245282" y="440.6132075471698"/>
      <point x="1516.2924528301887" y="440.6132075471698" type="curve"/>
      <point x="1516.2924528301887" y="403.6132075471698"/>
      <point x="1516.2924528301887" y="369.70754716981133"/>
      <point x="1516.2924528301887" y="329.7830188679245" type="curve" smooth="yes"/>
      <point x="1516.2924528301887" y="281.0377358490566"/>
      <point x="1505.2735849056603" y="255.75471698113208"/>
      <point x="1469.3490566037735" y="223.56603773584905" type="curve"/>
      <point x="1520.5" y="137.43396226415095" type="line"/>
      <point x="1520.5" y="191.16981132075472" type="line"/>
      <point x="1602.5566037735848" y="233.35849056603774"/>
      <point x="1630.6792452830189" y="274.99056603773585"/>
      <point x="1630.6792452830189" y="366.1320754716981" type="curve" smooth="yes"/>
      <point x="1630.6792452830189" y="429.6132075471698" type="line" smooth="yes"/>
      <point x="1630.6792452830189" y="436.6132075471698"/>
      <point x="1627.3867924528302" y="440.6132075471698"/>
    </contour>
    <contour>
      <point x="963.3584905660377" y="76.68867924528303" type="curve" smooth="yes"/>
      <point x="1003.9716981132076" y="19.245283018867923"/>
      <point x="1058.4905660377358" y="-10.0"/>
      <point x="1137.9150943396226" y="-10.0" type="curve" smooth="yes"/>
      <point x="1192.5377358490566" y="-10.0"/>
      <point x="1255.311320754717" y="-0.09433962264150964"/>
      <point x="1271.7264150943397" y="11.933962264150942" type="curve" smooth="yes"/>
      <point x="1277.6037735849056" y="15.471698113207545"/>
      <point x="1279.188679245283" y="20.886792452830186"/>
      <point x="1279.188679245283" y="27.179245283018865" type="curve" smooth="yes"/>
      <point x="1279.188679245283" y="55.0377358490566"/>
      <point x="1279.188679245283" y="85.01886792452831"/>
      <point x="1279.188679245283" y="116.41509433962264" type="curve"/>
      <point x="1261.5283018867924" y="116.41509433962264" type="line"/>
      <point x="1226.5943396226414" y="105.0943396226415"/>
      <point x="1177.9716981132076" y="99.43396226415095"/>
      <point x="1143.0377358490566" y="99.43396226415095" type="curve" smooth="yes"/>
      <point x="1104.7169811320755" y="99.43396226415095"/>
      <point x="1082.4716981132076" y="114.38679245283018"/>
      <point x="1057.3962264150944" y="146.16981132075472" type="curve" smooth="yes"/>
      <point x="1030.0" y="181.81132075471697"/>
      <point x="940.6509433962265" y="305.5660377358491"/>
      <point x="833.9905660377358" y="451.4433962264151" type="curve" smooth="yes"/>
      <point x="804.3867924528302" y="492.4339622641509"/>
      <point x="798.6792452830189" y="507.311320754717"/>
      <point x="798.6792452830189" y="532.3584905660377" type="curve" smooth="yes"/>
      <point x="798.6792452830189" y="551.6981132075472"/>
      <point x="804.8962264150944" y="564.377358490566"/>
      <point x="816.5754716981132" y="575.1792452830189" type="curve"/>
      <point x="831.9622641509434" y="589.1037735849056"/>
      <point x="858.0094339622641" y="599.566037735849"/>
      <point x="897.1037735849056" y="599.566037735849" type="curve" smooth="yes"/>
      <point x="951.2735849056604" y="599.566037735849"/>
      <point x="993.0754716981132" y="592.3962264150944"/>
      <point x="1038.3962264150944" y="577.2264150943396" type="curve"/>
      <point x="1056.0566037735848" y="577.2264150943396" type="line"/>
      <point x="1056.0566037735848" y="607.9150943396227"/>
      <point x="1056.0566037735848" y="638.8962264150944"/>
      <point x="1056.0566037735848" y="667.4622641509434" type="curve" smooth="yes"/>
      <point x="1056.0566037735848" y="674.0"/>
      <point x="1055.3490566037735" y="676.7075471698113"/>
      <point x="1053.0566037735848" y="679.0" type="curve" smooth="yes"/>
      <point x="1041.8867924528302" y="690.1698113207547"/>
      <point x="976.811320754717" y="709.0"/>
      <point x="898.5188679245283" y="709.0" type="curve" smooth="yes"/>
      <point x="749.8301886792453" y="709.0"/>
      <point x="678.3396226415094" y="638.6603773584906"/>
      <point x="678.3396226415094" y="545.0943396226415" type="curve" smooth="yes"/>
      <point x="678.3396226415094" y="529.4811320754717" type="line" smooth="yes"/>
      <point x="678.3396226415094" y="475.6509433962264"/>
      <point x="693.7547169811321" y="445.99056603773585"/>
      <point x="759.9528301886793" y="356.3301886792453" type="curve" smooth="yes"/>
      <point x="836.6132075471698" y="252.20754716981133"/>
      <point x="932.2830188679245" y="120.59433962264151"/>
    </contour>
  </outline>
</glyph>
<glyph name="bracketleft.case" format="2">
  <advance width="500.0"/>
  <outline>
    <contour>
      <point x="429.41509433962267" y="-40.29245283018868" type="line"/>
      <point x="429.41509433962267" y="-5.358490566037737"/>
      <point x="429.41509433962267" y="28.867924528301884"/>
      <point x="429.41509433962267" y="63.80188679245282" type="curve" smooth="yes"/>
      <point x="429.41509433962267" y="70.80188679245282"/>
      <point x="425.41509433962267" y="74.80188679245282"/>
      <point x="418.41509433962267" y="74.80188679245282" type="curve"/>
      <point x="248.09433962264148" y="74.80188679245282" type="line"/>
      <point x="248.09433962264148" y="294.7358490566038"/>
      <point x="248.09433962264148" y="384.97169811320754"/>
      <point x="248.09433962264148" y="604.9056603773585" type="curve"/>
      <point x="429.41509433962267" y="604.9056603773585" type="line"/>
      <point x="429.41509433962267" y="641.4245283018868"/>
      <point x="429.41509433962267" y="671.8207547169811"/>
      <point x="429.41509433962267" y="709.0" type="curve" smooth="yes"/>
      <point x="429.41509433962267" y="716.0"/>
      <point x="425.41509433962267" y="720.0"/>
      <point x="418.41509433962267" y="720.0" type="curve"/>
      <point x="169.9056603773585" y="720.0" type="line" smooth="yes"/>
      <point x="153.12264150943398" y="720.0"/>
      <point x="137.04716981132074" y="720.0"/>
      <point x="120.26415094339623" y="720.0" type="curve"/>
      <point x="120.26415094339623" y="685.9245283018868"/>
      <point x="120.26415094339623" y="651.1415094339623"/>
      <point x="120.26415094339623" y="617.066037735849" type="curve" smooth="yes"/>
      <point x="120.26415094339623" y="358.04716981132077"/>
      <point x="120.26415094339623" y="229.72641509433961"/>
      <point x="120.26415094339623" y="-29.29245283018868" type="curve" smooth="yes"/>
      <point x="120.26415094339623" y="-36.29245283018868"/>
      <point x="124.26415094339623" y="-40.29245283018868"/>
      <point x="131.26415094339623" y="-40.29245283018868" type="curve" smooth="yes"/>
    </contour>
  </outline>
</glyph>
<glyph name="brevecomb.case" format="2">
  <anchor x="0.0" y="711.7075471698113" name="_top"/>
  <anchor x="0.0" y="899.0754716981132" name="top"/>
  <anchor x="0.0" y="916.0754716981132" name="hook"/>
  <outline>
    <contour>
      <point x="99.28301886792453" y="945.6132075471698" type="curve"/>
      <point x="80.06603773584905" y="899.4716981132076"/>
      <point x="50.26415094339623" y="882.8396226415094"/>
      <point x="0.0" y="882.8396226415094" type="curve"/>
      <point x="-50.26415094339623" y="882.8396226415094"/>
      <point x="-80.06603773584905" y="899.4716981132076"/>
      <point x="-99.28301886792453" y="945.6132075471698" type="curve"/>
      <point x="-124.43396226415095" y="945.6132075471698"/>
      <point x="-149.0" y="945.6132075471698"/>
      <point x="-174.1509433962264" y="945.6132075471698" type="curve" smooth="yes"/>
      <point x="-187.1509433962264" y="945.6132075471698"/>
      <point x="-190.1509433962264" y="941.1509433962265"/>
      <point x="-187.27358490566039" y="925.4433962264151" type="curve" smooth="yes"/>
      <point x="-173.47169811320754" y="851.3679245283018"/>
      <point x="-107.93396226415095" y="786.6037735849056"/>
      <point x="-21.150943396226413" y="786.6037735849056" type="curve" smooth="yes"/>
      <point x="21.150943396226413" y="786.6037735849056" type="line" smooth="yes"/>
      <point x="107.93396226415095" y="786.6037735849056"/>
      <point x="173.47169811320754" y="851.3679245283018"/>
      <point x="187.27358490566039" y="925.4433962264151" type="curve" smooth="yes"/>
      <point x="190.1509433962264" y="941.1509433962265"/>
      <point x="187.1509433962264" y="945.6132075471698"/>
      <point x="174.1509433962264" y="945.6132075471698" type="curve" smooth="yes"/>
      <point x="149.0" y="945.6132075471698"/>
      <point x="124.43396226415095" y="945.6132075471698"/>
    </contour>
  </outline>
</glyph>
<glyph name="check" format="2">
  <advance width="600.0"/>
  <outline>
    <contour>
      <point x="362.37735849056605" y="126.0" type="line"/>
      <point x="443.9811320754717" y="307.4339622641509"/>
      <point x="521.9811320754717" y="487.7830188679245"/>
      <point x="600.0" y="670.0" type="curve"/>
      <point x="584.0" y="670.0"/>
      <point x="515.3962264150944" y="670.0"/>
      <point x="505.39622641509436" y="670.0" type="curve" smooth="yes"/>
      <point x="494.39622641509436" y="670.0"/>
      <point x="486.688679245283" y="668.0"/>
      <point x="482.39622641509436" y="657.0" type="curve" smooth="yes"/>
      <point x="407.99056603773585" y="473.7641509433962"/>
      <point x="352.6792452830189" y="339.62264150943395"/>
      <point x="291.5377358490566" y="199.52830188679246" type="curve"/>
      <point x="324.0" y="215.52830188679246" type="line"/>
      <point x="256.0" y="215.52830188679246" type="line"/>
      <point x="288.4622641509434" y="199.52830188679246" type="line"/>
      <point x="264.7358490566038" y="271.91509433962267"/>
      <point x="238.25471698113208" y="353.27358490566036"/>
      <point x="213.82075471698113" y="431.07547169811323" type="curve"/>
      <point x="198.82075471698113" y="431.07547169811323"/>
      <point x="132.75471698113208" y="431.07547169811323"/>
      <point x="117.75471698113208" y="431.07547169811323" type="curve" smooth="yes"/>
      <point x="113.75471698113208" y="431.07547169811323"/>
      <point x="110.75471698113208" y="429.07547169811323"/>
      <point x="110.75471698113208" y="425.07547169811323" type="curve" smooth="yes"/>
      <point x="110.75471698113208" y="421.07547169811323"/>
      <point x="110.75471698113208" y="419.07547169811323"/>
      <point x="116.33962264150944" y="403.3679245283019" type="curve" smooth="yes"/>
      <point x="145.5566037735849" y="322.12264150943395"/>
      <point x="180.99056603773585" y="221.53773584905662"/>
      <point x="210.66981132075472" y="138.41509433962264" type="curve" smooth="yes"/>
      <point x="214.25471698113208" y="129.41509433962264"/>
      <point x="221.54716981132077" y="126.0"/>
      <point x="232.1320754716981" y="126.0" type="curve" smooth="yes"/>
    </contour>
  </outline>
</glyph>
<glyph name="checkboxchecked" format="2">
  <advance width="600.0"/>
  <outline>
    <contour>
      <point x="362.37735849056605" y="126.0" type="line"/>
      <point x="443.9811320754717" y="307.4339622641509"/>
      <point x="521.9811320754717" y="487.7830188679245"/>
      <point x="600.0" y="670.0" type="curve"/>
      <point x="584.0" y="670.0"/>
      <point x="515.3962264150944" y="670.0"/>
      <point x="505.39622641509436" y="670.0" type="curve" smooth="yes"/>
      <point x="494.39622641509436" y="670.0"/>
      <point x="486.688679245283" y="668.0"/>
      <point x="482.39622641509436" y="657.0" type="curve" smooth="yes"/>
      <point x="407.99056603773585" y="473.7641509433962"/>
      <point x="352.6792452830189" y="339.62264150943395"/>
      <point x="291.5377358490566" y="199.52830188679246" type="curve"/>
      <point x="324.0" y="215.52830188679246" type="line"/>
      <point x="256.0" y="215.52830188679246" type="line"/>
      <point x="288.4622641509434" y="199.52830188679246" type="line"/>
      <point x="264.7358490566038" y="271.91509433962267"/>
      <point x="238.25471698113208" y="353.27358490566036"/>
      <point x="213.82075471698113" y="431.07547169811323" type="curve"/>
      <point x="198.82075471698113" y="431.07547169811323"/>
      <point x="132.75471698113208" y="431.07547169811323"/>
      <point x="117.75471698113208" y="431.07547169811323" type="curve" smooth="yes"/>
      <point x="113.75471698113208" y="431.07547169811323"/>
      <point x="110.75471698113208" y="429.07547169811323"/>
      <point x="110.75471698113208" y="425.07547169811323" type="curve" smooth="yes"/>
      <point x="110.75471698113208" y="421.07547169811323"/>
      <point x="110.75471698113208" y="419.07547169811323"/>
      <point x="116.33962264150944" y="403.3679245283019" type="curve" smooth="yes"/>
      <point x="145.5566037735849" y="322.12264150943395"/>
      <point x="180.99056603773585" y="221.53773584905662"/>
      <point x="210.66981132075472" y="138.41509433962264" type="curve" smooth="yes"/>
      <point x="214.25471698113208" y="129.41509433962264"/>
      <point x="221.54716981132077" y="126.0"/>
      <point x="232.1320754716981" y="126.0" type="curve" smooth="yes"/>
    </contour>
    <contour>
      <point x="12.924528301886793" y="570.0" type="line"/>
      <point x="12.924528301886793" y="26.924528301886795" type="line" smooth="yes"/>
      <point x="12.924528301886793" y="7.924528301886793"/>
      <point x="20.924528301886795" y="2.9245283018867934"/>
      <point x="36.924528301886795" y="2.9245283018867934" type="curve" smooth="yes"/>
      <point x="587.0754716981132" y="2.9245283018867934" type="line"/>
      <point x="587.0754716981132" y="552.9245283018868" type="line"/>
      <point x="531.1415094339623" y="423.5377358490566" type="line" smooth="yes"/>
      <point x="519.1415094339623" y="397.29245283018867"/>
      <point x="515.8490566037735" y="385.58490566037733"/>
      <point x="515.8490566037735" y="359.58490566037733" type="curve" smooth="yes"/>
      <point x="515.8490566037735" y="294.58490566037733"/>
      <point x="515.8490566037735" y="162.46226415094338"/>
      <point x="515.8490566037735" y="74.15094339622641" type="curve"/>
      <point x="84.15094339622641" y="74.15094339622641" type="line"/>
      <point x="84.15094339622641" y="207.1509433962264"/>
      <point x="84.15094339622641" y="374.77358490566036"/>
      <point x="84.15094339622641" y="498.77358490566036" type="curve"/>
      <point x="502.0" y="498.77358490566036" type="line"/>
      <point x="502.0" y="570.0" type="line"/>
      <point x="473.0" y="570.0" type="line"/>
      <point x="442.0" y="570.0"/>
      <point x="407.0" y="570.0"/>
      <point x="370.0" y="570.0" type="curve" smooth="yes"/>
    </contour>
  </outline>
</glyph>
<glyph name="dollar_braceleft.code" format="2">
  <advance width="1200.0"/>
  <outline>
    <contour>
      <point x="952.4528301886793" y="154.66037735849056" type="curve" smooth="yes"/>
      <point x="952.4528301886793" y="220.3679245283019"/>
      <point x="919.4056603773585" y="269.8301886792453"/>
      <point x="839.8207547169811" y="292.04716981132077" type="curve"/>
      <point x="839.8207547169811" y="307.95283018867923" type="line"/>
      <point x="917.2358490566038" y="333.41509433962267"/>
      <point x="952.4528301886793" y="376.33962264150944"/>
      <point x="952.4528301886793" y="444.04716981132077" type="curve" smooth="yes"/>
      <point x="952.4528301886793" y="522.5566037735849"/>
      <point x="899.0471698113207" y="553.433962264151"/>
      <point x="893.3867924528302" y="593.1603773584906" type="curve" smooth="yes"/>
      <point x="892.6792452830189" y="599.6698113207547"/>
      <point x="892.6792452830189" y="606.5943396226415"/>
      <point x="892.6792452830189" y="613.1037735849056" type="curve"/>
      <point x="895.311320754717" y="637.566037735849"/>
      <point x="905.6509433962265" y="644.9056603773585"/>
      <point x="931.4056603773585" y="644.9056603773585" type="curve" smooth="yes"/>
      <point x="971.1320754716982" y="644.9056603773585"/>
      <point x="1010.1509433962265" y="644.9056603773585"/>
      <point x="1049.877358490566" y="644.9056603773585" type="curve"/>
      <point x="1067.0754716981132" y="644.9056603773585" type="line"/>
      <point x="1067.0754716981132" y="679.8396226415094"/>
      <point x="1067.0754716981132" y="714.066037735849"/>
      <point x="1067.0754716981132" y="749.0" type="curve" smooth="yes"/>
      <point x="1067.0754716981132" y="756.0"/>
      <point x="1063.0754716981132" y="760.0"/>
      <point x="1056.0754716981132" y="760.0" type="curve"/>
      <point x="882.0" y="760.0" type="line" smooth="yes"/>
      <point x="800.0471698113207" y="760.0"/>
      <point x="771.9245283018868" y="697.7547169811321"/>
      <point x="771.9245283018868" y="659.9245283018868" type="curve" smooth="yes"/>
      <point x="771.9245283018868" y="615.122641509434" type="line" smooth="yes"/>
      <point x="771.9245283018868" y="527.0188679245283"/>
      <point x="831.6981132075472" y="507.8018867924528"/>
      <point x="831.6981132075472" y="444.58490566037733" type="curve" smooth="yes"/>
      <point x="831.6981132075472" y="388.27358490566036"/>
      <point x="769.6320754716982" y="357.54716981132077"/>
      <point x="657.9056603773585" y="357.54716981132077" type="curve" smooth="yes"/>
      <point x="519.4150943396227" y="357.54716981132077" type="line"/>
      <point x="519.4150943396227" y="242.45283018867926" type="line"/>
      <point x="657.9056603773585" y="242.45283018867926" type="line" smooth="yes"/>
      <point x="769.6320754716982" y="242.45283018867926"/>
      <point x="831.6981132075472" y="208.31132075471697"/>
      <point x="831.6981132075472" y="154.12264150943398" type="curve" smooth="yes"/>
      <point x="831.6981132075472" y="90.90566037735849"/>
      <point x="771.9245283018868" y="71.98113207547169"/>
      <point x="771.9245283018868" y="-16.12264150943396" type="curve" smooth="yes"/>
      <point x="771.9245283018868" y="-60.924528301886795" type="line" smooth="yes"/>
      <point x="771.9245283018868" y="-98.75471698113208"/>
      <point x="800.0471698113207" y="-161.0"/>
      <point x="882.0" y="-161.0" type="curve" smooth="yes"/>
      <point x="1056.0754716981132" y="-161.0" type="line" smooth="yes"/>
      <point x="1063.0754716981132" y="-161.0"/>
      <point x="1067.0754716981132" y="-157.0"/>
      <point x="1067.0754716981132" y="-150.0" type="curve" smooth="yes"/>
      <point x="1067.0754716981132" y="-115.06603773584905"/>
      <point x="1067.0754716981132" y="-80.83962264150944"/>
      <point x="1067.0754716981132" y="-45.9056603773585" type="curve"/>
      <point x="1049.877358490566" y="-45.9056603773585" type="line"/>
      <point x="1010.1509433962265" y="-45.9056603773585"/>
      <point x="971.1320754716982" y="-45.9056603773585"/>
      <point x="931.4056603773585" y="-45.9056603773585" type="curve" smooth="yes"/>
      <point x="905.6509433962265" y="-45.9056603773585"/>
      <point x="895.311320754717" y="-38.56603773584906"/>
      <point x="892.6792452830189" y="-14.103773584905667" type="curve"/>
      <point x="892.6792452830189" y="-5.471698113207552"/>
      <point x="893.3867924528302" y="2.160377358490564"/>
      <point x="894.8018867924528" y="10.79245283018868" type="curve" smooth="yes"/>
      <point x="903.2924528301887" y="48.39622641509434"/>
      <point x="952.4528301886793" y="79.68867924528303"/>
    </contour>
    <contour>
      <point x="359.29245283018867" y="-18.830188679245282" type="curve" smooth="yes"/>
      <point x="516.6415094339623" y="-18.830188679245282"/>
      <point x="614.5943396226415" y="59.367924528301884"/>
      <point x="614.5943396226415" y="169.10377358490567" type="curve" smooth="yes"/>
      <point x="614.5943396226415" y="217.4433962264151" type="line" smooth="yes"/>
      <point x="614.5943396226415" y="268.49056603773585"/>
      <point x="609.3301886792453" y="315.5660377358491"/>
      <point x="599.6792452830189" y="357.54716981132077" type="curve"/>
      <point x="560.5754716981132" y="360.7641509433962"/>
      <point x="528.2358490566038" y="369.9811320754717"/>
      <point x="455.1792452830189" y="391.7641509433962" type="curve" smooth="yes"/>
      <point x="359.5943396226415" y="420.47169811320754" type="line" smooth="yes"/>
      <point x="279.9433962264151" y="444.10377358490564"/>
      <point x="258.72641509433964" y="460.9056603773585"/>
      <point x="258.72641509433964" y="504.50943396226415" type="curve" smooth="yes"/>
      <point x="258.72641509433964" y="526.6037735849056" type="line" smooth="yes"/>
      <point x="258.72641509433964" y="568.6415094339623"/>
      <point x="302.37735849056605" y="601.9056603773585"/>
      <point x="388.6132075471698" y="601.9056603773585" type="curve" smooth="yes"/>
      <point x="467.7358490566038" y="601.9056603773585"/>
      <point x="521.9811320754717" y="587.8584905660377"/>
      <point x="574.1509433962265" y="549.0094339622642" type="curve"/>
      <point x="591.811320754717" y="549.0094339622642" type="line"/>
      <point x="591.811320754717" y="578.7452830188679"/>
      <point x="591.811320754717" y="626.3396226415094"/>
      <point x="591.811320754717" y="663.3962264150944" type="curve" smooth="yes"/>
      <point x="591.811320754717" y="665.9811320754717"/>
      <point x="590.811320754717" y="669.3962264150944"/>
      <point x="588.811320754717" y="671.3962264150944" type="curve" smooth="yes"/>
      <point x="557.3018867924528" y="702.9056603773585"/>
      <point x="481.0566037735849" y="719.122641509434"/>
      <point x="396.39622641509436" y="719.122641509434" type="curve" smooth="yes"/>
      <point x="243.29245283018867" y="719.122641509434"/>
      <point x="144.6320754716981" y="640.9245283018868"/>
      <point x="144.6320754716981" y="531.188679245283" type="curve" smooth="yes"/>
      <point x="144.6320754716981" y="487.0188679245283" type="line" smooth="yes"/>
      <point x="144.6320754716981" y="424.92452830188677"/>
      <point x="182.72641509433961" y="355.8207547169811"/>
      <point x="313.8018867924528" y="315.99056603773585" type="curve" smooth="yes"/>
      <point x="408.97169811320754" y="286.99056603773585" type="line" smooth="yes"/>
      <point x="490.4811320754717" y="262.1132075471698"/>
      <point x="503.0377358490566" y="242.18867924528303"/>
      <point x="503.0377358490566" y="200.78301886792454" type="curve" smooth="yes"/>
      <point x="503.0377358490566" y="173.68867924528303" type="line" smooth="yes"/>
      <point x="503.0377358490566" y="131.6509433962264"/>
      <point x="460.0943396226415" y="98.38679245283018"/>
      <point x="367.07547169811323" y="98.38679245283018" type="curve" smooth="yes"/>
      <point x="277.66037735849056" y="98.38679245283018"/>
      <point x="217.95283018867926" y="117.67924528301887"/>
      <point x="157.66037735849056" y="162.52830188679246" type="curve"/>
      <point x="140.0" y="162.52830188679246" type="line"/>
      <point x="140.0" y="124.30188679245282"/>
      <point x="140.0" y="79.12264150943396"/>
      <point x="140.0" y="48.43396226415094" type="curve" smooth="yes"/>
      <point x="140.0" y="45.55660377358491"/>
      <point x="141.0" y="42.14150943396226"/>
      <point x="143.0" y="40.14150943396226" type="curve" smooth="yes"/>
      <point x="180.21698113207546" y="2.9245283018867934"/>
      <point x="264.33962264150944" y="-18.830188679245282"/>
    </contour>
    <contour>
      <point x="430.3301886792453" y="467.4433962264151" type="curve"/>
      <point x="442.2830188679245" y="584.3490566037735"/>
      <point x="454.99056603773585" y="745.8301886792453"/>
      <point x="465.4811320754717" y="839.0471698113207" type="curve" smooth="yes"/>
      <point x="466.4811320754717" y="848.0471698113207"/>
      <point x="461.4811320754717" y="852.0471698113207"/>
      <point x="455.4811320754717" y="852.0471698113207" type="curve" smooth="yes"/>
      <point x="417.5" y="852.0471698113207"/>
      <point x="401.7169811320755" y="852.0471698113207"/>
      <point x="363.3207547169811" y="852.0471698113207" type="curve"/>
      <point x="363.3207547169811" y="820.5094339622641"/>
      <point x="363.3207547169811" y="768.5"/>
      <point x="363.3207547169811" y="736.9622641509434" type="curve" smooth="yes"/>
      <point x="363.3207547169811" y="669.5849056603773"/>
      <point x="363.3207547169811" y="576.1792452830189"/>
      <point x="363.3207547169811" y="495.64150943396226" type="curve" smooth="yes"/>
      <point x="363.3207547169811" y="487.9339622641509"/>
      <point x="366.6132075471698" y="483.22641509433964"/>
      <point x="374.3207547169811" y="481.811320754717" type="curve" smooth="yes"/>
      <point x="382.3207547169811" y="479.22641509433964"/>
      <point x="410.00943396226415" y="472.27358490566036"/>
    </contour>
    <contour>
      <point x="335.33962264150944" y="239.4811320754717" type="curve"/>
      <point x="322.6792452830189" y="120.69811320754718"/>
      <point x="308.5566037735849" y="-52.188679245283026"/>
      <point x="297.35849056603774" y="-146.11320754716982" type="curve" smooth="yes"/>
      <point x="296.35849056603774" y="-156.52830188679246"/>
      <point x="301.35849056603774" y="-160.52830188679246"/>
      <point x="307.35849056603774" y="-160.52830188679246" type="curve" smooth="yes"/>
      <point x="344.58490566037733" y="-160.52830188679246"/>
      <point x="364.12264150943395" y="-160.52830188679246"/>
      <point x="402.3490566037736" y="-160.52830188679246" type="curve"/>
      <point x="402.3490566037736" y="-133.74528301886792"/>
      <point x="402.3490566037736" y="-42.9811320754717"/>
      <point x="402.3490566037736" y="-13.858490566037736" type="curve" smooth="yes"/>
      <point x="402.3490566037736" y="45.68867924528302"/>
      <point x="402.3490566037736" y="150.27358490566039"/>
      <point x="402.3490566037736" y="209.52830188679246" type="curve" smooth="yes"/>
      <point x="402.3490566037736" y="219.23584905660377"/>
      <point x="399.3490566037736" y="223.11320754716982"/>
      <point x="391.3490566037736" y="225.11320754716982" type="curve" smooth="yes"/>
      <point x="382.3490566037736" y="227.4056603773585"/>
      <point x="354.24528301886795" y="234.35849056603774"/>
    </contour>
  </outline>
</glyph>
<glyph name="dotlessi.italic" format="2">
  <advance width="350.0"/>
  <anchor x="176.41509433962264" y="546.6132075471698" name="top"/>
  <anchor x="190.6320754716981" y="-1.0" name="bottom"/>
  <anchor x="321.0" y="11.0" name="ogonek"/>
  <anchor x="177.41509433962264" y="584.0" name="hook"/>
  <outline>
    <contour>
      <point x="30.0" y="535.9056603773585" type="curve"/>
      <point x="30.0" y="504.0943396226415"/>
      <point x="30.0" y="464.5"/>
      <point x="30.0" y="432.688679245283" type="curve" smooth="yes"/>
      <point x="30.0" y="425.688679245283"/>
      <point x="34.0" y="421.688679245283"/>
      <point x="41.0" y="421.688679245283" type="curve" smooth="yes"/>
      <point x="67.26415094339623" y="421.688679245283"/>
      <point x="92.63207547169812" y="421.688679245283"/>
      <point x="107.5754716981132" y="421.688679245283" type="curve"/>
      <point x="116.0377358490566" y="421.688679245283" type="line"/>
      <point x="116.0377358490566" y="329.8679245283019"/>
      <point x="116.0377358490566" y="243.49056603773585"/>
      <point x="116.0377358490566" y="138.68867924528303" type="curve" smooth="yes"/>
      <point x="116.0377358490566" y="49.90566037735849"/>
      <point x="159.4811320754717" y="0.0"/>
      <point x="254.38679245283018" y="0.0" type="curve" smooth="yes"/>
      <point x="285.0" y="0.0"/>
      <point x="291.8018867924528" y="0.0"/>
      <point x="309.0" y="0.0" type="curve" smooth="yes"/>
      <point x="316.0" y="0.0"/>
      <point x="320.0" y="4.0"/>
      <point x="320.0" y="11.0" type="curve" smooth="yes"/>
      <point x="320.0" y="42.81132075471698"/>
      <point x="320.0" y="82.40566037735849"/>
      <point x="320.0" y="114.21698113207546" type="curve"/>
      <point x="302.33962264150944" y="114.21698113207546" type="line"/>
      <point x="287.0" y="114.21698113207546"/>
      <point x="286.66037735849056" y="114.21698113207546"/>
      <point x="276.4433962264151" y="114.21698113207546" type="curve" smooth="yes"/>
      <point x="261.22641509433964" y="114.21698113207546"/>
      <point x="252.17924528301887" y="116.50943396226414"/>
      <point x="245.4245283018868" y="123.26415094339623" type="curve" smooth="yes"/>
      <point x="238.37735849056605" y="130.31132075471697"/>
      <point x="236.79245283018867" y="139.82075471698113"/>
      <point x="236.79245283018867" y="154.66981132075472" type="curve" smooth="yes"/>
      <point x="236.79245283018867" y="277.5"/>
      <point x="236.79245283018867" y="399.1509433962264"/>
      <point x="236.79245283018867" y="524.9056603773585" type="curve" smooth="yes"/>
      <point x="236.79245283018867" y="531.9056603773585"/>
      <point x="232.79245283018867" y="535.9056603773585"/>
      <point x="225.79245283018867" y="535.9056603773585" type="curve" smooth="yes"/>
      <point x="133.24528301886792" y="535.9056603773585"/>
      <point x="80.80188679245283" y="535.9056603773585"/>
    </contour>
  </outline>
</glyph>
<glyph name="dotlessj.italic" format="2">
  <advance width="350.0"/>
  <anchor x="251.9245283018868" y="546.9056603773585" name="top"/>
  <outline>
    <contour>
      <point x="22.924528301886795" y="535.9056603773585" type="curve"/>
      <point x="22.924528301886795" y="504.0943396226415"/>
      <point x="22.924528301886795" y="473.2830188679245"/>
      <point x="22.924528301886795" y="441.47169811320754" type="curve"/>
      <point x="22.924528301886795" y="434.7641509433962"/>
      <point x="27.21698113207547" y="430.47169811320754"/>
      <point x="33.924528301886795" y="430.47169811320754" type="curve" smooth="yes"/>
      <point x="80.30566037735849" y="430.47169811320754"/>
      <point x="124.82735849056604" y="430.47169811320754"/>
      <point x="170.76415094339623" y="430.47169811320754" type="curve"/>
      <point x="192.54716981132077" y="430.47169811320754" type="line"/>
      <point x="192.54716981132077" y="264.5030017152632"/>
      <point x="192.54716981132077" y="108.06603773584905"/>
      <point x="192.54716981132077" y="-57.783018867924525" type="curve"/>
      <point x="192.54716981132077" y="-82.79245283018868"/>
      <point x="182.23584905660377" y="-94.27358490566039"/>
      <point x="159.1509433962264" y="-94.27358490566039" type="curve"/>
      <point x="150.00943396226415" y="-94.27358490566039"/>
      <point x="138.2830188679245" y="-92.39622641509435"/>
      <point x="131.35849056603774" y="-89.93396226415095" type="curve"/>
      <point x="131.35849056603774" y="-71.13207547169812"/>
      <point x="131.35849056603774" y="-26.57547169811321"/>
      <point x="131.35849056603774" y="14.981132075471699" type="curve"/>
      <point x="131.35849056603774" y="32.64150943396226" type="line"/>
      <point x="99.25471698113208" y="32.64150943396226"/>
      <point x="66.02830188679245" y="32.64150943396226"/>
      <point x="33.924528301886795" y="32.64150943396226" type="curve" smooth="yes"/>
      <point x="26.924528301886795" y="32.64150943396226"/>
      <point x="22.924528301886795" y="28.641509433962263"/>
      <point x="22.924528301886795" y="21.641509433962263" type="curve" smooth="yes"/>
      <point x="22.924528301886795" y="16.641509433962263"/>
      <point x="22.924528301886795" y="-99.97169811320755"/>
      <point x="22.924528301886795" y="-161.33962264150944" type="curve"/>
      <point x="22.924528301886795" y="-164.6320754716981"/>
      <point x="23.924528301886795" y="-167.33962264150944"/>
      <point x="25.924528301886795" y="-169.33962264150944" type="curve" smooth="yes"/>
      <point x="41.339622641509436" y="-184.75471698113208"/>
      <point x="103.36792452830188" y="-200.0"/>
      <point x="152.78301886792454" y="-200.0" type="curve"/>
      <point x="265.3018867924528" y="-200.0"/>
      <point x="314.00943396226415" y="-146.58490566037736"/>
      <point x="314.00943396226415" y="-30.18867924528302" type="curve"/>
      <point x="314.00943396226415" y="189.1132075471698"/>
      <point x="313.3018867924528" y="352.22492552136134"/>
      <point x="313.3018867924528" y="524.9056603773585" type="curve" smooth="yes"/>
      <point x="313.3018867924528" y="531.6132075471698"/>
      <point x="309.00943396226415" y="535.9056603773585"/>
      <point x="302.3018867924528" y="535.9056603773585" type="curve" smooth="yes"/>
      <point x="209.17610062894056" y="535.9056603773585"/>
      <point x="116.48756432247264" y="535.9056603773585"/>
    </contour>
  </outline>
</glyph>
<glyph name="e.italic" format="2">
  <advance width="600.0"/>
  <anchor x="307.0" y="546.9056603773585" name="top"/>
  <anchor x="513.9528301886793" y="33.14150943396226" name="ogonek"/>
  <anchor x="316.95283018867923" y="-1.0" name="bottom"/>
  <anchor x="309.0" y="584.0" name="hook"/>
  <outline>
    <contour>
      <point x="311.41509433962267" y="547.3207547169811" type="curve" smooth="yes"/>
      <point x="169.5754716981132" y="547.3207547169811"/>
      <point x="70.84905660377359" y="463.72641509433964"/>
      <point x="70.84905660377359" y="322.39622641509436" type="curve" smooth="yes"/>
      <point x="70.84905660377359" y="211.41509433962264" type="line" smooth="yes"/>
      <point x="70.84905660377359" y="70.02830188679245"/>
      <point x="161.23584905660377" y="-11.415094339622641"/>
      <point x="335.02830188679246" y="-11.415094339622641" type="curve" smooth="yes"/>
      <point x="425.6132075471698" y="-11.415094339622641"/>
      <point x="494.5660377358491" y="8.339622641509434"/>
      <point x="512.0754716981132" y="25.849056603773587" type="curve" smooth="yes"/>
      <point x="514.7830188679245" y="28.556603773584907"/>
      <point x="515.7830188679245" y="30.849056603773587"/>
      <point x="515.7830188679245" y="33.84905660377359" type="curve" smooth="yes"/>
      <point x="515.7830188679245" y="63.95283018867924"/>
      <point x="515.7830188679245" y="95.76415094339623"/>
      <point x="515.7830188679245" y="125.16037735849056" type="curve"/>
      <point x="498.12264150943395" y="125.16037735849056" type="line"/>
      <point x="449.49056603773585" y="104.48113207547169"/>
      <point x="405.29245283018867" y="94.31132075471697"/>
      <point x="337.49056603773585" y="94.31132075471697" type="curve" smooth="yes"/>
      <point x="280.5188679245283" y="94.31132075471697"/>
      <point x="242.54716981132074" y="104.23584905660377"/>
      <point x="219.03773584905662" y="127.74528301886792" type="curve" smooth="yes"/>
      <point x="200.94339622641508" y="145.83962264150944"/>
      <point x="191.60377358490564" y="173.56603773584905"/>
      <point x="191.60377358490564" y="210.58490566037736" type="curve" smooth="yes"/>
      <point x="191.60377358490564" y="326.47169811320754" type="line" smooth="yes"/>
      <point x="191.60377358490564" y="410.6509433962264"/>
      <point x="232.4245283018868" y="445.1320754716981"/>
      <point x="311.41509433962267" y="445.1320754716981" type="curve" smooth="yes"/>
      <point x="348.5566037735849" y="445.1320754716981"/>
      <point x="375.4056603773585" y="436.6698113207547"/>
      <point x="392.5" y="419.57547169811323" type="curve" smooth="yes"/>
      <point x="406.83962264150944" y="405.2358490566038"/>
      <point x="413.59433962264154" y="386.4339622641509"/>
      <point x="413.59433962264154" y="361.87735849056605" type="curve" smooth="yes"/>
      <point x="413.59433962264154" y="317.5660377358491"/>
      <point x="384.2547169811321" y="291.42452830188677"/>
      <point x="333.14150943396226" y="291.42452830188677" type="curve" smooth="yes"/>
      <point x="270.3867924528302" y="291.42452830188677"/>
      <point x="206.73584905660377" y="291.42452830188677"/>
      <point x="123.27358490566037" y="291.42452830188677" type="curve"/>
      <point x="123.27358490566037" y="206.87735849056602" type="line"/>
      <point x="170.69811320754718" y="214.0" type="line"/>
      <point x="236.49056603773585" y="214.0"/>
      <point x="305.33962264150944" y="214.0"/>
      <point x="353.87735849056605" y="214.0" type="curve" smooth="yes"/>
      <point x="470.5943396226415" y="214.0"/>
      <point x="532.2264150943396" y="262.92452830188677"/>
      <point x="532.2264150943396" y="358.12264150943395" type="curve"/>
      <point x="532.2264150943396" y="374.3679245283019" type="line" smooth="yes"/>
      <point x="532.2264150943396" y="475.3679245283019"/>
      <point x="450.85849056603774" y="547.3207547169811"/>
    </contour>
  </outline>
</glyph>
<glyph name="equal_greater.code" format="2">
  <advance width="1200.0"/>
  <outline>
    <contour>
      <point x="541.8679245283018" y="299.4339622641509" type="curve" smooth="yes"/>
      <point x="167.1320754716981" y="299.4339622641509" type="line"/>
      <point x="167.1320754716981" y="263.08490566037733"/>
      <point x="167.1320754716981" y="231.68867924528303"/>
      <point x="167.1320754716981" y="195.33962264150944" type="curve" smooth="yes"/>
      <point x="167.1320754716981" y="188.33962264150944"/>
      <point x="171.1320754716981" y="184.33962264150944"/>
      <point x="178.1320754716981" y="184.33962264150944" type="curve"/>
      <point x="482.11320754716985" y="184.33962264150944" type="line" smooth="yes"/>
      <point x="557.4622641509434" y="184.33962264150944"/>
      <point x="600.6509433962265" y="187.04716981132074"/>
      <point x="732.3490566037735" y="216.1509433962264" type="curve"/>
      <point x="732.3490566037735" y="169.50943396226415" type="line"/>
      <point x="932.0094339622641" y="299.4339622641509" type="line"/>
      <point x="809.5094339622641" y="299.4339622641509"/>
      <point x="647.2641509433962" y="299.4339622641509"/>
    </contour>
    <contour>
      <point x="1036.5566037735848" y="263.74528301886795" type="curve"/>
      <point x="1036.5566037735848" y="317.1698113207547"/>
      <point x="1036.5566037735848" y="360.5943396226415"/>
      <point x="1036.5566037735848" y="414.0188679245283" type="curve" smooth="yes"/>
      <point x="1036.5566037735848" y="424.8490566037736"/>
      <point x="1031.7264150943397" y="431.6792452830189"/>
      <point x="1022.7264150943396" y="437.38679245283015" type="curve" smooth="yes"/>
      <point x="913.8018867924528" y="513.6320754716982"/>
      <point x="786.188679245283" y="605.0283018867924"/>
      <point x="680.2169811320755" y="681.3207547169811" type="curve" smooth="yes"/>
      <point x="660.2169811320755" y="695.7358490566038"/>
      <point x="639.9245283018868" y="710.1509433962265"/>
      <point x="619.9245283018868" y="722.8584905660377" type="curve" smooth="yes"/>
      <point x="605.8018867924528" y="731.9811320754717"/>
      <point x="596.5566037735849" y="728.1509433962265"/>
      <point x="596.5566037735849" y="714.0283018867924" type="curve" smooth="yes"/>
      <point x="596.5566037735849" y="671.433962264151"/>
      <point x="596.5566037735849" y="642.4528301886793"/>
      <point x="596.5566037735849" y="601.2735849056604" type="curve"/>
      <point x="721.8962264150944" y="514.3207547169811"/>
      <point x="855.1132075471698" y="421.3679245283019"/>
      <point x="961.8584905660377" y="350.9811320754717" type="curve"/>
      <point x="947.0754716981132" y="382.0566037735849" type="line"/>
      <point x="947.0754716981132" y="312.1509433962264" type="line"/>
      <point x="966.3962264150944" y="348.39622641509436" type="line"/>
      <point x="855.9433962264151" y="272.5943396226415"/>
      <point x="707.2075471698113" y="171.9056603773585"/>
      <point x="595.8490566037735" y="96.56603773584905" type="curve"/>
      <point x="595.8490566037735" y="59.632075471698116"/>
      <point x="595.8490566037735" y="19.330188679245282"/>
      <point x="595.8490566037735" y="-17.603773584905653" type="curve" smooth="yes"/>
      <point x="595.8490566037735" y="-24.433962264150942"/>
      <point x="598.5566037735849" y="-28.141509433962263"/>
      <point x="603.9716981132076" y="-28.141509433962263" type="curve" smooth="yes"/>
      <point x="610.0943396226415" y="-28.141509433962263"/>
      <point x="614.5094339622641" y="-27.433962264150942"/>
      <point x="627.5094339622641" y="-18.72641509433962" type="curve" smooth="yes"/>
      <point x="676.2924528301887" y="14.05660377358491"/>
      <point x="900.6792452830189" y="169.66981132075472"/>
    </contour>
    <contour>
      <point x="916.4433962264151" y="397.35849056603774" type="curve"/>
      <point x="726.688679245283" y="534.8679245283018" type="line"/>
      <point x="726.688679245283" y="481.811320754717" type="line"/>
      <point x="615.7264150943396" y="508.0377358490566"/>
      <point x="571.2924528301887" y="512.4528301886793"/>
      <point x="482.8207547169811" y="512.4528301886793" type="curve" smooth="yes"/>
      <point x="167.1320754716981" y="512.4528301886793" type="line"/>
      <point x="167.1320754716981" y="476.10377358490564"/>
      <point x="167.1320754716981" y="444.70754716981133"/>
      <point x="167.1320754716981" y="408.35849056603774" type="curve" smooth="yes"/>
      <point x="167.1320754716981" y="401.35849056603774"/>
      <point x="171.1320754716981" y="397.35849056603774"/>
      <point x="178.1320754716981" y="397.35849056603774" type="curve"/>
      <point x="549.6509433962265" y="397.35849056603774" type="line" smooth="yes"/>
      <point x="660.7547169811321" y="397.35849056603774"/>
      <point x="795.5849056603773" y="397.35849056603774"/>
    </contour>
  </outline>
</glyph>
<glyph name="f.italic" format="2">
  <advance width="400.0"/>
  <outline>
    <contour>
      <point x="32.924528301886795" y="450.0" type="line"/>
      <point x="32.924528301886795" y="416.4811320754717"/>
      <point x="32.924528301886795" y="389.08490566037733"/>
      <point x="32.924528301886795" y="355.5660377358491" type="curve" smooth="yes"/>
      <point x="32.924528301886795" y="348.5660377358491"/>
      <point x="36.924528301886795" y="344.5660377358491"/>
      <point x="43.924528301886795" y="344.5660377358491" type="curve" smooth="yes"/>
      <point x="361.22641509433964" y="344.5660377358491" type="line"/>
      <point x="361.22641509433964" y="378.08490566037733"/>
      <point x="361.22641509433964" y="405.4811320754717"/>
      <point x="361.22641509433964" y="439.0" type="curve" smooth="yes"/>
      <point x="361.22641509433964" y="446.0"/>
      <point x="357.22641509433964" y="450.0"/>
      <point x="350.22641509433964" y="450.0" type="curve" smooth="yes"/>
    </contour>
    <contour>
      <point x="307.27358490566036" y="767.0754716981132" type="curve" smooth="yes"/>
      <point x="174.97169811320754" y="767.0754716981132"/>
      <point x="108.67924528301887" y="697.3867924528302"/>
      <point x="108.67924528301887" y="552.8962264150944" type="curve" smooth="yes"/>
      <point x="108.67924528301887" y="348.0660377358491"/>
      <point x="108.67924528301887" y="118.70754716981132"/>
      <point x="108.67924528301887" y="-100.29245283018868" type="curve" smooth="yes"/>
      <point x="108.67924528301887" y="-133.29245283018867"/>
      <point x="108.67924528301887" y="-167.0"/>
      <point x="108.67924528301887" y="-200.0" type="curve"/>
      <point x="146.4433962264151" y="-200.0"/>
      <point x="181.37735849056605" y="-200.0"/>
      <point x="219.14150943396226" y="-200.0" type="curve" smooth="yes"/>
      <point x="225.43396226415095" y="-200.0"/>
      <point x="230.14150943396226" y="-195.29245283018867"/>
      <point x="230.14150943396226" y="-189.0" type="curve" smooth="yes"/>
      <point x="230.14150943396226" y="-7.801886792452848"/>
      <point x="230.14150943396226" y="303.5"/>
      <point x="230.14150943396226" y="578.3679245283018" type="curve" smooth="yes"/>
      <point x="230.14150943396226" y="610.2641509433962"/>
      <point x="237.31132075471697" y="634.4056603773585"/>
      <point x="250.52830188679246" y="647.9150943396227" type="curve" smooth="yes"/>
      <point x="262.0377358490566" y="659.4245283018868"/>
      <point x="276.42452830188677" y="664.8867924528302"/>
      <point x="297.9056603773585" y="664.8867924528302" type="curve" smooth="yes"/>
      <point x="312.6792452830189" y="664.8867924528302"/>
      <point x="325.57547169811323" y="662.1320754716982"/>
      <point x="339.00943396226415" y="656.9150943396227" type="curve"/>
      <point x="339.00943396226415" y="632.0377358490566"/>
      <point x="339.00943396226415" y="608.622641509434"/>
      <point x="339.00943396226415" y="583.0377358490566" type="curve"/>
      <point x="339.00943396226415" y="573.1603773584906" type="line"/>
      <point x="371.8207547169811" y="573.1603773584906"/>
      <point x="390.60377358490564" y="573.1603773584906"/>
      <point x="423.41509433962267" y="573.1603773584906" type="curve" smooth="yes"/>
      <point x="430.41509433962267" y="573.1603773584906"/>
      <point x="434.41509433962267" y="577.1603773584906"/>
      <point x="434.41509433962267" y="584.1603773584906" type="curve" smooth="yes"/>
      <point x="434.41509433962267" y="725.7358490566038" type="line"/>
      <point x="434.41509433962267" y="729.0283018867924"/>
      <point x="433.41509433962267" y="731.7358490566038"/>
      <point x="431.41509433962267" y="733.7358490566038" type="curve" smooth="yes"/>
      <point x="418.70754716981133" y="746.4433962264151"/>
      <point x="375.9056603773585" y="767.0754716981132"/>
    </contour>
  </outline>
</glyph>
<glyph name="g.mono" format="2">
  <advance width="600.0"/>
  <anchor x="293.6320754716981" y="546.9056603773585" name="top"/>
  <outline>
    <contour>
      <point x="383.60377358490564" y="508.811320754717" type="line"/>
      <point x="463.66037735849056" y="468.85849056603774" type="line"/>
      <point x="463.66037735849056" y="500.811320754717" type="line"/>
      <point x="511.95283018867923" y="510.1509433962264" type="line" smooth="yes"/>
      <point x="570.8301886792453" y="521.3679245283018"/>
      <point x="574.7075471698113" y="521.0754716981132"/>
      <point x="574.7075471698113" y="540.6132075471698" type="curve"/>
      <point x="574.7075471698113" y="605.188679245283" type="line" smooth="yes"/>
      <point x="574.7075471698113" y="612.188679245283"/>
      <point x="570.7075471698113" y="616.188679245283"/>
      <point x="563.7075471698113" y="616.188679245283" type="curve"/>
      <point x="523.7264150943396" y="616.188679245283"/>
      <point x="468.9433962264151" y="616.188679245283"/>
      <point x="428.9622641509434" y="616.188679245283" type="curve"/>
      <point x="428.9622641509434" y="606.8207547169811"/>
      <point x="428.9622641509434" y="603.1132075471698"/>
      <point x="428.9622641509434" y="572.0377358490566" type="curve" smooth="yes"/>
      <point x="428.9622641509434" y="562.5"/>
      <point x="427.9622641509434" y="558.0849056603773"/>
      <point x="422.6698113207547" y="551.5471698113207" type="curve" smooth="yes"/>
    </contour>
    <contour>
      <point x="284.75471698113205" y="546.6132075471698" type="curve" smooth="yes"/>
      <point x="140.9433962264151" y="546.6132075471698"/>
      <point x="59.943396226415096" y="480.02830188679246"/>
      <point x="59.943396226415096" y="371.95283018867923" type="curve" smooth="yes"/>
      <point x="59.943396226415096" y="349.49056603773585" type="line" smooth="yes"/>
      <point x="59.943396226415096" y="241.41509433962264"/>
      <point x="140.9433962264151" y="174.83018867924528"/>
      <point x="284.75471698113205" y="174.83018867924528" type="curve" smooth="yes"/>
      <point x="428.5660377358491" y="174.83018867924528"/>
      <point x="509.5660377358491" y="241.41509433962264"/>
      <point x="509.5660377358491" y="349.49056603773585" type="curve" smooth="yes"/>
      <point x="509.5660377358491" y="371.95283018867923" type="line" smooth="yes"/>
      <point x="509.5660377358491" y="480.02830188679246"/>
      <point x="428.5660377358491" y="546.6132075471698"/>
    </contour>
    <contour>
      <point x="284.75471698113205" y="452.5" type="curve" smooth="yes"/>
      <point x="324.60377358490564" y="452.5"/>
      <point x="353.8679245283019" y="443.16037735849056"/>
      <point x="371.6698113207547" y="426.0660377358491" type="curve" smooth="yes"/>
      <point x="385.59433962264154" y="412.14150943396226"/>
      <point x="392.3490566037736" y="394.33962264150944"/>
      <point x="392.3490566037736" y="371.95283018867923" type="curve" smooth="yes"/>
      <point x="392.3490566037736" y="349.49056603773585" type="line" smooth="yes"/>
      <point x="392.3490566037736" y="296.83962264150944"/>
      <point x="353.57547169811323" y="268.9433962264151"/>
      <point x="284.75471698113205" y="268.9433962264151" type="curve" smooth="yes"/>
      <point x="244.9056603773585" y="268.9433962264151"/>
      <point x="214.64150943396226" y="278.2830188679245"/>
      <point x="197.1320754716981" y="296.08490566037733" type="curve" smooth="yes"/>
      <point x="183.91509433962264" y="309.3018867924528"/>
      <point x="177.16037735849056" y="327.10377358490564"/>
      <point x="177.16037735849056" y="349.49056603773585" type="curve" smooth="yes"/>
      <point x="177.16037735849056" y="371.95283018867923" type="line" smooth="yes"/>
      <point x="177.16037735849056" y="424.60377358490564"/>
      <point x="215.93396226415095" y="452.5"/>
    </contour>
    <contour>
      <point x="185.46226415094338" y="209.66037735849056" type="line"/>
      <point x="185.46226415094338" y="173.6320754716981" type="line"/>
      <point x="136.52830188679246" y="155.9245283018868"/>
      <point x="111.69811320754718" y="121.9245283018868"/>
      <point x="111.69811320754718" y="77.84905660377359" type="curve" smooth="yes"/>
      <point x="111.69811320754718" y="24.21698113207547"/>
      <point x="155.82075471698113" y="-14.150943396226413"/>
      <point x="203.62264150943395" y="-14.150943396226413" type="curve" smooth="yes"/>
      <point x="381.0660377358491" y="-14.150943396226413" type="line" smooth="yes"/>
      <point x="427.5188679245283" y="-14.150943396226413"/>
      <point x="444.1981132075472" y="-32.924528301886795"/>
      <point x="444.1981132075472" y="-72.60377358490567" type="curve" smooth="yes"/>
      <point x="444.1981132075472" y="-98.67924528301887" type="line" smooth="yes"/>
      <point x="444.1981132075472" y="-118.14150943396227"/>
      <point x="440.02830188679246" y="-135.77358490566039"/>
      <point x="429.39622641509436" y="-146.4056603773585" type="curve" smooth="yes"/>
      <point x="419.47169811320754" y="-156.33018867924528"/>
      <point x="403.79245283018867" y="-163.1320754716981"/>
      <point x="381.0660377358491" y="-163.1320754716981" type="curve"/>
      <point x="217.70754716981133" y="-163.1320754716981" type="line" smooth="yes"/>
      <point x="171.25471698113208" y="-163.1320754716981"/>
      <point x="154.5754716981132" y="-142.60377358490567"/>
      <point x="154.5754716981132" y="-106.26415094339623" type="curve" smooth="yes"/>
      <point x="154.5754716981132" y="-77.9433962264151" type="line" smooth="yes"/>
      <point x="154.5754716981132" y="-45.216981132075475"/>
      <point x="167.1320754716981" y="-18.81132075471698"/>
      <point x="207.80188679245282" y="-8.981132075471699" type="curve"/>
      <point x="137.35849056603774" y="34.67924528301887" type="line"/>
      <point x="137.35849056603774" y="-0.34905660377358316" type="line"/>
      <point x="74.48113207547169" y="-11.10377358490566"/>
      <point x="35.235849056603776" y="-53.44339622641509"/>
      <point x="35.235849056603776" y="-113.32075471698113" type="curve" smooth="yes"/>
      <point x="35.235849056603776" y="-131.02830188679246" type="line" smooth="yes"/>
      <point x="35.235849056603776" y="-207.27358490566039"/>
      <point x="87.9433962264151" y="-255.0"/>
      <point x="191.23584905660377" y="-255.0" type="curve" smooth="yes"/>
      <point x="394.0943396226415" y="-255.0" type="line" smooth="yes"/>
      <point x="508.70754716981133" y="-255.0"/>
      <point x="563.8301886792453" y="-188.70754716981133"/>
      <point x="563.8301886792453" y="-99.38679245283019" type="curve" smooth="yes"/>
      <point x="563.8301886792453" y="-64.9433962264151" type="line" smooth="yes"/>
      <point x="563.8301886792453" y="25.54716981132075"/>
      <point x="508.70754716981133" y="88.91509433962264"/>
      <point x="394.0943396226415" y="88.91509433962264" type="curve" smooth="yes"/>
      <point x="258.811320754717" y="88.91509433962264" type="line" smooth="yes"/>
      <point x="240.83962264150944" y="88.91509433962264"/>
      <point x="232.45283018867923" y="95.83962264150944"/>
      <point x="232.45283018867923" y="114.98113207547169" type="curve" smooth="yes"/>
      <point x="232.45283018867923" y="138.66037735849056"/>
      <point x="236.54716981132074" y="162.0"/>
      <point x="245.32075471698113" y="203.5188679245283" type="curve"/>
    </contour>
  </outline>
</glyph>
<glyph name="hyphen_hyphen_greater.code" format="2">
  <advance width="1800.0"/>
  <outline>
    <contour>
      <point x="1479.7641509433963" y="324.04716981132077" type="curve"/>
      <point x="1479.7641509433963" y="331.04716981132077"/>
      <point x="1479.7641509433963" y="346.29245283018867"/>
      <point x="1479.7641509433963" y="360.3679245283019" type="curve" smooth="yes"/>
      <point x="1479.7641509433963" y="368.07547169811323"/>
      <point x="1477.1792452830189" y="372.7830188679245"/>
      <point x="1468.0566037735848" y="374.1981132075472" type="curve"/>
      <point x="1441.933962264151" y="378.7358490566038"/>
      <point x="1219.4150943396226" y="408.79245283018867"/>
      <point x="1216.367924528302" y="408.79245283018867" type="curve"/>
      <point x="128.53773584905662" y="408.79245283018867" type="line"/>
      <point x="128.53773584905662" y="372.4433962264151"/>
      <point x="128.53773584905662" y="335.3867924528302"/>
      <point x="128.53773584905662" y="299.0377358490566" type="curve" smooth="yes"/>
      <point x="128.53773584905662" y="292.74528301886795"/>
      <point x="132.53773584905662" y="288.0377358490566"/>
      <point x="139.53773584905662" y="288.0377358490566" type="curve"/>
      <point x="1216.367924528302" y="288.0377358490566" type="line" smooth="yes"/>
      <point x="1219.4150943396226" y="288.0377358490566"/>
      <point x="1408.3490566037735" y="312.8490566037736"/>
    </contour>
    <contour>
      <point x="1686.367924528302" y="295.99056603773585" type="line"/>
      <point x="1580.367924528302" y="222.9433962264151"/>
      <point x="1476.4905660377358" y="150.89622641509433"/>
      <point x="1369.7830188679245" y="77.14150943396227" type="curve" smooth="yes"/>
      <point x="1356.7830188679245" y="67.84905660377359"/>
      <point x="1353.7830188679245" y="66.84905660377359"/>
      <point x="1349.0754716981132" y="66.84905660377359" type="curve" smooth="yes"/>
      <point x="1344.367924528302" y="66.84905660377359"/>
      <point x="1341.6603773584907" y="70.55660377358491"/>
      <point x="1341.6603773584907" y="75.26415094339623" type="curve"/>
      <point x="1341.6603773584907" y="111.49056603773585"/>
      <point x="1341.6603773584907" y="146.5943396226415"/>
      <point x="1341.6603773584907" y="182.82075471698113" type="curve"/>
      <point x="1521.745283018868" y="303.1981132075472"/>
      <point x="1533.2075471698113" y="308.5377358490566"/>
      <point x="1620.622641509434" y="350.70754716981133" type="curve"/>
      <point x="1596.8396226415093" y="313.29245283018867" type="line"/>
      <point x="1596.8396226415093" y="384.12264150943395" type="line"/>
      <point x="1620.622641509434" y="346.70754716981133" type="line"/>
      <point x="1533.2075471698113" y="388.87735849056605"/>
      <point x="1521.745283018868" y="394.2169811320755"/>
      <point x="1341.6603773584907" y="514.5943396226415" type="curve"/>
      <point x="1341.6603773584907" y="550.8207547169811"/>
      <point x="1341.6603773584907" y="585.9245283018868"/>
      <point x="1341.6603773584907" y="622.1509433962265" type="curve"/>
      <point x="1341.6603773584907" y="626.8584905660377"/>
      <point x="1344.367924528302" y="630.566037735849"/>
      <point x="1349.0754716981132" y="630.566037735849" type="curve" smooth="yes"/>
      <point x="1353.7830188679245" y="630.566037735849"/>
      <point x="1356.7830188679245" y="629.566037735849"/>
      <point x="1369.7830188679245" y="620.2735849056604" type="curve" smooth="yes"/>
      <point x="1471.7830188679245" y="550.2264150943396"/>
      <point x="1616.5283018867924" y="451.87735849056605"/>
      <point x="1671.8301886792453" y="411.54716981132077" type="curve" smooth="yes"/>
      <point x="1684.367924528302" y="402.42452830188677"/>
      <point x="1686.367924528302" y="398.54716981132077"/>
      <point x="1686.367924528302" y="385.83962264150944" type="curve" smooth="yes"/>
    </contour>
  </outline>
</glyph>
<glyph name="m.italic" format="2">
  <advance width="850.0"/>
  <anchor x="428.70754716981133" y="0.0" name="bottom"/>
  <outline>
    <contour>
      <point x="81.69811320754718" y="535.9056603773585" type="curve"/>
      <point x="81.69811320754718" y="507.87735849056605"/>
      <point x="81.69811320754718" y="473.29245283018867"/>
      <point x="81.69811320754718" y="435.9056603773585" type="curve" smooth="yes"/>
      <point x="81.69811320754718" y="294.3679245283019"/>
      <point x="81.69811320754718" y="152.53773584905662"/>
      <point x="81.69811320754718" y="11.0" type="curve" smooth="yes"/>
      <point x="81.69811320754718" y="4.0"/>
      <point x="85.69811320754718" y="0.0"/>
      <point x="92.69811320754718" y="0.0" type="curve" smooth="yes"/>
      <point x="125.50943396226415" y="0.0"/>
      <point x="176.71698113207546" y="0.0"/>
      <point x="209.52830188679246" y="0.0" type="curve"/>
      <point x="209.52830188679246" y="148.35849056603774"/>
      <point x="209.52830188679246" y="295.37735849056605"/>
      <point x="209.52830188679246" y="424.14150943396226" type="curve"/>
      <point x="209.52830188679246" y="425.14150943396226"/>
      <point x="179.71698113207546" y="535.9056603773585"/>
      <point x="178.71698113207546" y="535.9056603773585" type="curve"/>
      <point x="152.9811320754717" y="535.9056603773585"/>
      <point x="107.43396226415095" y="535.9056603773585"/>
    </contour>
    <contour>
      <point x="359.20754716981133" y="547.3207547169811" type="curve" smooth="yes"/>
      <point x="303.7452830188679" y="547.3207547169811"/>
      <point x="257.0377358490566" y="514.4433962264151"/>
      <point x="219.82075471698113" y="457.85849056603774" type="curve"/>
      <point x="175.00943396226415" y="457.85849056603774" type="line"/>
      <point x="195.52830188679246" y="324.99056603773585" type="line"/>
      <point x="234.25471698113208" y="394.59433962264154"/>
      <point x="276.5660377358491" y="428.85849056603774"/>
      <point x="317.41509433962267" y="428.85849056603774" type="curve" smooth="yes"/>
      <point x="346.57547169811323" y="428.85849056603774"/>
      <point x="361.08490566037733" y="413.37735849056605"/>
      <point x="361.08490566037733" y="372.35849056603774" type="curve" smooth="yes"/>
      <point x="361.08490566037733" y="264.99056603773585"/>
      <point x="361.08490566037733" y="138.14150943396226"/>
      <point x="361.08490566037733" y="11.0" type="curve" smooth="yes"/>
      <point x="361.08490566037733" y="4.0"/>
      <point x="365.08490566037733" y="0.0"/>
      <point x="372.08490566037733" y="0.0" type="curve" smooth="yes"/>
      <point x="396.4056603773585" y="0.0"/>
      <point x="460.3490566037736" y="0.0"/>
      <point x="488.91509433962267" y="0.0" type="curve"/>
      <point x="488.91509433962267" y="213.21698113207546"/>
      <point x="488.91509433962267" y="351.8490566037736"/>
      <point x="488.91509433962267" y="414.85849056603774" type="curve" smooth="yes"/>
      <point x="488.91509433962267" y="505.9339622641509"/>
      <point x="433.00943396226415" y="547.3207547169811"/>
    </contour>
    <contour>
      <point x="642.6698113207547" y="547.3207547169811" type="curve" smooth="yes"/>
      <point x="581.3018867924528" y="547.3207547169811"/>
      <point x="539.5471698113207" y="517.1981132075472"/>
      <point x="505.8207547169811" y="457.85849056603774" type="curve"/>
      <point x="459.00943396226415" y="457.85849056603774" type="line"/>
      <point x="476.16037735849056" y="326.99056603773585" type="line"/>
      <point x="509.7641509433962" y="394.3018867924528"/>
      <point x="549.9528301886793" y="428.85849056603774"/>
      <point x="591.2641509433962" y="428.85849056603774" type="curve" smooth="yes"/>
      <point x="624.6698113207547" y="428.85849056603774"/>
      <point x="640.4716981132076" y="411.9622641509434"/>
      <point x="640.4716981132076" y="370.60377358490564" type="curve"/>
      <point x="640.4716981132076" y="288.35849056603774"/>
      <point x="640.4716981132076" y="188.16981132075472"/>
      <point x="640.4716981132076" y="88.44339622641509" type="curve"/>
      <point x="640.4716981132076" y="32.90566037735849"/>
      <point x="669.7641509433962" y="0.0"/>
      <point x="730.0849056603773" y="0.0" type="curve" smooth="yes"/>
      <point x="752.066037735849" y="0.0"/>
      <point x="786.0754716981132" y="0.0"/>
      <point x="793.9056603773585" y="0.0" type="curve" smooth="yes"/>
      <point x="800.9056603773585" y="0.0"/>
      <point x="804.9056603773585" y="3.7075471698113205"/>
      <point x="804.9056603773585" y="11.0" type="curve" smooth="yes"/>
      <point x="804.9056603773585" y="42.81132075471698"/>
      <point x="804.9056603773585" y="73.62264150943396"/>
      <point x="804.9056603773585" y="105.43396226415095" type="curve"/>
      <point x="793.6132075471698" y="105.43396226415095" type="line"/>
      <point x="790.0283018867924" y="105.43396226415095"/>
      <point x="787.4433962264151" y="105.43396226415095"/>
      <point x="783.8584905660377" y="105.43396226415095" type="curve" smooth="yes"/>
      <point x="778.1037735849056" y="105.43396226415095"/>
      <point x="774.6415094339623" y="106.72641509433961"/>
      <point x="771.7641509433962" y="109.60377358490565" type="curve" smooth="yes"/>
      <point x="768.8867924528302" y="112.48113207547169"/>
      <point x="767.5943396226415" y="116.65094339622641"/>
      <point x="767.5943396226415" y="121.69811320754717" type="curve"/>
      <point x="767.5943396226415" y="229.54716981132074"/>
      <point x="768.3018867924528" y="338.5188679245283"/>
      <point x="768.3018867924528" y="409.3207547169811" type="curve" smooth="yes"/>
      <point x="768.3018867924528" y="502.7830188679245"/>
      <point x="708.5943396226415" y="547.3207547169811"/>
    </contour>
  </outline>
</glyph>
